<svg version="1.1" xmlns="http://www.w3.org/2000/svg" style="display: block;" viewBox="0 0 2048 1971" width="1536" height="1478" preserveAspectRatio="none">
<defs>
	<linearGradient id="Gradient1" gradientUnits="userSpaceOnUse" x1="460.491" y1="567.418" x2="323.287" y2="711.463">
		<stop class="stop0" offset="0" stop-opacity="1" stop-color="rgb(68,65,73)"/>
		<stop class="stop1" offset="1" stop-opacity="1" stop-color="rgb(93,95,99)"/>
	</linearGradient>
	<linearGradient id="Gradient2" gradientUnits="userSpaceOnUse" x1="720.383" y1="1515.63" x2="641.739" y2="1658.07">
		<stop class="stop0" offset="0" stop-opacity="1" stop-color="rgb(62,59,60)"/>
		<stop class="stop1" offset="1" stop-opacity="1" stop-color="rgb(97,99,105)"/>
	</linearGradient>
</defs>
<path transform="translate(0,0)" fill="rgb(255,255,255)" d="M 0 0 L 2048 0 L 2048 1971 L 0 1971 L 0 0 z"/>
<path transform="translate(0,0)" fill="rgb(239,144,212)" d="M 470.443 584.936 C 578.174 447.685 707.351 363.607 879.535 328.833 C 903.7 324.172 928.12 320.947 952.666 319.174 C 960.472 318.559 996.292 317.842 1001.11 316.044 C 1004.39 316.025 1006.81 315.761 1009.97 316.453 L 1010.93 316.573 C 1022.79 317.946 1039.33 318.026 1051.73 318.766 C 1073.9 320.227 1095.98 322.826 1117.88 326.552 C 1278.61 354.294 1423.56 440.071 1525.23 567.607 C 1528.85 572.136 1535.86 581.416 1539.53 585.051 L 1543.38 585.194 C 1589.22 584.779 1635.43 585.636 1681.17 584.916 L 1681.16 595.883 C 1681.96 623.511 1681.05 651.631 1681.35 679.278 C 1681.48 690.857 1680.78 706.639 1681.73 717.86 C 1672.64 727.26 1628.29 715.197 1619.78 724.011 C 1621.27 732.672 1626.12 741.7 1629.08 750.066 C 1647.79 802.857 1664.11 860.42 1667.67 916.571 C 1677.6 916.921 1749.34 916.105 1753.01 917.815 L 1753.08 977.824 L 1831.61 977.878 L 1831.68 963.347 C 1844.41 969.576 1857.1 975.88 1869.76 982.258 C 1857.65 988.389 1843.86 995.75 1831.6 1001.17 L 1831.64 986.751 C 1806.37 987.894 1778.56 986.763 1753.02 987.14 C 1753.03 1005.94 1752.29 1031.74 1753.15 1050 C 1751.35 1051.34 1749.29 1052.87 1746.99 1053.09 C 1721.14 1055.5 1694.31 1052.4 1668.46 1054.28 C 1664.16 1077.88 1661.9 1100.84 1656.84 1124.62 C 1630.49 1248.32 1568.08 1361.55 1479.95 1451.93 C 1474.04 1458 1467.29 1463.56 1461.99 1470.38 C 1455.12 1482.54 1441.79 1488.71 1432.21 1498.44 C 1425.99 1504.75 1417.57 1508.03 1418 1517.89 C 1417.8 1528.92 1417.92 1539.47 1417.98 1550.25 L 1418.23 1611.18 C 1418.25 1620.1 1418.85 1635.06 1416.97 1643.36 C 1414.16 1655.78 1383.15 1646.61 1375.19 1651 C 1388.41 1676.62 1402.89 1702.08 1416.33 1727.76 C 1420.73 1725.26 1424.57 1723.32 1429.08 1721.12 C 1429.56 1735.17 1429.97 1749.22 1430.3 1763.27 C 1419.58 1756.47 1406.18 1746.45 1395.54 1738.98 L 1408.28 1732.17 L 1377.72 1675.39 C 1372.43 1665.58 1365.66 1652.06 1359.38 1643.3 C 1326.35 1643.34 1287.06 1644.39 1254.52 1642.93 C 1252.66 1633.27 1256.56 1611.18 1250.59 1605.39 C 1243.77 1604.45 1160.88 1635.95 1145.74 1635.05 C 1143.15 1634.89 1120.29 1640.46 1117.89 1641.9 L 1117.89 1624.47 C 1117.91 1611.65 1117.85 1598.83 1117.72 1586.02 L 1009.99 1586.04 L 1002.14 1586.08 L 1000.98 1585.68 C 985.937 1586.64 964.665 1586.11 949.272 1586.02 C 934.924 1585.93 915.393 1586.56 901.383 1585.84 C 900.447 1598.59 900.879 1615.35 900.885 1628.43 C 900.933 1634.61 900.92 1640.8 901.189 1646.96 C 898.512 1638.7 893.549 1640.04 885.902 1639.69 C 863.315 1635.02 840.934 1630.67 818.821 1623.91 C 812.636 1622.02 804.807 1619.29 798.55 1618.35 C 789.965 1619.22 779.569 1612.62 773.721 1616.4 C 770.572 1626.08 777.527 1643.11 765.644 1648.72 C 754.737 1653.86 670.051 1649.3 648.942 1650.64 L 652.828 1644.09 C 651.655 1642.04 652.261 1642.77 650.038 1641.5 C 646.045 1641.2 645.569 1641.62 641.697 1643.11 C 631.53 1643.89 618.052 1643.39 607.856 1643.07 L 608.014 1530.24 L 607.521 1528.1 C 604.853 1516.25 603.004 1516.01 593.671 1508.4 C 580.367 1497.54 566.928 1486.7 554.264 1475.1 C 506.345 1431.06 465.053 1380.31 431.673 1324.43 C 345.001 1179.42 317.052 1006.76 353.551 841.815 C 359.419 814.913 366.957 788.403 376.122 762.439 C 379.735 752.024 387.69 733.668 389.944 724.371 C 384.801 715.28 336.917 726.804 325.507 717.334 C 344.06 717.276 362.483 717.229 381.043 717.467 C 388.782 717.566 399.118 719.945 404.434 719.639 C 411.286 716.863 453.304 718.295 464.33 717.908 C 480.622 718.43 534.514 715.784 544.865 720.758 C 547.215 716.755 546.629 715.497 545.795 710.931 C 543.004 707.277 544.083 673.288 544.091 666.394 L 544.063 585.066 C 523.787 585.117 503.031 585.403 482.801 584.781 C 479.315 585.167 474.095 584.956 470.443 584.936 z"/>
<path transform="translate(0,0)" fill="rgb(254,252,85)" d="M 470.443 584.936 C 578.174 447.685 707.351 363.607 879.535 328.833 C 903.7 324.172 928.12 320.947 952.666 319.174 C 960.472 318.559 996.292 317.842 1001.11 316.044 C 1004.39 316.025 1006.81 315.761 1009.97 316.453 L 1010.93 316.573 C 1022.79 317.946 1039.33 318.026 1051.73 318.766 C 1073.9 320.227 1095.98 322.826 1117.88 326.552 C 1278.61 354.294 1423.56 440.071 1525.23 567.607 C 1528.85 572.136 1535.86 581.416 1539.53 585.051 C 1534.68 585.203 1532.66 585.327 1527.92 584.684 C 1518.5 585.134 1466.71 584.049 1463.61 586.674 C 1464.51 605.05 1463.99 627.412 1463.96 646.018 C 1463.93 666.82 1464.5 690.136 1463.77 710.765 C 1463.95 714.929 1463.14 716.677 1467.53 718.647 L 1466.67 720.228 C 1457.82 723.746 1442.95 733.235 1434.41 738.204 C 1424.39 744.039 1414.21 749.71 1404.18 755.5 L 1269.17 833.501 L 1100.31 930.941 L 1048.18 960.988 C 1040.26 965.559 1026.66 972.879 1019.9 977.815 C 1017.63 978.562 1015.73 979.316 1013.37 979.708 C 1008.7 980.232 1008.39 982.949 1003.14 979.59 C 1003.59 975.389 1004.85 975.106 1008.3 971.832 C 1006.06 971.944 1003.26 972.084 999.916 972.251 C 974.854 959.042 935.001 935.259 911.978 921.926 L 675.343 785.386 L 597.316 740.397 C 580.707 730.773 562.556 719.725 545.795 710.931 C 543.004 707.277 544.083 673.288 544.091 666.394 L 544.063 585.066 C 523.787 585.117 503.031 585.403 482.801 584.781 C 479.315 585.167 474.095 584.956 470.443 584.936 z"/>
<path transform="translate(0,0)" fill="rgb(113,246,74)" d="M 1009.97 316.453 L 1010.93 316.573 C 1022.79 317.946 1039.33 318.026 1051.73 318.766 C 1073.9 320.227 1095.98 322.826 1117.88 326.552 C 1278.61 354.294 1423.56 440.071 1525.23 567.607 C 1528.85 572.136 1535.86 581.416 1539.53 585.051 C 1534.68 585.203 1532.66 585.327 1527.92 584.684 C 1518.5 585.134 1466.71 584.049 1463.61 586.674 C 1464.51 605.05 1463.99 627.412 1463.96 646.018 C 1463.93 666.82 1464.5 690.136 1463.77 710.765 C 1463.95 714.929 1463.14 716.677 1467.53 718.647 L 1466.67 720.228 C 1457.82 723.746 1442.95 733.235 1434.41 738.204 C 1424.39 744.039 1414.21 749.71 1404.18 755.5 L 1269.17 833.501 L 1100.31 930.941 L 1048.18 960.988 C 1040.26 965.559 1026.66 972.879 1019.9 977.815 C 1017.63 978.562 1015.73 979.316 1013.37 979.708 C 1008.7 980.232 1008.39 982.949 1003.14 979.59 C 1003.59 975.389 1004.85 975.106 1008.3 971.832 L 1009.9 971.878 L 1009.92 963.119 C 1010.08 959.573 1010.2 958.682 1009.5 955.089 C 1006.53 952.891 1005.38 953.572 1000.95 953.207 C 1004.26 953.122 1005.07 953.117 1008.44 952.496 C 1010.6 949.602 1009.79 948.785 1009.87 944.249 C 1010.04 940.614 1010.11 940.021 1009.6 936.482 C 1006.52 934.162 1005.66 934.923 1000.97 934.595 C 1006.51 934.321 1005.83 935.221 1009.53 932.482 C 1010.75 929.181 1010.82 930.753 1009.4 927.606 C 1005.85 925.05 1006.15 925.898 1000.93 925.586 C 1004.09 925.395 1005.39 925.266 1008.48 924.711 C 1010.82 921.526 1009.9 920.785 1009.88 915.777 L 1009.86 906.867 L 1009.86 896.979 L 1009.93 888.124 C 1010.09 884.558 1010.24 883.702 1009.5 880.095 C 1006.52 877.931 1005.34 878.593 1000.96 878.224 C 1004.26 878.132 1005.08 878.124 1008.44 877.502 C 1010.6 874.598 1009.8 873.777 1009.89 869.235 C 1010.05 865.61 1010.12 865.014 1009.61 861.486 C 1006.52 859.144 1005.66 859.898 1000.96 859.536 C 1006.46 859.281 1005.84 860.173 1009.5 857.472 C 1010.76 854.19 1010.81 855.758 1009.42 852.61 C 1005.86 850.041 1006.19 850.896 1000.93 850.606 C 1004.07 850.408 1005.41 850.27 1008.49 849.717 C 1010.82 846.525 1009.91 845.834 1009.88 840.824 L 1009.83 831.723 L 1009.84 821.997 L 1009.91 813.087 C 1010.09 809.523 1010.23 808.702 1009.5 805.092 C 1006.53 802.872 1005.38 803.535 1000.96 803.12 C 1004.3 803.09 1005.03 803.106 1008.45 802.508 C 1010.63 799.599 1009.81 798.828 1009.9 794.257 C 1010.06 790.62 1010.13 790.025 1009.61 786.487 C 1006.52 784.145 1005.66 784.905 1000.95 784.555 C 1006.52 784.307 1005.83 785.208 1009.56 782.473 C 1010.8 779.189 1010.86 780.761 1009.47 777.599 C 1005.85 774.997 1006.28 775.864 1000.94 775.594 C 1004.09 775.389 1005.4 775.251 1008.5 774.686 C 1010.8 771.522 1009.9 770.738 1009.9 765.799 L 1009.86 756.862 L 1009.88 746.95 L 1009.91 738.11 C 1010.02 734.693 1010.05 733.797 1009.65 730.441 C 1006.52 727.884 1005.91 728.697 1000.96 728.245 C 1004.29 728.166 1005.23 728.134 1008.47 727.572 C 1010.7 724.595 1009.86 723.927 1009.91 719.235 C 1010.05 715.643 1010.11 714.984 1009.61 711.485 C 1006.52 709.153 1005.64 709.914 1000.94 709.577 C 1006.56 709.331 1005.82 710.238 1009.59 707.477 C 1010.83 704.188 1010.88 705.761 1009.5 702.601 C 1005.85 699.989 1006.31 700.856 1000.95 700.584 C 1004.1 700.386 1005.4 700.252 1008.49 699.69 C 1010.8 696.521 1009.91 695.721 1009.94 690.794 L 1009.86 681.787 L 1009.88 672.044 L 1009.93 663.088 C 1010.07 659.554 1010.19 658.662 1009.51 655.074 C 1006.53 652.809 1005.46 653.509 1000.94 653.116 C 1004.44 653.129 1005.3 653.248 1008.77 652.326 C 1010.67 649.015 1009.94 648.753 1009.9 644.261 C 1010.04 640.653 1010.1 639.993 1009.6 636.48 C 1006.52 634.127 1005.68 634.885 1000.97 634.521 L 1007.11 634.201 C 1010.16 632.162 1009 633.476 1010.55 629.989 L 1009.53 627.589 C 1005.83 624.977 1006.35 625.844 1000.96 625.586 C 1004.07 625.375 1005.43 625.229 1008.49 624.674 C 1010.68 621.687 1009.9 620.067 1009.92 615.723 C 1009.98 613.344 1009.92 611.236 1009.86 608.868 C 1007.24 606.257 1007.43 607.094 1002.72 606.545 C 1005.91 606.63 1005.82 606.712 1008.85 605.834 C 1010.74 602.387 1009.97 601.513 1009.91 596.908 L 1009.93 588.03 C 1010.08 584.506 1010.19 583.657 1009.51 580.075 C 1006.52 577.802 1005.47 578.503 1000.95 578.103 C 1004.46 578.124 1005.3 578.241 1008.8 577.328 C 1010.7 574.007 1009.97 573.705 1009.93 569.204 C 1010.03 565.676 1010.07 564.92 1009.59 561.478 C 1006.53 559.109 1005.64 559.863 1000.95 559.476 C 1006.61 559.53 1008.12 560.318 1010.56 554.987 L 1009.57 552.601 C 1005.84 549.941 1006.43 550.823 1000.94 550.583 C 1004.04 550.372 1005.45 550.222 1008.5 549.675 C 1010.79 546.529 1009.9 545.702 1009.91 540.791 C 1010.1 537.605 1010.27 536.706 1009.64 533.483 C 1006.49 531.239 1005.67 532.035 1000.94 531.855 C 1004.07 531.715 1005.88 531.86 1008.8 530.656 C 1010.65 527.49 1009.92 526.309 1009.92 521.971 L 1009.96 513.024 L 1009.86 503.216 L 1009.96 494.212 C 1010.04 490.716 1010.07 489.896 1009.59 486.485 C 1006.54 484.131 1005.64 484.889 1000.95 484.524 L 1007.11 484.242 C 1010.2 482.183 1009.02 483.511 1010.61 479.984 L 1009.63 477.58 C 1005.84 474.85 1006.56 475.753 1000.94 475.554 C 1004.1 475.348 1005.4 475.211 1008.5 474.639 C 1010.77 471.53 1009.89 470.612 1009.91 465.76 C 1010.11 462.582 1010.27 461.701 1009.65 458.483 C 1006.49 456.244 1005.68 457.037 1000.96 456.854 C 1004.1 456.719 1005.88 456.868 1008.81 455.661 C 1010.63 452.48 1009.92 451.243 1009.96 446.947 L 1009.99 438.029 C 1010.02 434.815 1010.01 433.596 1009.64 430.427 C 1006.53 427.781 1006.02 428.628 1000.95 428.157 C 1004.4 428.194 1005.8 428.435 1009.07 427.241 C 1010.76 424.028 1010.07 423.445 1009.97 419.215 C 1010.02 415.808 1010.04 414.805 1009.6 411.471 C 1006.54 409.06 1005.69 409.828 1000.93 409.432 L 1007.12 409.129 C 1010.19 407.148 1009.01 408.434 1010.64 405.003 L 1009.46 402.314 C 1005.83 399.961 1006.04 400.765 1000.95 400.578 C 1004.08 400.414 1005.37 400.416 1008.5 399.646 C 1010.76 396.523 1009.89 395.59 1009.94 390.766 C 1010.17 387.575 1010.35 386.715 1009.73 383.479 C 1006.46 381.202 1005.8 382.014 1000.96 381.85 C 1004.09 381.705 1005.88 381.847 1008.81 380.641 C 1010.64 377.486 1009.93 376.168 1009.97 371.885 L 1009.97 363.009 C 1010.07 359.521 1010.16 358.615 1009.5 355.068 C 1006.53 352.794 1005.46 353.496 1000.95 353.099 C 1004.47 353.124 1005.31 353.228 1008.84 352.366 C 1010.83 349.001 1010.05 348.663 1009.99 343.998 L 1000.4 344.022 C 1000.93 341.473 1000.92 337.24 1001 334.473 C 1006.65 334.541 1007.73 335.498 1010.46 330.54 L 1009.68 328.282 C 1006.42 325.575 1006.96 326.43 1001.92 325.836 L 1001.94 325.396 L 1009.96 325.388 L 1009.97 316.453 z"/>
<path transform="translate(0,0)" fill="rgb(168,168,167)" d="M 1009.97 316.453 L 1010.93 316.573 C 1022.79 317.946 1039.33 318.026 1051.73 318.766 C 1073.9 320.227 1095.98 322.826 1117.88 326.552 C 1278.61 354.294 1423.56 440.071 1525.23 567.607 C 1528.85 572.136 1535.86 581.416 1539.53 585.051 C 1534.68 585.203 1532.66 585.327 1527.92 584.684 C 1395.68 419.575 1223.1 328.499 1009.96 325.388 L 1009.97 316.453 z"/>
<path transform="translate(0,0)" fill="rgb(185,53,30)" d="M 1463.77 710.765 C 1463.95 714.929 1463.14 716.677 1467.53 718.647 L 1466.67 720.228 C 1457.82 723.746 1442.95 733.235 1434.41 738.204 C 1424.39 744.039 1414.21 749.71 1404.18 755.5 L 1269.17 833.501 L 1100.31 930.941 L 1048.18 960.988 C 1040.26 965.559 1026.66 972.879 1019.9 977.815 C 1017.63 978.562 1015.73 979.316 1013.37 979.708 C 1008.7 980.232 1008.39 982.949 1003.14 979.59 C 1003.59 975.389 1004.85 975.106 1008.3 971.832 L 1009.9 971.878 C 1017.4 969.054 1042.88 953.181 1051.32 948.345 L 1157.64 887.044 L 1353.52 774.004 C 1386.75 754.884 1429 732.044 1460.77 711.774 L 1463.77 710.765 z"/>
<path transform="translate(0,0)" fill="rgb(101,223,68)" d="M 1460.77 711.774 C 1458.08 700.864 1460.69 615.993 1460.47 599.319 C 1460.43 596.555 1462.61 589.704 1463.61 586.674 C 1464.51 605.05 1463.99 627.412 1463.96 646.018 C 1463.93 666.82 1464.5 690.136 1463.77 710.765 L 1460.77 711.774 z"/>
<path transform="translate(0,0)" fill="rgb(0,0,0)" d="M 1001 334.473 C 1005.81 334.827 1006.56 334.028 1009.6 336.46 C 1010 339.655 1010.02 340.751 1009.99 343.998 L 1000.4 344.022 C 1000.93 341.473 1000.92 337.24 1001 334.473 z"/>
<path transform="translate(0,0)" fill="rgb(0,0,0)" d="M 1276.76 603.839 C 1285.09 603.745 1301.6 602.476 1308.79 606.544 C 1322.39 614.237 1319.55 635.391 1312.63 647.006 C 1303.37 655.593 1289.47 653.333 1276.75 653.113 L 1276.76 603.839 z"/>
<path transform="translate(0,0)" fill="rgb(113,246,74)" d="M 1287.14 612.983 C 1290.94 612.912 1296.62 612.393 1300.04 614.067 C 1311.03 619.455 1308.58 632.198 1303.36 641.127 C 1299 644.037 1293.98 645.4 1289.23 643.009 C 1285.36 636.929 1287.05 621.457 1287.14 612.983 z"/>
<path transform="translate(0,0)" fill="rgb(0,0,0)" d="M 1241.81 603.776 L 1253.94 603.821 C 1256.25 610.825 1271.54 648.636 1269.7 652.445 C 1265.39 653.041 1262.16 654.032 1258.75 651.047 C 1257.75 647.722 1257.15 646.235 1255.74 643.054 L 1239.21 643.068 C 1237.8 647.556 1237.69 650.235 1234.43 652.88 C 1230.76 653.188 1229.49 652.897 1225.79 652.386 C 1224.35 649.046 1239.48 610.18 1241.81 603.776 z"/>
<path transform="translate(0,0)" fill="rgb(113,246,74)" d="M 1247.46 617.862 C 1249.47 621.352 1251.77 628.648 1252.36 632.658 L 1250.9 634.384 C 1246.91 634.164 1246.84 634.779 1243.92 632.939 C 1242.59 628.669 1245.75 622.5 1247.46 617.862 z"/>
<path transform="translate(0,0)" fill="rgb(0,0,0)" d="M 1186.71 603.816 C 1190.64 603.829 1193.98 603.305 1196.97 605.07 C 1198.08 612.773 1197.53 634.744 1197.5 643.541 C 1206.23 643.798 1213.16 641.643 1220.28 644.848 C 1222.47 647.969 1221.67 648.286 1221.74 652.982 C 1210.76 653.382 1197.78 653.079 1186.65 653.102 L 1186.71 603.816 z"/>
<path transform="translate(0,0)" fill="rgb(168,168,167)" d="M 470.443 584.936 C 578.174 447.685 707.351 363.607 879.535 328.833 C 903.7 324.172 928.12 320.947 952.666 319.174 C 960.472 318.559 996.292 317.842 1001.11 316.044 C 1004.39 316.025 1006.81 315.761 1009.97 316.453 L 1009.96 325.388 L 1001.94 325.396 L 1001.92 325.836 L 999.554 326.069 L 971.9 329.902 C 952.446 329.535 931.437 332.803 912.479 335.32 C 804.171 349.704 702.659 392.291 614.338 456.136 C 602.888 464.413 592.379 474.494 580.394 481.967 L 579.593 482.455 C 572.791 491.81 560.677 500.397 552.133 508.409 C 531.965 527.103 513.096 547.151 495.657 568.414 C 492.781 571.933 484.933 581.283 482.801 584.781 C 479.315 585.167 474.095 584.956 470.443 584.936 z"/>
<path transform="translate(0,0)" fill="rgb(124,119,30)" d="M 579.593 482.455 C 587.581 471.96 626.756 444.926 638.163 437.253 C 744.809 364.91 870.686 326.182 999.554 326.069 L 971.9 329.902 C 952.446 329.535 931.437 332.803 912.479 335.32 C 804.171 349.704 702.659 392.291 614.338 456.136 C 602.888 464.413 592.379 474.494 580.394 481.967 L 579.593 482.455 z"/>
<path transform="translate(0,0)" fill="rgb(0,0,0)" d="M 1001.11 316.044 C 1004.39 316.025 1006.81 315.761 1009.97 316.453 L 1009.96 325.388 L 1001.94 325.396 C 1000.58 322.064 1001 319.651 1001.11 316.044 z"/>
<path transform="translate(0,0)" fill="rgb(234,231,86)" d="M 999.554 326.069 L 1001.92 325.836 C 1006.96 326.43 1006.42 325.575 1009.68 328.282 L 1010.46 330.54 C 1007.73 335.498 1006.65 334.541 1001 334.473 C 1000.92 337.24 1000.93 341.473 1000.4 344.022 C 999.354 339.647 1000.73 337.812 999.226 333.588 C 990.135 332.233 981.025 331.004 971.9 329.902 L 999.554 326.069 z"/>
<path transform="translate(0,0)" fill="rgb(0,0,0)" d="M 1009.91 596.908 C 1009.97 601.513 1010.74 602.387 1008.85 605.834 C 1005.82 606.712 1005.91 606.63 1002.72 606.545 C 999.165 605.584 1000.47 601.527 1001.15 599.335 C 1005.08 596.155 1003.74 597.141 1009.91 596.908 z"/>
<path transform="translate(0,0)" fill="rgb(0,0,0)" d="M 1000.94 653.116 C 1005.46 653.509 1006.53 652.809 1009.51 655.074 C 1010.19 658.662 1010.07 659.554 1009.93 663.088 C 1006.79 663.128 1005.16 663.373 1002.16 662.305 C 1000.28 659.133 1000.95 657.237 1000.94 653.116 z"/>
<path transform="translate(0,0)" fill="rgb(0,0,0)" d="M 1000.96 803.12 C 1005.38 803.535 1006.53 802.872 1009.5 805.092 C 1010.23 808.702 1010.09 809.523 1009.91 813.087 C 1006.78 813.123 1005.16 813.364 1002.18 812.301 C 1000.28 809.13 1000.96 807.263 1000.96 803.12 z"/>
<path transform="translate(0,0)" fill="rgb(0,0,0)" d="M 1000.95 578.103 C 1005.47 578.503 1006.52 577.802 1009.51 580.075 C 1010.19 583.657 1010.08 584.506 1009.93 588.03 C 1006.82 588.079 1005.15 588.329 1002.19 587.284 C 1000.29 584.138 1000.97 582.228 1000.95 578.103 z"/>
<path transform="translate(0,0)" fill="rgb(0,0,0)" d="M 1000.95 953.207 C 1005.38 953.572 1006.53 952.891 1009.5 955.089 C 1010.2 958.682 1010.08 959.573 1009.92 963.119 C 1006.77 963.147 1005.16 963.383 1002.15 962.313 C 1000.29 959.13 1000.95 957.317 1000.95 953.207 z"/>
<path transform="translate(0,0)" fill="rgb(0,0,0)" d="M 1000.96 878.224 C 1005.34 878.593 1006.52 877.931 1009.5 880.095 C 1010.24 883.702 1010.09 884.558 1009.93 888.124 C 1006.76 888.152 1005.16 888.387 1002.14 887.316 C 1000.29 884.13 1000.96 882.328 1000.96 878.224 z"/>
<path transform="translate(0,0)" fill="rgb(0,0,0)" d="M 1000.95 353.099 C 1005.46 353.496 1006.53 352.794 1009.5 355.068 C 1010.16 358.615 1010.07 359.521 1009.97 363.009 C 1006.88 363.061 1005.15 363.317 1002.21 362.278 C 1000.28 359.139 1000.97 357.238 1000.95 353.099 z"/>
<path transform="translate(0,0)" fill="rgb(0,0,0)" d="M 1009.97 371.885 C 1009.93 376.168 1010.64 377.486 1008.81 380.641 C 1005.88 381.847 1004.09 381.705 1000.96 381.85 C 1000.81 378.087 1000.67 377.191 1001.41 373.568 C 1004.48 371.347 1005.35 372.113 1009.97 371.885 z"/>
<path transform="translate(0,0)" fill="rgb(0,0,0)" d="M 1009.96 446.947 C 1009.92 451.243 1010.63 452.48 1008.81 455.661 C 1005.88 456.868 1004.1 456.719 1000.96 456.854 C 1000.81 453.088 1000.66 452.191 1001.4 448.563 C 1004.48 446.361 1005.34 447.137 1009.96 446.947 z"/>
<path transform="translate(0,0)" fill="rgb(0,0,0)" d="M 1009.92 521.971 C 1009.92 526.309 1010.65 527.49 1008.8 530.656 C 1005.88 531.86 1004.07 531.715 1000.94 531.855 C 1000.8 528.097 1000.66 527.186 1001.4 523.567 C 1004.48 521.376 1005.31 522.152 1009.92 521.971 z"/>
<path transform="translate(0,0)" fill="rgb(0,0,0)" d="M 1000.93 850.606 C 1000.82 847.002 1000.76 846.017 1001.34 842.504 C 1004.48 840.188 1005.07 841.008 1009.88 840.824 C 1009.91 845.834 1010.82 846.525 1008.49 849.717 C 1005.41 850.27 1004.07 850.408 1000.93 850.606 z"/>
<path transform="translate(0,0)" fill="rgb(0,0,0)" d="M 1000.96 728.245 C 1005.91 728.697 1006.52 727.884 1009.65 730.441 C 1010.05 733.797 1010.02 734.693 1009.91 738.11 C 1006.75 738.144 1005.16 738.382 1002.15 737.315 C 1000.29 734.128 1000.96 732.359 1000.96 728.245 z"/>
<path transform="translate(0,0)" fill="rgb(0,0,0)" d="M 1000.95 428.157 C 1006.02 428.628 1006.53 427.781 1009.64 430.427 C 1010.01 433.596 1010.02 434.815 1009.99 438.029 C 1006.46 438.086 1005.73 438.207 1002.21 437.281 C 1000.28 434.135 1000.97 432.3 1000.95 428.157 z"/>
<path transform="translate(0,0)" fill="rgb(0,0,0)" d="M 1000.96 625.586 C 1000.82 621.957 1000.75 621.042 1001.34 617.508 C 1004.49 615.163 1005.11 615.97 1009.92 615.723 C 1009.9 620.067 1010.68 621.687 1008.49 624.674 C 1005.43 625.229 1004.07 625.375 1000.96 625.586 z"/>
<path transform="translate(0,0)" fill="rgb(0,0,0)" d="M 1000.97 634.521 C 1005.68 634.885 1006.52 634.127 1009.6 636.48 C 1010.1 639.993 1010.04 640.653 1009.9 644.261 C 1006.73 644.3 1005.17 644.536 1002.14 643.483 C 1000.16 639.893 1000.93 639.313 1000.97 634.521 z"/>
<path transform="translate(0,0)" fill="rgb(0,0,0)" d="M 1000.96 859.536 C 1005.66 859.898 1006.52 859.144 1009.61 861.486 C 1010.12 865.014 1010.05 865.61 1009.89 869.235 C 1006.72 869.263 1005.68 869.348 1002.48 868.693 C 1000.19 865.655 1000.99 864.014 1000.96 859.536 z"/>
<path transform="translate(0,0)" fill="rgb(0,0,0)" d="M 1000.95 784.555 C 1005.66 784.905 1006.52 784.145 1009.61 786.487 C 1010.13 790.025 1010.06 790.62 1009.9 794.257 C 1006.72 794.27 1005.68 794.351 1002.48 793.681 C 1000.21 790.657 1001 788.996 1000.95 784.555 z"/>
<path transform="translate(0,0)" fill="rgb(0,0,0)" d="M 1000.95 700.584 C 1000.81 696.932 1000.73 696.065 1001.35 692.516 C 1004.49 690.217 1005.18 691.016 1009.94 690.794 C 1009.91 695.721 1010.8 696.521 1008.49 699.69 C 1005.4 700.252 1004.1 700.386 1000.95 700.584 z"/>
<path transform="translate(0,0)" fill="rgb(0,0,0)" d="M 1000.93 925.586 C 1000.82 921.96 1000.75 921.044 1001.36 917.518 C 1004.48 915.22 1005.15 916.013 1009.88 915.777 C 1009.9 920.785 1010.82 921.526 1008.48 924.711 C 1005.39 925.266 1004.09 925.395 1000.93 925.586 z"/>
<path transform="translate(0,0)" fill="rgb(0,0,0)" d="M 1000.97 934.595 C 1005.66 934.923 1006.52 934.162 1009.6 936.482 C 1010.11 940.021 1010.04 940.614 1009.87 944.249 C 1006.71 944.275 1005.67 944.356 1002.48 943.711 C 1000.19 940.655 1001 939.084 1000.97 934.595 z"/>
<path transform="translate(0,0)" fill="rgb(0,0,0)" d="M 1000.93 409.432 C 1005.69 409.828 1006.54 409.06 1009.6 411.471 C 1010.04 414.805 1010.02 415.808 1009.97 419.215 C 1006.81 419.252 1005.16 419.496 1002.15 418.423 C 1000.18 414.91 1000.94 414.133 1000.93 409.432 z"/>
<path transform="translate(0,0)" fill="rgb(0,0,0)" d="M 1000.94 550.583 C 1000.82 546.985 1000.76 546.013 1001.34 542.505 C 1004.48 540.175 1005.09 540.993 1009.91 540.791 C 1009.9 545.702 1010.79 546.529 1008.5 549.675 C 1005.45 550.222 1004.04 550.372 1000.94 550.583 z"/>
<path transform="translate(0,0)" fill="rgb(0,0,0)" d="M 1009.88 746.95 L 1009.86 756.862 C 1004.86 757.058 1004.1 757.76 1000.79 753.943 C 999.213 746.519 1004.68 747.114 1009.88 746.95 z"/>
<path transform="translate(0,0)" fill="rgb(0,0,0)" d="M 1000.94 775.594 C 1000.81 771.96 1000.74 771.047 1001.35 767.513 C 1004.48 765.207 1005.13 766.012 1009.9 765.799 C 1009.9 770.738 1010.8 771.522 1008.5 774.686 C 1005.4 775.251 1004.09 775.389 1000.94 775.594 z"/>
<path transform="translate(0,0)" fill="rgb(0,0,0)" d="M 1009.86 896.979 L 1009.86 906.867 C 1004.85 907.07 1004.09 907.78 1000.77 903.949 C 999.24 896.525 1004.66 897.131 1009.86 896.979 z"/>
<path transform="translate(0,0)" fill="rgb(0,0,0)" d="M 1000.94 709.577 C 1005.64 709.914 1006.52 709.153 1009.61 711.485 C 1010.11 714.984 1010.05 715.643 1009.91 719.235 C 1006.73 719.259 1005.68 719.344 1002.48 718.684 C 1000.21 715.659 1000.99 714.02 1000.94 709.577 z"/>
<path transform="translate(0,0)" fill="rgb(0,0,0)" d="M 1000.95 400.578 C 1000.82 396.959 1000.75 396.027 1001.34 392.501 C 1004.48 390.159 1005.11 390.979 1009.94 390.766 C 1009.89 395.59 1010.76 396.523 1008.5 399.646 C 1005.37 400.416 1004.08 400.414 1000.95 400.578 z"/>
<path transform="translate(0,0)" fill="rgb(0,0,0)" d="M 1000.94 475.554 C 1000.82 471.96 1000.76 471.006 1001.33 467.501 C 1004.48 465.152 1005.07 465.973 1009.91 465.76 C 1009.89 470.612 1010.77 471.53 1008.5 474.639 C 1005.4 475.211 1004.1 475.348 1000.94 475.554 z"/>
<path transform="translate(0,0)" fill="rgb(0,0,0)" d="M 1009.86 503.216 L 1009.96 513.024 C 1004.84 513.174 1004.09 513.891 1000.76 509.942 C 1000.11 506.59 999.926 508.185 1001.47 505.011 C 1005.09 502.436 1004.44 503.303 1009.86 503.216 z"/>
<path transform="translate(0,0)" fill="rgb(0,0,0)" d="M 1000.95 559.476 C 1005.64 559.863 1006.53 559.109 1009.59 561.478 C 1010.07 564.92 1010.03 565.676 1009.93 569.204 C 1006.77 569.241 1005.16 569.481 1002.14 568.414 C 1000.18 564.916 1000.94 564.163 1000.95 559.476 z"/>
<path transform="translate(0,0)" fill="rgb(0,0,0)" d="M 1000.95 484.524 C 1005.64 484.889 1006.54 484.131 1009.59 486.485 C 1010.07 489.896 1010.04 490.716 1009.96 494.212 C 1006.79 494.245 1005.16 494.483 1002.14 493.417 C 1000.18 489.915 1000.95 489.208 1000.95 484.524 z"/>
<path transform="translate(0,0)" fill="rgb(0,0,0)" d="M 1009.88 672.044 L 1009.86 681.787 C 1004.87 682.019 1004.11 682.727 1000.79 678.932 C 999.225 671.513 1004.72 672.161 1009.88 672.044 z"/>
<path transform="translate(0,0)" fill="rgb(0,0,0)" d="M 1009.84 821.997 L 1009.83 831.723 C 1004.89 831.989 1004.11 832.699 1000.8 828.942 C 1000.08 825.587 999.93 827.193 1001.42 823.973 C 1005.08 821.255 1004.28 822.15 1009.84 821.997 z"/>
<path transform="translate(0,0)" fill="rgb(0,0,0)" d="M 634.917 684.748 C 644.575 684.568 656.795 683.431 665.74 687.451 C 682.101 694.802 678.173 714.601 671.199 727.485 C 661.069 736.6 648.664 734.229 634.923 734.013 L 634.917 684.748 z"/>
<path transform="translate(0,0)" fill="rgb(254,252,85)" d="M 645.526 693.896 C 649.429 693.783 655.107 693.285 658.547 694.991 C 669.357 700.352 666.304 713.409 661.797 721.886 C 656.253 725.548 652.037 724.916 645.501 724.897 L 645.526 693.896 z"/>
<path transform="translate(0,0)" fill="rgb(0,0,0)" d="M 836.487 535.074 C 846.046 534.347 843.548 536.385 850.219 538.38 C 856.035 537.869 867.825 530.31 871.16 539.232 C 873.604 545.773 874.247 565.805 871.758 572.236 C 854.985 576.185 868.026 546.694 858.366 543.364 C 849.691 546.27 851.946 554.526 852.018 562.5 C 852.013 567.028 852.731 567.422 850.838 570.824 C 847.132 573.044 848.508 572.918 844.716 572.741 C 837.763 565.649 845.597 553.598 839.923 545.254 C 836.646 543.354 835.274 542.475 832.451 545.018 C 829.234 554.231 834.871 565.348 827.579 572.035 C 823.478 572.804 825.313 573.094 821.826 571.715 C 819.749 568.117 820.71 543.971 821.274 538.384 C 821.704 534.12 829.48 537.573 832.567 537.181 C 832.567 537.181 836.025 535.322 836.487 535.074 z"/>
<path transform="translate(0,0)" fill="rgb(0,0,0)" d="M 721.813 603.832 L 734.023 603.86 C 736.345 610.263 751.47 649.107 749.78 652.398 C 745.981 652.857 744.362 652.923 740.527 652.879 C 737.831 650.488 738.034 646.811 735.734 643.084 L 719.256 643.105 C 717.914 647.293 717.552 650.547 714.514 653.04 C 711.119 652.968 708.579 653.2 705.429 651.953 C 706.157 645.754 718.744 612.358 721.813 603.832 z"/>
<path transform="translate(0,0)" fill="rgb(254,252,85)" d="M 727.434 618.658 C 730.248 621.807 732.084 628.691 732.483 632.917 L 730.924 634.476 C 727.325 634.343 726.881 634.822 724.105 633.1 C 722.916 628.205 725.503 623.804 727.434 618.658 z"/>
<path transform="translate(0,0)" fill="rgb(0,0,0)" d="M 835.744 602.263 C 844.062 602.663 852.303 603.998 856.074 612.589 C 857.445 615.712 858.027 615.208 857.023 618.367 C 848.245 621.748 834.985 604.301 829.566 616.529 C 833.716 625.504 870.182 624.365 856.268 647.264 C 853.119 652.445 846.288 653.727 840.799 654.418 C 832.036 654.26 813.623 649.515 819.149 637.407 C 832.681 635.982 830.375 648.565 843.773 644.542 C 846.001 643.872 847.147 642.09 847.929 640.044 C 844.988 633.147 831.743 633.514 825.949 629.145 C 810.965 617.843 820.092 604.853 835.744 602.263 z"/>
<path transform="translate(0,0)" fill="rgb(0,0,0)" d="M 653.056 522.981 C 660.425 523.031 684.272 521.479 689.093 524.3 C 689.599 527.388 689.578 527.184 688.87 530.245 C 682.269 535.84 669.926 529.642 664.139 533.178 C 660.028 548.384 679.884 538.462 687.378 543.594 C 688.392 546.612 687.824 547.374 686.798 550.393 C 684.247 551.737 667.859 551.108 663.821 551.077 C 663.682 555.994 663.55 557.201 664.466 561.934 C 670.978 566.119 686.619 559.023 691.162 565.44 C 691.226 568.57 691.181 568.345 689.435 570.984 C 686.048 573.498 659.181 572.357 653.053 572.335 L 653.056 522.981 z"/>
<path transform="translate(0,0)" fill="rgb(0,0,0)" d="M 868.174 696.17 C 896.202 695.154 898.315 728.117 876.435 735.084 C 872.135 735.246 867 735.475 863.225 733.329 C 858.47 730.629 855.013 726.118 853.643 720.824 C 850.525 708.98 856.621 699.432 868.174 696.17 z"/>
<path transform="translate(0,0)" fill="rgb(254,252,85)" d="M 869.015 704.819 C 882.674 704.983 882.483 717.968 875.333 726.408 C 861.119 726.39 860.906 713.399 869.015 704.819 z"/>
<path transform="translate(0,0)" fill="rgb(0,0,0)" d="M 783.109 603.798 L 796.074 603.886 L 781.006 627.515 C 783.897 632.062 795.66 649.147 795.663 653.053 L 783.353 653.03 L 774.532 637.33 L 765.379 653.05 L 752.272 653.076 L 768.007 628.039 C 762.99 620.021 758.046 611.958 753.176 603.85 L 766.444 603.85 L 774.518 618.975 L 783.109 603.798 z"/>
<path transform="translate(0,0)" fill="rgb(0,0,0)" d="M 776.654 709.674 C 771.238 701.303 788.273 694.443 795.905 696.095 C 799.522 696.879 802.627 699.182 804.427 702.417 C 807.965 708.629 806.372 714.44 806.559 721.035 C 806.667 724.861 808.713 728.255 808.294 732.303 C 806.127 735.315 807.541 734.351 803.85 735.206 C 799.871 734.071 799.575 733.952 795.916 732.017 C 789.71 733.44 773.804 738.071 773.89 727.087 C 773.947 719.695 775.853 716.207 781.994 712.45 C 787.21 712.6 792.77 711.289 796.611 707.657 L 796.085 706.385 C 783.928 702.461 790.737 710.234 776.654 709.674 z"/>
<path transform="translate(0,0)" fill="rgb(254,252,85)" d="M 791.392 717.89 C 793.917 717.775 793.865 717.603 796.105 718.669 L 796.547 720.868 C 794.85 724.803 794.471 724.953 791.249 727.96 C 788.757 727.475 788.681 727.383 786.281 726.515 C 784.34 723.837 784.67 725.258 784.994 722.179 C 786.917 719.204 788.066 719.134 791.392 717.89 z"/>
<path transform="translate(0,0)" fill="rgb(0,0,0)" d="M 888.984 535.206 C 901.583 534.134 911.984 537.241 914.557 551.865 C 910.765 561.816 894.817 553.829 888.989 558.063 C 889.683 561.966 889.496 560.783 892.334 564.234 C 897.761 566.334 900.362 561.876 906.416 559.872 C 908.291 560.427 909.132 560.78 910.939 561.509 L 911.393 564.009 C 906.911 575.207 885.794 576.333 881.016 567 C 874.499 554.271 877.693 542.479 888.984 535.206 z"/>
<path transform="translate(0,0)" fill="rgb(254,252,85)" d="M 893.669 542.607 C 897.651 543.399 899.408 544.639 901.822 547.548 L 901.528 549.316 L 899.246 550.109 C 895.451 550.079 892.335 550.579 889.613 548.499 C 889.903 545.79 891.659 544.623 893.669 542.607 z"/>
<path transform="translate(0,0)" fill="rgb(0,0,0)" d="M 695.286 696.178 C 699.303 696.448 704.867 696.945 708.071 699.387 C 712.608 702.845 717.757 713.165 713.574 718.122 C 706.117 720.696 695.269 714.851 690.76 720.614 C 692.042 725.271 695.563 727.216 700.361 726.233 C 705.881 721.772 706.713 722.449 713.816 722.719 C 714.136 728.284 709.492 732.261 704.644 733.972 C 678.728 743.114 668.524 702.651 695.286 696.178 z"/>
<path transform="translate(0,0)" fill="rgb(254,252,85)" d="M 694.844 704.581 C 698.576 704.885 703.096 706.352 703.724 710.484 L 701.833 711.772 C 698.482 711.839 694.646 712.331 691.836 710.813 C 691.721 707.436 692.186 708.077 694.844 704.581 z"/>
<path transform="translate(0,0)" fill="rgb(0,0,0)" d="M 791.795 535.091 C 795.922 534.761 802.271 534.358 805.986 536.224 C 812.531 539.51 817.506 547.862 814.188 554.978 C 806.948 560.828 796.43 553.806 791.702 558.589 C 792.463 562.338 791.682 560.683 794.302 563.657 C 802.06 566.908 801.712 561.557 809.876 559.997 C 812.345 560.81 811.895 560.661 814.156 561.945 L 814.33 563.868 C 798.097 592.996 760.771 553.602 791.795 535.091 z"/>
<path transform="translate(0,0)" fill="rgb(254,252,85)" d="M 795.625 542.817 C 799.243 543.365 804.027 544.895 804.251 549.083 L 802.144 550.025 C 798.67 549.994 794.744 550.696 792.237 548.789 C 792.53 545.461 792.99 545.984 795.625 542.817 z"/>
<path transform="translate(0,0)" fill="rgb(0,0,0)" d="M 896.998 697.263 C 903.828 696.744 902.919 698.451 907.564 698.919 C 911.077 699.273 921.874 692.595 926.578 699.707 C 931.133 706.593 933.337 727.853 926.522 733.849 C 922.913 734.535 924.585 734.759 921.318 733.245 C 918.454 728.701 919.569 721.617 919.754 715.849 C 919.774 710.225 919.507 706.946 913.843 704.715 C 899.936 708.092 912.35 727.065 904.422 733.784 C 901.005 734.211 901.146 734.269 897.792 733.608 C 896.1 730.668 896.909 702.612 896.998 697.263 z"/>
<path transform="translate(0,0)" fill="rgb(0,0,0)" d="M 711.873 545.44 C 717.71 534.355 717.812 535.435 729.77 535.741 L 717.825 553.555 C 721.879 559.533 726.383 565.849 729.748 572.183 L 717.459 572.309 L 711.495 562.175 L 705.709 572.225 L 693.149 572.27 L 705.509 553.847 L 693.545 535.78 C 705.962 535.261 705.906 534.341 711.873 545.44 z"/>
<path transform="translate(0,0)" fill="rgb(0,0,0)" d="M 742.474 697.126 C 746.027 697.012 748.836 696.502 751.947 698.046 C 752.878 701.552 751.885 702.022 750.441 706.24 C 747.605 713.746 743.048 736.129 734.347 735.291 C 725.914 730.275 719.98 707.075 716.634 697.16 C 720.034 697.008 722.731 696.587 725.946 697.634 C 731.658 702.241 732.958 714.045 735.039 721.955 C 737.727 714.596 740.261 704.806 742.474 697.126 z"/>
<path transform="translate(0,0)" fill="rgb(0,0,0)" d="M 735.977 525.956 C 739.451 525.884 741.598 526.001 745.07 526.276 C 747.315 529.286 744.518 531.449 746.876 535.715 L 750.171 536.284 C 752.41 538.485 751.521 537.127 751.573 541.503 C 743.836 546.957 745.299 554.961 746.705 563.33 C 752.718 567.394 751.744 565.845 752.396 572.491 C 727.807 575.389 738.674 559.373 735.461 544.079 L 731.938 542.485 C 730.511 539.325 730.895 541.036 731.523 537.063 C 737.315 532.915 735.942 532.947 735.977 525.956 z"/>
<path transform="translate(0,0)" fill="rgb(0,0,0)" d="M 815.631 687.688 C 819.034 687.623 821.143 687.754 824.545 688.034 C 827.289 691.217 824.348 694.558 826.296 697.196 C 826.987 698.13 829.126 696.588 831.363 700.059 C 830.146 710.295 822.627 703.132 826.339 724.944 C 828.382 726.266 829.286 726.926 831.161 728.478 L 831.587 733.333 C 809.152 742.267 818.055 715.927 814.905 705.695 C 812.154 704.707 813.024 705.333 810.982 703.412 L 810.954 699.494 C 816.764 694.817 815.658 694.915 815.631 687.688 z"/>
<path transform="translate(0,0)" fill="rgb(0,0,0)" d="M 800.978 603.846 C 804.211 603.798 809.127 603.316 811.463 605.232 C 812.708 614.161 811.929 642.629 811.872 653.026 C 808.675 653.136 803.82 653.641 801.422 651.8 C 800.127 642.247 800.915 614.761 800.978 603.846 z"/>
<path transform="translate(0,0)" fill="rgb(0,0,0)" d="M 772.729 534.999 C 776.179 534.773 778.243 534.793 780.092 537.707 C 778.904 544.574 771.7 545.512 768.232 549.506 C 765.473 552.683 768.815 565.203 767.003 569.512 C 765.556 572.956 764.569 572.407 760.584 573.811 L 758.037 572.035 C 756.231 567.683 756.504 545.081 756.962 539.589 C 757.221 536.479 757.537 536.843 759.331 535.638 C 762.86 536.252 765.329 536.822 768.789 537.754 L 772.729 534.999 z"/>
<path transform="translate(0,0)" fill="rgb(0,0,0)" d="M 758.094 697.184 C 761.316 697.129 765.851 696.628 767.861 698.472 C 768.817 706.493 768.324 725.218 768.287 733.976 C 765.084 733.985 760.847 734.541 758.46 732.859 C 757.414 725.245 758.012 705.658 758.094 697.184 z"/>
<path transform="translate(0,0)" fill="rgb(0,0,0)" d="M 836.97 697.174 L 838.673 697.135 C 841.535 697.085 844.867 696.745 846.672 698.502 C 847.644 706.81 847.113 724.887 847.051 734 L 845.338 734.034 C 842.251 734.079 839.152 734.429 837.229 732.537 C 836.287 723.673 836.868 706.733 836.97 697.174 z"/>
<path transform="translate(0,0)" fill="rgb(0,0,0)" d="M 758.148 684.263 C 761.604 684.101 763.849 683.687 767.084 684.917 C 769.031 688.637 768.265 688.985 768.187 693.841 C 764.808 693.988 762.175 694.484 759.154 693.108 C 757.296 690.417 757.963 687.703 758.148 684.263 z"/>
<path transform="translate(0,0)" fill="rgb(0,0,0)" d="M 836.991 684.263 C 840.333 684.119 842.823 683.673 845.889 684.921 C 847.83 688.627 847.066 688.933 846.977 693.779 C 843.541 693.97 841.159 694.462 838.03 693.111 C 836.144 690.424 836.811 687.717 836.991 684.263 z"/>
<path transform="translate(0,0)" fill="rgb(113,249,250)" d="M 325.507 717.334 C 344.06 717.276 362.483 717.229 381.043 717.467 C 388.782 717.566 399.118 719.945 404.434 719.639 C 411.286 716.863 453.304 718.295 464.33 717.908 C 480.622 718.43 534.514 715.784 544.865 720.758 C 556.721 728.362 571.818 736.542 584.162 743.645 L 654.89 784.396 L 874.513 911.209 L 951.433 955.575 C 959.873 960.445 982.024 972.55 989.089 977.826 C 992.395 979.176 994.972 979.693 996.785 982.621 C 996.342 985.731 996.9 984.326 994.868 986.911 C 992.008 994.865 972.672 1029.17 967.778 1038.23 L 911.011 1143.81 L 713.914 1510.18 C 688.21 1510.47 651.007 1509.06 627.243 1510.47 L 615.964 1509.99 C 610.636 1510.26 611.258 1509.32 608.564 1512.16 C 606.712 1517.98 608.763 1523.01 608.014 1530.24 L 607.521 1528.1 C 604.853 1516.25 603.004 1516.01 593.671 1508.4 C 580.367 1497.54 566.928 1486.7 554.264 1475.1 C 506.345 1431.06 465.053 1380.31 431.673 1324.43 C 345.001 1179.42 317.052 1006.76 353.551 841.815 C 359.419 814.913 366.957 788.403 376.122 762.439 C 379.735 752.024 387.69 733.668 389.944 724.371 C 384.801 715.28 336.917 726.804 325.507 717.334 z"/>
<path transform="translate(0,0)" fill="rgb(254,252,85)" d="M 464.33 717.908 C 480.622 718.43 534.514 715.784 544.865 720.758 C 556.721 728.362 571.818 736.542 584.162 743.645 L 654.89 784.396 L 874.513 911.209 L 951.433 955.575 C 959.873 960.445 982.024 972.55 989.089 977.826 C 901.419 978.8 811.824 977.878 724.019 977.881 L 348.062 977.75 C 351.602 899.863 360.174 831.311 388.346 757.605 C 392.693 746.233 398.708 730.082 404.434 719.639 C 411.286 716.863 453.304 718.295 464.33 717.908 z"/>
<path transform="translate(0,0)" fill="rgb(168,168,167)" d="M 325.507 717.334 C 344.06 717.276 362.483 717.229 381.043 717.467 C 388.782 717.566 399.118 719.945 404.434 719.639 C 398.708 730.082 392.693 746.233 388.346 757.605 C 360.174 831.311 351.602 899.863 348.062 977.75 C 347.541 981.9 347.197 982.942 347.966 986.948 L 348.17 988.439 C 349.996 1002.19 350.197 1020.06 351.223 1034.33 C 352.909 1057.08 355.805 1079.73 359.9 1102.18 C 389.02 1261.19 476.369 1403.64 604.887 1501.7 C 608.529 1504.53 612.222 1507.29 615.964 1509.99 C 610.636 1510.26 611.258 1509.32 608.564 1512.16 C 606.712 1517.98 608.763 1523.01 608.014 1530.24 L 607.521 1528.1 C 604.853 1516.25 603.004 1516.01 593.671 1508.4 C 580.367 1497.54 566.928 1486.7 554.264 1475.1 C 506.345 1431.06 465.053 1380.31 431.673 1324.43 C 345.001 1179.42 317.052 1006.76 353.551 841.815 C 359.419 814.913 366.957 788.403 376.122 762.439 C 379.735 752.024 387.69 733.668 389.944 724.371 C 384.801 715.28 336.917 726.804 325.507 717.334 z"/>
<path transform="translate(0,0)" fill="rgb(0,0,0)" d="M 348.062 977.75 L 724.019 977.881 C 811.824 977.878 901.419 978.8 989.089 977.826 C 992.395 979.176 994.972 979.693 996.785 982.621 C 996.342 985.731 996.9 984.326 994.868 986.911 C 909.543 985.993 822.52 986.839 737.077 986.835 L 347.966 986.948 C 347.197 982.942 347.541 981.9 348.062 977.75 z"/>
<path transform="translate(0,0)" fill="rgb(0,0,0)" d="M 750.288 1150.33 C 759.365 1150.19 776.794 1148.77 783.973 1154.11 C 796.016 1163.06 793.391 1182.88 785.763 1194.22 C 776.096 1202.31 762.947 1200.1 750.183 1199.89 L 750.288 1150.33 z"/>
<path transform="translate(0,0)" fill="rgb(113,249,250)" d="M 760.943 1159.76 C 764.494 1159.69 770.338 1159.21 773.491 1160.64 C 784.75 1165.72 781.832 1178.64 777.492 1187.36 C 772.011 1191.28 767.756 1190.48 760.959 1190.54 L 760.943 1159.76 z"/>
<path transform="translate(0,0)" fill="rgb(0,0,0)" d="M 653.11 1150.31 C 681.753 1149.84 704.192 1150.42 689.193 1175.17 C 687.548 1177.89 694.778 1190.82 693.309 1199.29 C 689.438 1200.32 686.152 1199.84 682.126 1199.63 C 679.521 1182.71 684.509 1180.42 663.714 1180.78 C 663.56 1188.09 665.896 1193.9 661.906 1198.89 C 658.361 1200.26 658.166 1199.99 654.479 1199.63 C 651.547 1196.03 653.016 1157.61 653.11 1150.31 z"/>
<path transform="translate(0,0)" fill="rgb(113,249,250)" d="M 663.709 1159.8 C 670.893 1159.58 676.236 1158.25 681.341 1162.68 C 682.656 1166.29 682.217 1167.1 681.471 1170.83 C 675.717 1172.3 669.779 1171.95 663.812 1171.93 L 663.709 1159.8 z"/>
<path transform="translate(0,0)" fill="rgb(0,0,0)" d="M 715.626 1150.26 L 727.7 1150.29 L 745.024 1199.84 C 741.442 1199.95 738.976 1199.93 735.4 1199.74 C 731.439 1196.89 732.306 1193.91 728.954 1189.86 L 712.714 1189.87 C 710.69 1197.24 709.012 1202.96 699.174 1199.11 C 698.477 1194.06 712.885 1157.62 715.626 1150.26 z"/>
<path transform="translate(0,0)" fill="rgb(113,249,250)" d="M 721.269 1164.67 C 723.494 1169.05 726.372 1175.39 725.42 1180.19 L 722.33 1181.9 C 719.611 1181.34 719.29 1181.57 717.24 1179.82 C 716.377 1175.28 719.47 1169.32 721.269 1164.67 z"/>
<path transform="translate(0,0)" fill="rgb(239,144,212)" d="M 1527.92 584.684 C 1532.66 585.327 1534.68 585.203 1539.53 585.051 L 1543.38 585.194 C 1589.22 584.779 1635.43 585.636 1681.17 584.916 L 1681.16 595.883 C 1681.96 623.511 1681.05 651.631 1681.35 679.278 C 1681.48 690.857 1680.78 706.639 1681.73 717.86 C 1672.64 727.26 1628.29 715.197 1619.78 724.011 C 1621.27 732.672 1626.12 741.7 1629.08 750.066 C 1647.79 802.857 1664.11 860.42 1667.67 916.571 C 1677.6 916.921 1749.34 916.105 1753.01 917.815 C 1723.85 918.747 1684.39 918.113 1655.34 917.275 C 1634.78 917.36 1612.54 916.959 1592.14 917.459 C 1592.05 925.857 1592.48 970.692 1591.48 976.676 L 1590.38 977.604 C 1570.29 978.577 1543.77 977.88 1523.19 977.882 L 1398.26 977.885 L 1019.9 977.815 C 1026.66 972.879 1040.26 965.559 1048.18 960.988 L 1100.31 930.941 L 1269.17 833.501 L 1404.18 755.5 C 1414.21 749.71 1424.39 744.039 1434.41 738.204 C 1442.95 733.235 1457.82 723.746 1466.67 720.228 L 1467.53 718.647 C 1463.14 716.677 1463.95 714.929 1463.77 710.765 C 1464.5 690.136 1463.93 666.82 1463.96 646.018 C 1463.99 627.412 1464.51 605.05 1463.61 586.674 C 1466.71 584.049 1518.5 585.134 1527.92 584.684 z"/>
<path transform="translate(0,0)" fill="rgb(85,86,91)" d="M 1527.92 584.684 C 1532.66 585.327 1534.68 585.203 1539.53 585.051 L 1543.38 585.194 C 1589.22 584.779 1635.43 585.636 1681.17 584.916 L 1681.16 595.883 C 1681.96 623.511 1681.05 651.631 1681.35 679.278 C 1681.48 690.857 1680.78 706.639 1681.73 717.86 C 1665.51 715.646 1644.34 717.962 1627.72 717.581 C 1621.63 717.442 1614.23 719.437 1607.91 719.151 C 1573.91 717.32 1539.73 718.045 1505.67 717.938 C 1495.96 717.908 1476.53 717.035 1467.53 718.647 C 1463.14 716.677 1463.95 714.929 1463.77 710.765 C 1464.5 690.136 1463.93 666.82 1463.96 646.018 C 1463.99 627.412 1464.51 605.05 1463.61 586.674 C 1466.71 584.049 1518.5 585.134 1527.92 584.684 z"/>
<path transform="translate(0,0)" fill="rgb(255,255,255)" d="M 1468.6 588.841 C 1536.08 590.338 1609.06 588.865 1677.05 588.961 L 1677.14 713.577 L 1467.98 713.537 L 1468.04 589.183 L 1468.6 588.841 z"/>
<path transform="translate(0,0)" fill="rgb(59,134,57)" d="M 1506.86 635.246 C 1555.95 631.317 1527.79 667.497 1539.66 685.027 L 1538.56 686.105 C 1533.89 686.52 1529.69 687.185 1525.08 686.42 C 1524.29 684.803 1524.1 684.462 1523.1 682.844 C 1510.47 684.233 1514.39 693.684 1496.61 684.412 C 1475.04 659.611 1518.85 656.502 1522.78 649.956 C 1517.71 639.806 1503.92 655.706 1494.92 652.627 C 1492.06 643.721 1499.83 638.353 1506.86 635.246 z"/>
<path transform="translate(0,0)" fill="rgb(255,255,255)" d="M 1518.5 664.165 C 1520.48 663.834 1520.23 663.938 1522.27 664.067 L 1523.37 665.988 C 1522.91 673.42 1518.12 676.38 1511.7 678.231 C 1507.49 676.094 1505.7 675.293 1506.18 670.444 C 1509.88 665.323 1512.41 665.308 1518.5 664.165 z"/>
<path transform="translate(0,0)" fill="rgb(59,134,57)" d="M 1588.12 618.206 L 1603.97 618.302 L 1598.96 632.765 L 1580.76 686.47 L 1566.52 686.471 C 1559.78 666.674 1549.09 637.851 1543.84 618.308 L 1559.46 618.231 L 1573.89 667.96 C 1578.79 651.418 1583.53 634.833 1588.12 618.206 z"/>
<path transform="translate(0,0)" fill="rgb(59,134,57)" d="M 1611.2 618.205 L 1626.07 618.225 L 1626.03 673.655 L 1659.56 673.749 L 1659.45 686.436 L 1611.18 686.453 L 1611.2 618.205 z"/>
<path transform="translate(0,0)" fill="rgb(66,64,70)" d="M 1527.92 584.684 C 1532.66 585.327 1534.68 585.203 1539.53 585.051 L 1543.38 585.194 C 1557.31 589.304 1670.92 583.567 1673.66 587.093 L 1675.79 587.119 C 1650.69 588.533 1476.12 585.637 1468.6 588.841 L 1468.04 589.183 L 1463.61 586.674 C 1466.71 584.049 1518.5 585.134 1527.92 584.684 z"/>
<path transform="translate(0,0)" fill="rgb(168,168,167)" d="M 1467.53 718.647 C 1476.53 717.035 1495.96 717.908 1505.67 717.938 C 1539.73 718.045 1573.91 717.32 1607.91 719.151 C 1614.23 719.437 1621.63 717.442 1627.72 717.581 C 1644.34 717.962 1665.51 715.646 1681.73 717.86 C 1672.64 727.26 1628.29 715.197 1619.78 724.011 C 1621.27 732.672 1626.12 741.7 1629.08 750.066 C 1647.79 802.857 1664.11 860.42 1667.67 916.571 C 1677.6 916.921 1749.34 916.105 1753.01 917.815 C 1723.85 918.747 1684.39 918.113 1655.34 917.275 C 1655.68 909.083 1653.79 897.157 1652.63 888.753 C 1645.66 840.894 1633.54 793.928 1616.48 748.673 C 1603.62 715.133 1603.49 720.893 1568.11 721.007 L 1505.11 721.202 C 1493.55 721.233 1477.82 722.017 1466.67 720.228 L 1467.53 718.647 z"/>
<path transform="translate(0,0)" fill="rgb(239,144,212)" d="M 1000.79 997.081 C 1002.27 993.487 1003.21 990.54 1006.09 988.494 C 1009 989.839 1008.31 990.14 1010.11 993.979 C 1057.47 1078.86 1103.7 1167.47 1150.02 1253.19 L 1239.93 1420.04 C 1255.89 1449.66 1273.04 1480.36 1288.42 1510.18 C 1282.73 1510.15 1260 1509.69 1255.64 1510.65 L 1254.75 1511.87 L 1254.83 1594.51 C 1254.91 1604.49 1255.95 1634.67 1254.52 1642.93 C 1252.66 1633.27 1256.56 1611.18 1250.59 1605.39 C 1243.77 1604.45 1160.88 1635.95 1145.74 1635.05 C 1143.15 1634.89 1120.29 1640.46 1117.89 1641.9 L 1117.89 1624.47 C 1117.91 1611.65 1117.85 1598.83 1117.72 1586.02 L 1009.99 1586.04 L 1002.14 1586.08 L 1000.98 1585.68 C 1000.35 1536.34 1000.94 1485.46 1000.95 1435.99 L 1000.79 997.081 z"/>
<path transform="translate(0,0)" fill="rgb(185,53,30)" d="M 1000.79 997.081 C 1002.27 993.487 1003.21 990.54 1006.09 988.494 C 1009 989.839 1008.31 990.14 1010.11 993.979 L 1009.99 1586.04 L 1002.14 1586.08 L 1000.98 1585.68 C 1000.35 1536.34 1000.94 1485.46 1000.95 1435.99 L 1000.79 997.081 z"/>
<path transform="translate(0,0)" fill="rgb(168,168,167)" d="M 1254.75 1511.87 L 1254.83 1594.51 C 1254.91 1604.49 1255.95 1634.67 1254.52 1642.93 C 1252.66 1633.27 1256.56 1611.18 1250.59 1605.39 C 1243.77 1604.45 1160.88 1635.95 1145.74 1635.05 C 1143.15 1634.89 1120.29 1640.46 1117.89 1641.9 L 1117.89 1624.47 C 1118.93 1625.31 1120.66 1627.13 1121.87 1626.96 C 1164.16 1620.6 1210.6 1607.61 1249.46 1589.78 C 1257.11 1586.27 1252.29 1524.26 1254.75 1511.87 z"/>
<path transform="translate(0,0)" fill="rgb(113,249,250)" d="M 1000.79 997.081 L 1000.95 1435.99 C 1000.94 1485.46 1000.35 1536.34 1000.98 1585.68 C 985.937 1586.64 964.665 1586.11 949.272 1586.02 C 934.924 1585.93 915.393 1586.56 901.383 1585.84 C 900.447 1598.59 900.879 1615.35 900.885 1628.43 C 900.933 1634.61 900.92 1640.8 901.189 1646.96 C 898.512 1638.7 893.549 1640.04 885.902 1639.69 C 863.315 1635.02 840.934 1630.67 818.821 1623.91 C 812.636 1622.02 804.807 1619.29 798.55 1618.35 C 791.382 1615.02 776.254 1609.3 768.881 1608.05 L 769 1593.26 C 767.627 1568.18 768.623 1535.56 768.742 1510.15 C 754.399 1510.55 739.161 1510.25 724.745 1510.19 C 736.558 1485.08 756.678 1450.24 770.259 1425 L 858.984 1260.08 L 952.319 1086.63 C 967.254 1058.87 984.835 1023.56 1000.79 997.081 z"/>
<path transform="translate(0,0)" fill="rgb(168,168,167)" d="M 769 1593.26 C 778.26 1598.09 788.264 1599.92 797.771 1603.63 C 832.049 1617.01 865.287 1621.68 900.885 1628.43 C 900.933 1634.61 900.92 1640.8 901.189 1646.96 C 898.512 1638.7 893.549 1640.04 885.902 1639.69 C 863.315 1635.02 840.934 1630.67 818.821 1623.91 C 812.636 1622.02 804.807 1619.29 798.55 1618.35 C 791.382 1615.02 776.254 1609.3 768.881 1608.05 L 769 1593.26 z"/>
<path transform="translate(0,0)" fill="rgb(85,86,91)" d="M 545.795 710.931 C 562.556 719.725 580.707 730.773 597.316 740.397 L 675.343 785.386 L 911.978 921.926 C 935.001 935.259 974.854 959.042 999.916 972.251 C 1003.26 972.084 1006.06 971.944 1008.3 971.832 C 1004.85 975.106 1003.59 975.389 1003.14 979.59 C 1008.39 982.949 1008.7 980.232 1013.37 979.708 L 1016.97 986.922 L 1299.18 1510.09 C 1307.12 1510.3 1320.57 1510.25 1328.06 1511.06 C 1342.7 1510.66 1360.57 1510.61 1375.38 1511.03 C 1378.81 1510.47 1390.63 1510.36 1394.7 1510.23 C 1399.93 1510.09 1410.85 1508.96 1414.41 1511.71 C 1415.47 1507.85 1457.19 1472.61 1461.99 1470.38 C 1455.12 1482.54 1441.79 1488.71 1432.21 1498.44 C 1425.99 1504.75 1417.57 1508.03 1418 1517.89 C 1417.8 1528.92 1417.92 1539.47 1417.98 1550.25 L 1418.23 1611.18 C 1418.25 1620.1 1418.85 1635.06 1416.97 1643.36 C 1414.16 1655.78 1383.15 1646.61 1375.19 1651 C 1388.41 1676.62 1402.89 1702.08 1416.33 1727.76 C 1420.73 1725.26 1424.57 1723.32 1429.08 1721.12 C 1429.56 1735.17 1429.97 1749.22 1430.3 1763.27 C 1419.58 1756.47 1406.18 1746.45 1395.54 1738.98 L 1408.28 1732.17 L 1377.72 1675.39 C 1372.43 1665.58 1365.66 1652.06 1359.38 1643.3 C 1326.35 1643.34 1287.06 1644.39 1254.52 1642.93 C 1255.95 1634.67 1254.91 1604.49 1254.83 1594.51 L 1254.75 1511.87 L 1255.64 1510.65 C 1260 1509.69 1282.73 1510.15 1288.42 1510.18 C 1273.04 1480.36 1255.89 1449.66 1239.93 1420.04 L 1150.02 1253.19 C 1103.7 1167.47 1057.47 1078.86 1010.11 993.979 C 1008.31 990.14 1009 989.839 1006.09 988.494 C 1003.21 990.54 1002.27 993.487 1000.79 997.081 C 984.835 1023.56 967.254 1058.87 952.319 1086.63 L 858.984 1260.08 L 770.259 1425 C 756.678 1450.24 736.558 1485.08 724.745 1510.19 C 739.161 1510.25 754.399 1510.55 768.742 1510.15 C 768.623 1535.56 767.627 1568.18 769 1593.26 L 768.881 1608.05 C 776.254 1609.3 791.382 1615.02 798.55 1618.35 C 789.965 1619.22 779.569 1612.62 773.721 1616.4 C 770.572 1626.08 777.527 1643.11 765.644 1648.72 C 754.737 1653.86 670.051 1649.3 648.942 1650.64 L 652.828 1644.09 C 651.655 1642.04 652.261 1642.77 650.038 1641.5 C 646.045 1641.2 645.569 1641.62 641.697 1643.11 C 631.53 1643.89 618.052 1643.39 607.856 1643.07 L 608.014 1530.24 C 608.763 1523.01 606.712 1517.98 608.564 1512.16 C 611.258 1509.32 610.636 1510.26 615.964 1509.99 L 627.243 1510.47 C 651.007 1509.06 688.21 1510.47 713.914 1510.18 L 911.011 1143.81 L 967.778 1038.23 C 972.672 1029.17 992.008 994.865 994.868 986.911 C 996.9 984.326 996.342 985.731 996.785 982.621 C 994.972 979.693 992.395 979.176 989.089 977.826 C 982.024 972.55 959.873 960.445 951.433 955.575 L 874.513 911.209 L 654.89 784.396 L 584.162 743.645 C 571.818 736.542 556.721 728.362 544.865 720.758 C 547.215 716.755 546.629 715.497 545.795 710.931 z"/>
<path transform="translate(0,0)" fill="rgb(255,255,255)" d="M 615.964 1509.99 L 627.243 1510.47 C 633.091 1513.54 697.961 1508.88 712.401 1512.36 C 701.296 1512.75 613.945 1512.26 611.969 1513.55 C 620.76 1514.71 652.177 1514.05 662.72 1514.03 L 764.957 1514.02 L 765.038 1597.24 C 765.045 1606.36 765.619 1631.51 764.413 1639.08 C 766.345 1641.17 765.921 1640.25 766.781 1642.77 L 767.989 1642.28 C 769.002 1640.1 768.733 1612.57 768.881 1608.05 C 776.254 1609.3 791.382 1615.02 798.55 1618.35 C 789.965 1619.22 779.569 1612.62 773.721 1616.4 C 770.572 1626.08 777.527 1643.11 765.644 1648.72 C 754.737 1653.86 670.051 1649.3 648.942 1650.64 L 652.828 1644.09 C 651.655 1642.04 652.261 1642.77 650.038 1641.5 C 646.045 1641.2 645.569 1641.62 641.697 1643.11 C 631.53 1643.89 618.052 1643.39 607.856 1643.07 L 608.014 1530.24 C 608.763 1523.01 606.712 1517.98 608.564 1512.16 C 611.258 1509.32 610.636 1510.26 615.964 1509.99 z"/>
<path transform="translate(0,0)" fill="url(#Gradient2)" d="M 615.964 1509.99 L 627.243 1510.47 C 633.091 1513.54 697.961 1508.88 712.401 1512.36 C 701.296 1512.75 613.945 1512.26 611.969 1513.55 L 612.059 1638.75 C 660.182 1638.76 717.009 1637.3 764.413 1639.08 C 766.345 1641.17 765.921 1640.25 766.781 1642.77 L 767.989 1642.28 C 769.002 1640.1 768.733 1612.57 768.881 1608.05 C 776.254 1609.3 791.382 1615.02 798.55 1618.35 C 789.965 1619.22 779.569 1612.62 773.721 1616.4 C 770.572 1626.08 777.527 1643.11 765.644 1648.72 C 754.737 1653.86 670.051 1649.3 648.942 1650.64 L 652.828 1644.09 C 651.655 1642.04 652.261 1642.77 650.038 1641.5 C 646.045 1641.2 645.569 1641.62 641.697 1643.11 C 631.53 1643.89 618.052 1643.39 607.856 1643.07 L 608.014 1530.24 C 608.763 1523.01 606.712 1517.98 608.564 1512.16 C 611.258 1509.32 610.636 1510.26 615.964 1509.99 z"/>
<path transform="translate(0,0)" fill="rgb(255,255,255)" d="M 768.881 1608.05 C 776.254 1609.3 791.382 1615.02 798.55 1618.35 C 789.965 1619.22 779.569 1612.62 773.721 1616.4 C 770.572 1626.08 777.527 1643.11 765.644 1648.72 C 754.737 1653.86 670.051 1649.3 648.942 1650.64 L 652.828 1644.09 C 656.014 1642.4 752.972 1643.57 766.781 1642.77 L 767.989 1642.28 C 769.002 1640.1 768.733 1612.57 768.881 1608.05 z"/>
<path transform="translate(0,0)" fill="rgb(102,165,241)" d="M 707.022 1542.05 L 721.931 1542.08 L 721.91 1610.42 L 707.024 1610.33 L 707.022 1542.05 z"/>
<path transform="translate(0,0)" fill="rgb(102,165,241)" d="M 655.013 1542.05 L 669.83 1542.05 L 669.846 1610.41 L 654.984 1610.39 L 655.013 1542.05 z"/>
<path transform="translate(0,0)" fill="rgb(102,165,241)" d="M 681.058 1542.07 L 695.907 1542.1 L 695.883 1610.37 L 681.059 1610.4 L 681.058 1542.07 z"/>
<path transform="translate(0,0)" fill="rgb(233,232,233)" d="M 1414.41 1511.71 C 1415.47 1507.85 1457.19 1472.61 1461.99 1470.38 C 1455.12 1482.54 1441.79 1488.71 1432.21 1498.44 C 1425.99 1504.75 1417.57 1508.03 1418 1517.89 C 1417.8 1528.92 1417.92 1539.47 1417.98 1550.25 L 1418.23 1611.18 C 1418.25 1620.1 1418.85 1635.06 1416.97 1643.36 C 1414.16 1655.78 1383.15 1646.61 1375.19 1651 C 1374.71 1650.29 1371.75 1644.26 1371.19 1643.17 C 1385.53 1643.37 1399.86 1643.24 1414.2 1642.8 C 1413.99 1600.95 1413.03 1553.12 1414.41 1511.71 z"/>
<path transform="translate(0,0)" fill="rgb(0,0,0)" d="M 1328.06 1511.06 C 1342.7 1510.66 1360.57 1510.61 1375.38 1511.03 C 1370.19 1514.23 1336.83 1513.08 1329.01 1512.6 L 1328.06 1511.06 z"/>
<path transform="translate(0,0)" fill="rgb(255,255,255)" d="M 1258.81 1514.08 L 1410.28 1514.1 L 1410.28 1638.82 L 1258.87 1638.81 L 1258.81 1514.08 z"/>
<path transform="translate(0,0)" fill="rgb(102,165,241)" d="M 1314.53 1542.07 L 1329.21 1542.07 L 1329.23 1610.39 L 1314.48 1610.4 L 1314.53 1542.07 z"/>
<path transform="translate(0,0)" fill="rgb(102,165,241)" d="M 1340.78 1542.07 L 1355.19 1542.06 L 1355.2 1610.36 L 1340.78 1610.33 L 1340.78 1542.07 z"/>
<path transform="translate(0,0)" fill="rgb(85,86,91)" d="M 1655.34 917.275 C 1684.39 918.113 1723.85 918.747 1753.01 917.815 L 1753.08 977.824 L 1831.61 977.878 L 1831.68 963.347 C 1844.41 969.576 1857.1 975.88 1869.76 982.258 C 1857.65 988.389 1843.86 995.75 1831.6 1001.17 L 1831.64 986.751 C 1806.37 987.894 1778.56 986.763 1753.02 987.14 C 1753.03 1005.94 1752.29 1031.74 1753.15 1050 C 1732.51 1048.26 1701.39 1050.42 1679.92 1049.86 C 1674.74 1049.73 1666.37 1051.42 1660.84 1051.36 C 1653.38 1051.28 1645.96 1050.62 1638.47 1050.44 C 1622.89 1050.19 1607.32 1050.13 1591.75 1050.26 C 1592.59 1029.75 1591.42 1007.98 1592.18 986.993 C 1592.66 983.165 1593.48 980.156 1590.38 977.604 L 1591.48 976.676 C 1592.48 970.692 1592.05 925.857 1592.14 917.459 C 1612.54 916.959 1634.78 917.36 1655.34 917.275 z"/>
<path transform="translate(0,0)" fill="rgb(0,0,0)" d="M 1831.68 963.347 C 1844.41 969.576 1857.1 975.88 1869.76 982.258 C 1857.65 988.389 1843.86 995.75 1831.6 1001.17 L 1831.64 986.751 C 1811.63 983.96 1773.08 988.519 1753.91 985.837 C 1752.37 983.683 1752.97 980.695 1753.08 977.824 L 1831.61 977.878 L 1831.68 963.347 z"/>
<path transform="translate(0,0)" fill="rgb(255,255,255)" d="M 1596.21 921.214 L 1749.03 921.201 L 1749.03 1045.97 L 1596.16 1045.93 L 1596.21 921.214 z"/>
<path transform="translate(0,0)" fill="rgb(102,165,241)" d="M 1664.9 949.29 L 1679.81 949.162 L 1679.67 1017.62 L 1664.88 1017.64 L 1664.9 949.29 z"/>
<path transform="translate(0,0)" fill="rgb(168,168,167)" d="M 1591.75 1050.26 C 1607.32 1050.13 1622.89 1050.19 1638.47 1050.44 C 1645.96 1050.62 1653.38 1051.28 1660.84 1051.36 C 1666.37 1051.42 1674.74 1049.73 1679.92 1049.86 C 1701.39 1050.42 1732.51 1048.26 1753.15 1050 C 1751.35 1051.34 1749.29 1052.87 1746.99 1053.09 C 1721.14 1055.5 1694.31 1052.4 1668.46 1054.28 C 1664.16 1077.88 1661.9 1100.84 1656.84 1124.62 C 1630.49 1248.32 1568.08 1361.55 1479.95 1451.93 C 1474.04 1458 1467.29 1463.56 1461.99 1470.38 C 1457.19 1472.61 1415.47 1507.85 1414.41 1511.71 C 1410.85 1508.96 1399.93 1510.09 1394.7 1510.23 C 1414.8 1494.57 1437.89 1475.01 1456.14 1457.56 C 1549.52 1369.29 1614.62 1255.3 1643.22 1130.03 C 1647.53 1111.23 1655.17 1073.78 1655.59 1054.67 C 1643.34 1052.92 1597.55 1056.09 1591.75 1050.26 z"/>
<path transform="translate(0,0)" fill="rgb(0,0,0)" d="M 1019.9 977.815 L 1398.26 977.885 L 1523.19 977.882 C 1543.77 977.88 1570.29 978.577 1590.38 977.604 C 1593.48 980.156 1592.66 983.165 1592.18 986.993 C 1527.87 985.998 1461.09 986.897 1396.62 986.893 L 1016.97 986.922 L 1013.37 979.708 C 1015.73 979.316 1017.63 978.562 1019.9 977.815 z"/>
<path transform="translate(0,0)" fill="rgb(0,0,0)" d="M 1194.09 1189.16 C 1195.13 1189.08 1196.18 1189.01 1197.22 1188.96 C 1218.27 1187.86 1227.39 1202.41 1223.69 1222.49 C 1223.04 1226 1220.21 1228.17 1220.22 1232.37 C 1222.24 1234.34 1222.71 1234.77 1224.33 1237.04 C 1223.19 1239.69 1221.78 1240.58 1219.64 1242.73 C 1216.87 1242.23 1215.65 1240.28 1213.15 1238.01 C 1179.79 1254.4 1160.53 1203.67 1194.09 1189.16 z"/>
<path transform="translate(0,0)" fill="rgb(239,144,212)" d="M 1197.84 1198 C 1214.29 1198.23 1218.51 1219.6 1210.23 1223.02 L 1206.86 1220.54 C 1204.12 1221.35 1203.47 1222.78 1201.73 1225.1 L 1202.57 1226.4 C 1202.98 1227.3 1203.42 1228.89 1203.74 1229.88 C 1193.65 1235.77 1174.92 1211.3 1197.84 1198 z"/>
<path transform="translate(0,0)" fill="rgb(0,0,0)" d="M 1255.31 1108.13 C 1279.94 1106.84 1290.46 1123.45 1282.15 1147.7 C 1279.99 1154 1272.89 1157.96 1266.64 1159.85 C 1261.4 1160.03 1256.75 1160.56 1251.65 1158.41 C 1237.42 1152.4 1233.62 1133.09 1240.05 1120.14 C 1243.47 1113.27 1248.07 1110.43 1255.31 1108.13 z"/>
<path transform="translate(0,0)" fill="rgb(239,144,212)" d="M 1260.27 1117 C 1260.99 1117.13 1261.71 1117.27 1262.42 1117.43 C 1277.38 1120.77 1277.8 1142.71 1263.8 1150.92 C 1255.96 1150.25 1251.68 1148.1 1249.09 1140.21 C 1247.37 1135.11 1247.78 1129.52 1250.25 1124.73 C 1252.82 1119.71 1255.18 1118.65 1260.27 1117 z"/>
<path transform="translate(0,0)" fill="rgb(0,0,0)" d="M 1372.68 1109.24 L 1388.01 1109.33 C 1388.06 1117.1 1389.55 1153.84 1386.44 1158.55 C 1383.22 1158.99 1383.41 1159.1 1380.33 1158.18 C 1376.01 1153.67 1377.82 1140.83 1377.93 1133.75 C 1377.92 1131.27 1377.54 1127.5 1377.36 1124.92 C 1374.59 1136.07 1372.06 1147.61 1369.46 1158.82 C 1365.17 1158.97 1363.41 1159.28 1359.32 1158.23 C 1357.25 1153.57 1352.06 1129.65 1350.44 1122.87 C 1350.16 1132.76 1351.43 1148.62 1350.07 1157.67 C 1347.63 1159.12 1345.2 1158.51 1341.83 1158.51 C 1338.64 1155.21 1340.15 1116.6 1340.23 1109.26 L 1355.85 1109.29 L 1364.15 1145.1 C 1367.21 1135.02 1370.25 1119.88 1372.68 1109.24 z"/>
<path transform="translate(0,0)" fill="rgb(0,0,0)" d="M 1292.05 1109.27 C 1298.69 1109.16 1305.32 1109.1 1311.96 1109.1 C 1318.43 1109.12 1324.77 1109.48 1329.38 1114.34 C 1338 1123.46 1327.99 1128.72 1327.54 1136.36 C 1334.89 1145.97 1328.87 1143.98 1331.89 1154.39 C 1332.41 1156.18 1333 1155.62 1332.57 1158.35 C 1329.03 1159.37 1324.63 1158.75 1320.85 1158.52 C 1320.1 1151.71 1321.5 1145.85 1316.95 1141.13 C 1312.69 1139.08 1307.62 1139.62 1302.71 1139.6 C 1302.88 1144.65 1303.99 1154.69 1301.21 1158.38 C 1298.32 1158.94 1296.57 1158.58 1293.67 1158.28 C 1290.51 1155.04 1291.99 1116.52 1292.05 1109.27 z"/>
<path transform="translate(0,0)" fill="rgb(239,144,212)" d="M 1302.7 1118.65 C 1304.44 1118.62 1306.17 1118.59 1307.91 1118.57 C 1312.87 1118.53 1316.58 1117.87 1320.18 1121.42 C 1321.74 1124.77 1321.14 1125.94 1320.43 1129.59 C 1314.33 1131.31 1309.15 1130.95 1302.83 1130.93 L 1302.7 1118.65 z"/>
<path transform="translate(0,0)" fill="rgb(0,0,0)" d="M 1231.72 1190.09 C 1243.31 1189.89 1273.77 1186.44 1272.76 1204.49 C 1272.29 1212.78 1265.77 1212.47 1268.01 1218.74 C 1270.16 1224.77 1273.32 1232.78 1272.03 1238.91 C 1268.84 1240.11 1264.26 1239.69 1260.72 1239.64 C 1259.77 1233.12 1261.25 1226.53 1256.69 1222.02 C 1252.2 1219.91 1247.35 1220.54 1242.23 1220.61 C 1242.26 1226.26 1243.68 1233.9 1241.18 1238.3 C 1237.3 1240.51 1237.04 1239.66 1231.76 1239.58 L 1231.72 1190.09 z"/>
<path transform="translate(0,0)" fill="rgb(239,144,212)" d="M 1244.79 1199.44 C 1250.95 1199.41 1259.13 1198.41 1261.42 1205.34 C 1260.61 1208.68 1260.07 1208.83 1257.76 1211.34 C 1253.12 1211.71 1247.08 1211.63 1242.33 1211.7 C 1242.08 1207.25 1241.72 1204.93 1242.66 1200.56 L 1244.79 1199.44 z"/>
<path transform="translate(0,0)" fill="rgb(0,0,0)" d="M 1220.15 1141.01 C 1220.41 1131.29 1218.01 1118.52 1221.76 1111 C 1225.17 1108.77 1223.81 1109.4 1228.46 1109.47 C 1232.18 1113.42 1230.6 1150.66 1230.53 1158.85 C 1228.93 1158.93 1223.12 1159.26 1222.18 1158.69 C 1214.15 1153.8 1205.97 1134.78 1200.65 1126.22 C 1200.46 1134.77 1203.1 1152.25 1197.97 1157.95 C 1194.77 1159.3 1195 1159.2 1191.56 1158.58 C 1188.82 1154.06 1190.13 1117.18 1190.23 1109.27 L 1201.86 1109.38 C 1206.9 1118.38 1214.57 1132.88 1220.15 1141.01 z"/>
<path transform="translate(0,0)" fill="rgb(0,0,0)" d="M 1410.62 1109.26 L 1422.87 1109.23 C 1428.33 1125.56 1434.6 1142.44 1440.26 1158.8 C 1436.62 1158.91 1434.18 1158.91 1430.55 1158.7 C 1426.81 1155.83 1426.92 1153.74 1424.77 1148.86 L 1408.04 1148.81 C 1406.94 1152.39 1406.26 1155.78 1403.82 1158.59 C 1399.55 1159.08 1399.37 1159.04 1395.15 1157.97 L 1394.33 1156.41 C 1395.58 1148.97 1407.54 1117.87 1410.62 1109.26 z"/>
<path transform="translate(0,0)" fill="rgb(239,144,212)" d="M 1416.35 1123.72 C 1418.61 1126.87 1420.68 1134.51 1421.32 1138.34 L 1419.73 1139.83 C 1416.25 1139.57 1414.71 1140.21 1412.6 1137.66 C 1412 1133.25 1414.65 1128.13 1416.35 1123.72 z"/>
<path transform="translate(0,0)" fill="rgb(0,0,0)" d="M 1355.51 1190.08 L 1367.63 1190.1 L 1385.21 1239.61 C 1379.86 1239.87 1376.6 1240.81 1372.63 1237.51 C 1371.32 1233.2 1371.54 1231.79 1368.14 1229.68 L 1352.72 1229.65 C 1351.73 1233.12 1351.36 1235.44 1349.22 1238.38 C 1345.82 1240.52 1342.16 1239.8 1337.92 1239.66 C 1343.21 1223.48 1349.63 1205.99 1355.51 1190.08 z"/>
<path transform="translate(0,0)" fill="rgb(239,144,212)" d="M 1361.11 1204.62 C 1362.93 1207.9 1366.22 1215.17 1365.52 1218.85 C 1365.14 1220.86 1364.8 1220.31 1362.37 1221.91 C 1359.86 1221.17 1359.36 1221.24 1357.32 1219.7 C 1356.21 1215.14 1359.29 1209.28 1361.11 1204.62 z"/>
<path transform="translate(0,0)" fill="rgb(0,0,0)" d="M 1465.21 1189.09 C 1473.54 1188.53 1489.11 1191.04 1491.55 1200.45 C 1490.95 1203.73 1490.91 1203.49 1488.6 1205.96 C 1481.71 1207.51 1480.53 1201.71 1473.05 1198.13 C 1468.62 1198.24 1462.71 1198.73 1463 1204.35 C 1469.56 1212.8 1487.94 1209.07 1491.46 1218.63 C 1495.73 1230.21 1487.73 1237.69 1478.18 1240.6 C 1469.98 1241.26 1448.56 1237.4 1450.84 1226.7 C 1452.88 1224.05 1452.63 1224.07 1455.79 1223.11 C 1461.45 1223.8 1474.79 1239.94 1482.14 1226.9 L 1481.32 1224.98 C 1472.75 1218.76 1456.78 1218.79 1452.95 1208.43 C 1449.32 1198.64 1457.34 1192.05 1465.21 1189.09 z"/>
<path transform="translate(0,0)" fill="rgb(0,0,0)" d="M 1291.04 1189.12 C 1300.59 1188.72 1308.7 1189.88 1316.03 1196.79 C 1319.36 1199.92 1316.95 1204.77 1313.09 1206.54 C 1305.64 1205.47 1296.52 1190.23 1289.11 1202.84 L 1289.87 1204.98 C 1297.96 1211.02 1314.89 1210.25 1318.14 1221.43 C 1321.23 1232.08 1312.66 1237.99 1304.07 1240.63 C 1294.77 1241.38 1275.63 1238.75 1278.55 1225.43 C 1286.08 1219.95 1290.03 1227.41 1294.84 1231.5 C 1297.82 1234.03 1306.38 1230.35 1308.28 1226.83 C 1303.77 1217.97 1271.38 1219.1 1279.51 1198.8 C 1281.81 1193.05 1285.61 1191.42 1291.04 1189.12 z"/>
<path transform="translate(0,0)" fill="rgb(0,0,0)" d="M 1416.72 1190.07 L 1429.58 1190.16 C 1425 1197.9 1419.35 1206.32 1414.46 1213.98 C 1417.02 1217.95 1429.5 1236.35 1429.34 1239.63 L 1416.88 1239.67 L 1408.12 1223.48 L 1398.85 1239.66 L 1385.8 1239.6 C 1390.7 1231.36 1396.34 1222.68 1401.46 1214.5 C 1396.65 1206.82 1390.99 1198.22 1386.85 1190.27 L 1399.69 1190.1 L 1408.35 1205.34 C 1411 1200.28 1413.95 1195.09 1416.72 1190.07 z"/>
<path transform="translate(0,0)" fill="rgb(0,0,0)" d="M 1445.49 1109.24 C 1449.49 1109.17 1451.05 1109.24 1455.02 1109.73 C 1457.41 1113.18 1456.44 1142.71 1456.4 1149.14 C 1464.78 1149.32 1472.2 1147.17 1479.04 1150.37 C 1481.27 1154.13 1480.49 1153.75 1480.51 1158.85 L 1445.5 1158.84 L 1445.49 1109.24 z"/>
<path transform="translate(0,0)" fill="rgb(0,0,0)" d="M 1434.52 1190.09 C 1437.74 1190.03 1442.76 1189.54 1444.82 1191.51 C 1446.03 1203.34 1445.26 1226.94 1445.2 1239.66 C 1440.84 1239.78 1439.41 1240.01 1435.25 1239.02 C 1433.53 1232.23 1434.43 1199.34 1434.52 1190.09 z"/>
<path transform="translate(0,0)" fill="rgb(255,255,255)" d="M 251.402 545.965 C 265.393 547.103 279.909 547.836 293.961 548.754 L 286.869 561.168 C 296.976 566.933 318.634 580.731 328.315 584.069 C 333.679 585.919 366.501 585.257 373.905 585.25 L 465.362 585.235 L 470.443 584.936 C 474.095 584.956 479.315 585.167 482.801 584.781 C 503.031 585.403 523.787 585.117 544.063 585.066 L 544.091 666.394 C 544.083 673.288 543.004 707.277 545.795 710.931 C 546.629 715.497 547.215 716.755 544.865 720.758 C 534.514 715.784 480.622 718.43 464.33 717.908 C 453.304 718.295 411.286 716.863 404.434 719.639 C 399.118 719.945 388.782 717.566 381.043 717.467 C 362.483 717.229 344.06 717.276 325.507 717.334 C 326.395 677.337 325.758 635.069 325.77 594.893 C 313.729 586.756 295.204 576.784 282.211 569.334 L 275.078 581.553 C 267.154 570.259 259.08 557.542 251.402 545.965 z"/>
<path transform="translate(0,0)" fill="url(#Gradient1)" d="M 251.402 545.965 C 265.393 547.103 279.909 547.836 293.961 548.754 L 286.869 561.168 C 296.976 566.933 318.634 580.731 328.315 584.069 C 333.679 585.919 366.501 585.257 373.905 585.25 L 465.362 585.235 C 470.583 586.887 475.267 586.612 480.691 586.697 L 480.234 587.59 L 401.419 587.772 C 392.034 587.74 358.752 587.008 350.942 588.725 L 329.811 588.941 L 329.756 713.591 L 441.178 713.589 C 451.274 713.592 485.726 712.936 493.573 713.934 C 503.987 717.891 527.229 714.069 539.542 715.323 L 541.589 714.087 C 542.167 711.575 542.478 710.062 542.842 707.459 C 543.056 711.438 543.481 713.178 542.151 716.81 C 539.6 717.975 531.989 716.084 528.284 716.507 C 520.097 717.444 467.133 715.816 464.33 717.908 C 453.304 718.295 411.286 716.863 404.434 719.639 C 399.118 719.945 388.782 717.566 381.043 717.467 C 362.483 717.229 344.06 717.276 325.507 717.334 C 326.395 677.337 325.758 635.069 325.77 594.893 C 313.729 586.756 295.204 576.784 282.211 569.334 L 275.078 581.553 C 267.154 570.259 259.08 557.542 251.402 545.965 z"/>
<path transform="translate(0,0)" fill="rgb(85,86,91)" d="M 482.801 584.781 C 503.031 585.403 523.787 585.117 544.063 585.066 L 544.091 666.394 C 544.083 673.288 543.004 707.277 545.795 710.931 C 546.629 715.497 547.215 716.755 544.865 720.758 C 534.514 715.784 480.622 718.43 464.33 717.908 C 467.133 715.816 520.097 717.444 528.284 716.507 C 531.989 716.084 539.6 717.975 542.151 716.81 C 543.481 713.178 543.056 711.438 542.842 707.459 C 542.478 710.062 542.167 711.575 541.589 714.087 L 539.542 715.323 C 527.229 714.069 503.987 717.891 493.573 713.934 C 506.899 713.073 526.457 713.628 540.251 713.598 L 540.224 588.902 L 350.942 588.725 C 358.752 587.008 392.034 587.74 401.419 587.772 L 480.234 587.59 L 480.691 586.697 C 475.267 586.612 470.583 586.887 465.362 585.235 L 470.443 584.936 C 474.095 584.956 479.315 585.167 482.801 584.781 z"/>
<path transform="translate(0,0)" fill="rgb(59,134,57)" d="M 468.183 618.186 C 482.004 618.239 516.816 613.579 523.336 629.682 C 527.076 638.916 520.248 647.049 516.738 654.567 C 522.337 659.903 522.923 664.397 522.221 671.907 C 521.493 679.683 524.743 681.259 524.939 685.712 C 521.046 687.016 512.353 686.815 508.296 685.712 C 506.421 660.708 509.634 659.653 482.826 659.999 L 482.883 686.463 L 468.184 686.445 L 468.183 618.186 z"/>
<path transform="translate(0,0)" fill="rgb(255,255,255)" d="M 482.791 630.834 C 495.113 630.823 513.872 627.039 507.752 645.923 C 500.358 648.976 491.008 648.15 482.85 648.081 L 482.791 630.834 z"/>
<path transform="translate(0,0)" fill="rgb(59,134,57)" d="M 364.038 635.181 C 412.987 631.994 383.712 663.497 396.516 684.802 L 395.654 685.831 C 390.249 686.614 388.069 687.02 382.473 686.67 C 380.742 684.987 380.857 684.975 379.834 682.82 C 368.063 683.887 372.479 692.812 354.405 685.253 C 351.329 682.254 348.961 678.489 348.292 674.197 C 345.372 655.482 374.329 657.958 379.599 650.138 C 378.667 647.332 379.446 648.579 376.545 646.783 C 368.746 647.449 356.327 654.602 350.673 651.682 C 348.186 644.09 358.027 637.65 364.038 635.181 z"/>
<path transform="translate(0,0)" fill="rgb(255,255,255)" d="M 378.952 663.328 L 379.612 664.283 C 380.2 674.284 374.951 677.355 365.75 677.902 C 357.009 666.325 370.753 665.017 378.952 663.328 z"/>
<path transform="translate(0,0)" fill="rgb(59,134,57)" d="M 444.859 618.135 L 460.477 618.355 L 455.941 631.963 L 437.213 686.524 L 423.057 686.436 C 416.628 664.914 407.443 639.86 400.143 618.3 L 416.265 618.186 C 421.14 634.689 425.756 651.267 430.111 667.914 C 435.256 654.241 440.724 632.684 444.859 618.135 z"/>
<path transform="translate(0,0)" fill="rgb(255,255,255)" d="M 1000.98 1585.68 L 1002.14 1586.08 L 1009.99 1586.04 L 1117.72 1586.02 C 1117.85 1598.83 1117.91 1611.65 1117.89 1624.47 L 1117.89 1641.9 C 1117.59 1667.37 1117.59 1692.83 1117.89 1718.3 C 1085.24 1718.33 1042.09 1719.72 1010.37 1718.3 L 1000.73 1718.23 L 1001.01 1728.49 C 995.405 1717.49 912.146 1731.68 899.024 1720.92 C 895.136 1712.57 897.189 1658.66 896.401 1644.25 C 891.816 1642.67 890.11 1642.05 885.902 1639.69 C 893.549 1640.04 898.512 1638.7 901.189 1646.96 C 900.92 1640.8 900.933 1634.61 900.885 1628.43 C 900.879 1615.35 900.447 1598.59 901.383 1585.84 C 915.393 1586.56 934.924 1585.93 949.272 1586.02 C 964.665 1586.11 985.937 1586.64 1000.98 1585.68 z"/>
<path transform="translate(0,0)" fill="rgb(66,64,70)" d="M 1009.99 1586.04 L 1117.72 1586.02 C 1117.85 1598.83 1117.91 1611.65 1117.89 1624.47 L 1117.89 1641.9 C 1117.59 1667.37 1117.59 1692.83 1117.89 1718.3 C 1085.24 1718.33 1042.09 1719.72 1010.37 1718.3 L 1000.73 1718.23 L 1001.01 1728.49 C 995.405 1717.49 912.146 1731.68 899.024 1720.92 C 895.136 1712.57 897.189 1658.66 896.401 1644.25 C 891.816 1642.67 890.11 1642.05 885.902 1639.69 C 893.549 1640.04 898.512 1638.7 901.189 1646.96 C 900.92 1640.8 900.933 1634.61 900.885 1628.43 C 900.879 1615.35 900.447 1598.59 901.383 1585.84 L 904.756 1588.07 L 904.609 1589.67 C 903.656 1602.65 904.234 1618.74 904.203 1632.03 L 904.193 1714.8 L 1114.11 1714.82 L 1114.02 1589.83 L 1007.25 1589.84 C 1005.88 1588.68 1003.65 1587.18 1002.14 1586.08 L 1009.99 1586.04 z"/>
<path transform="translate(0,0)" fill="rgb(233,232,233)" d="M 885.902 1639.69 C 893.549 1640.04 898.512 1638.7 901.189 1646.96 C 900.673 1670.68 901.426 1694.68 900.826 1718.2 L 1000.73 1718.23 L 1001.01 1728.49 C 995.405 1717.49 912.146 1731.68 899.024 1720.92 C 895.136 1712.57 897.189 1658.66 896.401 1644.25 C 891.816 1642.67 890.11 1642.05 885.902 1639.69 z"/>
<path transform="translate(0,0)" fill="rgb(85,86,91)" d="M 1000.98 1585.68 L 1002.14 1586.08 C 1003.65 1587.18 1005.88 1588.68 1007.25 1589.84 L 938.457 1589.91 C 930.567 1589.91 911.611 1590.39 904.609 1589.67 L 904.756 1588.07 L 901.383 1585.84 C 915.393 1586.56 934.924 1585.93 949.272 1586.02 C 964.665 1586.11 985.937 1586.64 1000.98 1585.68 z"/>
<path transform="translate(0,0)" fill="rgb(59,134,57)" d="M 943.233 1636.15 C 985.429 1632.01 966.905 1659.79 974.008 1684.64 L 974.537 1686.45 C 967.427 1690.36 965.321 1687.53 959.922 1684.76 C 953.329 1681.37 949.49 1694.78 931.975 1685.29 C 929.18 1681.77 925.861 1674.42 926.678 1670.32 C 929.32 1657.07 949.995 1658.25 957.474 1653.11 C 957.965 1649.91 958.236 1651.39 956.56 1648.56 C 950.211 1645.06 945.345 1647.38 941.661 1652.62 C 940.121 1654.81 931.628 1653.89 928.781 1653.74 C 931.276 1642.83 932.546 1639.93 943.233 1636.15 z"/>
<path transform="translate(0,0)" fill="rgb(255,255,255)" d="M 957.32 1664.3 L 958.395 1665.93 C 959.414 1675.23 952.615 1678.07 944.672 1678.73 C 942.918 1676.91 942.801 1676.23 941.676 1673.93 C 942.024 1665.77 950.482 1665.72 957.32 1664.3 z"/>
<path transform="translate(0,0)" fill="rgb(59,134,57)" d="M 1023.66 1619.13 L 1039.31 1619.17 L 1034.48 1633.25 L 1016.01 1687.42 L 1001.89 1687.4 C 995.134 1665.21 985.215 1641.35 979.165 1619.25 L 995.037 1619.1 C 999.852 1635.76 1004.52 1652.47 1009.04 1669.22 C 1014.15 1653.63 1019.03 1635.08 1023.66 1619.13 z"/>
<path transform="translate(0,0)" fill="rgb(59,134,57)" d="M 1046.68 1619.19 L 1095.12 1619.19 L 1095.17 1631.95 L 1061.28 1631.94 L 1061.38 1646.66 C 1068.56 1646.69 1084.72 1644.98 1090.52 1647.84 L 1091.62 1651.59 C 1091.42 1654.27 1091.61 1655.32 1090.3 1657.64 C 1084.73 1660.59 1068.58 1659.14 1061.3 1659.07 L 1061.3 1687.46 L 1046.77 1687.35 L 1046.68 1619.19 z"/>
<path transform="translate(0,0)" fill="rgb(0,0,0)" d="M 1041.02 1881.3 C 1053.41 1880.59 1063.18 1884.23 1066.57 1897.11 C 1071.2 1914.73 1071.69 1942.33 1051.04 1948.95 C 1039.28 1949.39 1029.04 1946.56 1025.64 1933.96 C 1020.74 1915.83 1019.96 1888.37 1041.02 1881.3 z"/>
<path transform="translate(0,0)" fill="rgb(255,255,255)" d="M 1041.79 1887.15 C 1064.58 1885.79 1063.69 1912.32 1060.71 1928.44 C 1059.39 1935.55 1056.29 1939.33 1050.29 1943.05 C 1027.71 1944.48 1028.39 1919.72 1031.09 1903.44 C 1032.36 1895.82 1035.33 1891.24 1041.79 1887.15 z"/>
<path transform="translate(0,0)" fill="rgb(0,0,0)" d="M 1890.7 494.301 C 1901.45 493.471 1911.76 495.142 1915.94 506.245 C 1922.65 524.063 1923.22 553.121 1903.15 561.691 C 1892.27 562.342 1881.6 560.777 1877.56 549.237 C 1871.23 531.182 1870.54 502.934 1890.7 494.301 z"/>
<path transform="translate(0,0)" fill="rgb(255,255,255)" d="M 1892.69 499.998 C 1916.39 499.017 1914.76 527.031 1910.96 543.582 C 1909.58 549.601 1906.34 552.759 1901.23 555.92 C 1878.62 557.333 1879.35 532.802 1881.94 516.432 C 1883.16 508.748 1886.27 504.161 1892.69 499.998 z"/>
<path transform="translate(0,0)" fill="rgb(0,0,0)" d="M 1961.2 947.151 C 1971.86 946.503 1981.68 948.828 1985.54 959.729 C 1991.98 977.87 1992.56 1006.15 1972.22 1014.68 C 1939.13 1017.66 1939.31 980.096 1947.83 957.641 C 1950 951.925 1955.6 948.925 1961.2 947.151 z"/>
<path transform="translate(0,0)" fill="rgb(255,255,255)" d="M 1961.93 953.014 C 1985.12 951.839 1983.88 978.19 1980.86 994.64 C 1979.6 1001.54 1976.21 1005.47 1970.31 1008.96 C 1948.03 1009.92 1948.87 986.281 1951.22 969.944 C 1952.34 962.186 1955.37 957.237 1961.93 953.014 z"/>
<path transform="translate(0,0)" fill="rgb(0,0,0)" d="M 1518.89 1807.24 C 1530.36 1806.21 1541.15 1807.62 1545.47 1819.94 C 1551.44 1836.94 1551.86 1865.63 1532.99 1874 C 1500.44 1878.62 1500 1845.05 1505.49 1822.11 C 1507.25 1814.73 1512.31 1810.39 1518.89 1807.24 z"/>
<path transform="translate(0,0)" fill="rgb(255,255,255)" d="M 1520.82 1813.02 C 1545.13 1811.3 1543.59 1837.83 1540.39 1855.02 C 1539.23 1861.25 1535.86 1865.29 1530.48 1868.45 C 1509.53 1871.38 1508.63 1848.47 1510.34 1833.29 C 1511.36 1824.19 1513.58 1818.58 1520.82 1813.02 z"/>
<path transform="translate(0,0)" fill="rgb(0,0,0)" d="M 1026.1 14.1843 C 1038.47 13.7047 1048.01 17.2748 1051.35 30.3345 C 1055.84 47.9092 1056.34 76.0916 1035.17 81.9603 C 1023.15 82.3129 1013.29 78.8082 1010.11 66.0957 C 1005.59 48.0279 1004.84 20.7648 1026.1 14.1843 z"/>
<path transform="translate(0,0)" fill="rgb(255,255,255)" d="M 1026.66 19.9983 C 1049.05 19.1765 1048.1 43.8641 1045.72 60.0836 C 1044.62 67.6112 1041.51 71.9355 1035.2 75.9446 C 1012.18 77.5608 1013.25 52.5822 1015.82 36.123 C 1016.99 28.621 1020.36 23.9824 1026.66 19.9983 z"/>
<path transform="translate(0,0)" fill="rgb(0,0,0)" d="M 189.806 497.233 C 215.011 494.398 220.436 509.4 220.451 531.76 C 220.461 545.381 217.916 557.011 205.193 563.796 C 183.653 566.589 175.571 555.81 174.573 535.273 C 173.837 520.133 175.146 504.995 189.806 497.233 z"/>
<path transform="translate(0,0)" fill="rgb(255,255,255)" d="M 191.799 503.084 C 214.676 500.254 214.554 522.833 212.983 539.682 C 212.22 547.869 209.279 553.414 202.628 558.135 C 182.337 561.42 180.423 541.281 181.596 525.873 C 182.341 516.098 184.138 509.549 191.799 503.084 z"/>
<path transform="translate(0,0)" fill="rgb(0,0,0)" d="M 603.821 1807.2 C 625.606 1805.23 632.281 1816.45 633.455 1837.01 C 634.299 1851.82 632.333 1867.39 617.501 1874.05 C 592.875 1877.23 587.476 1860.87 587.537 1839.59 C 587.578 1825.44 590.035 1813.39 603.821 1807.2 z"/>
<path transform="translate(0,0)" fill="rgb(255,255,255)" d="M 605.227 1813.15 C 628.456 1810.54 627.763 1834.89 625.757 1851.59 C 624.835 1859.27 621.807 1864.03 615.513 1868.31 C 593.796 1871.95 593.212 1847.67 595.049 1832.36 C 596.072 1823.84 598.386 1818.28 605.227 1813.15 z"/>
<path transform="translate(0,0)" fill="rgb(0,0,0)" d="M 130.874 947.242 C 134.999 946.997 140.665 946.504 144.593 948.224 C 162.872 956.225 162.198 987.622 155.634 1003.18 C 152.897 1009.67 148.382 1012.48 141.921 1014.78 C 131.091 1015.32 120.821 1012.96 117.138 1001.67 C 111.24 983.595 110.394 955.419 130.874 947.242 z"/>
<path transform="translate(0,0)" fill="rgb(255,255,255)" d="M 131.949 953.089 C 155.408 951.456 154.135 977.225 151.504 993.899 C 150.415 1000.8 147.285 1004.93 141.54 1008.65 C 119.577 1011.31 119.467 988.27 121.252 972.364 C 122.232 963.629 124.95 958.264 131.949 953.089 z"/>
<path transform="translate(0,0)" fill="rgb(0,0,0)" d="M 78.1161 947.146 C 92.2618 946.092 108.573 949.819 103.1 967.329 C 101.883 971.223 99.5399 974.632 98.5807 978.384 C 109.946 994.071 113.33 1006.01 91.3778 1014.37 C 78.7369 1016.3 63.6721 1012.46 62.1899 997.219 C 61.3026 988.098 65.2668 984.265 70.8834 978.177 C 71.7272 971.3 50.6366 960.343 78.1161 947.146 z"/>
<path transform="translate(0,0)" fill="rgb(255,255,255)" d="M 78.8116 982.062 C 86.4445 981.684 93.5928 981.273 98.2762 988.536 C 104.037 997.47 96.6813 1004.64 89.661 1008.82 C 69.4532 1010.19 60.4922 991.738 78.8116 982.062 z"/>
<path transform="translate(0,0)" fill="rgb(255,255,255)" d="M 79.8654 953.058 C 97.8639 951.726 104.589 965.883 89.4583 975.15 C 71.8899 975.614 63.639 962.881 79.8654 953.058 z"/>
<path transform="translate(0,0)" fill="rgb(0,0,0)" d="M 972.159 14.2379 C 973.538 14.1758 974.917 14.1326 976.297 14.1084 C 1012.68 13.484 1008.56 85.193 974.57 82.4525 C 968.823 81.9929 963.57 79.0264 960.209 74.3423 C 958.014 71.3352 958.019 69.8147 958.49 66.6282 C 961.358 65.0941 959.783 65.5482 963.511 65.8944 L 964.115 67.5255 C 968.136 74.0008 975.053 80.7464 983.213 74.6961 C 991.973 68.2006 993.237 59.3407 994.746 49.2494 C 963.107 78.5817 937.673 25.7961 972.159 14.2379 z"/>
<path transform="translate(0,0)" fill="rgb(255,255,255)" d="M 972.914 20.145 C 994.361 18.7047 998.665 40.4823 981.956 51.7319 C 960.076 53.567 956.322 29.9916 972.914 20.145 z"/>
<path transform="translate(0,0)" fill="rgb(0,0,0)" d="M 988.308 1881.17 C 1003.61 1880.37 1012.39 1886.79 1015.63 1902.38 C 1018.83 1918.95 1016.14 1945.7 995.482 1948.75 C 984.34 1950.4 974.555 1946.37 972.859 1934.5 L 974.052 1932.92 C 977.501 1932.32 975.831 1932.2 979.227 1933.49 L 979.719 1935.55 C 984.416 1942.8 992.834 1947.43 1000.33 1940.37 C 1007.71 1933.43 1008.67 1926.15 1009.39 1916.68 C 978.337 1945.81 952.587 1891.57 988.308 1881.17 z"/>
<path transform="translate(0,0)" fill="rgb(255,255,255)" d="M 988.937 1887.05 C 1009.57 1886.1 1014.49 1908.85 996.163 1919.06 C 974.812 1919.67 971.634 1895.45 988.937 1887.05 z"/>
<path transform="translate(0,0)" fill="rgb(0,0,0)" d="M 1468.92 1807.23 C 1478.24 1806.3 1488.65 1806.36 1493.18 1816 C 1494.3 1818.37 1495.29 1820 1494.53 1822.66 C 1488.14 1825.84 1484.84 1814.76 1476.89 1812.77 C 1461.91 1809 1459.32 1830.28 1458.25 1839.34 C 1469.82 1828.68 1481.89 1827.67 1493.13 1839.52 C 1495.99 1845.87 1497.44 1853.46 1495.49 1860.27 C 1494.06 1865.49 1490.54 1869.89 1485.76 1872.44 C 1450.87 1891.22 1436.47 1823.2 1468.92 1807.23 z"/>
<path transform="translate(0,0)" fill="rgb(255,255,255)" d="M 1471.93 1837.02 C 1495.09 1837.8 1494.99 1862.92 1476.9 1869.1 C 1457.86 1868.67 1453.65 1846.33 1471.93 1837.02 z"/>
<path transform="translate(0,0)" fill="rgb(85,86,91)" d="M 641.697 1643.11 C 645.569 1641.62 646.045 1641.2 650.038 1641.5 C 652.261 1642.77 651.655 1642.04 652.828 1644.09 L 648.942 1650.64 L 605.044 1732.05 L 617.847 1739.09 L 582.957 1763.52 C 583.153 1749.4 583.755 1734.93 584.061 1720.75 L 596.893 1727.63 C 610.259 1702.89 630.652 1667.7 641.697 1643.11 z"/>
<path transform="translate(0,0)" fill="rgb(185,53,30)" d="M 1000.73 1718.23 L 1010.37 1718.3 C 1009.07 1744.43 1009.91 1776.64 1009.94 1803.23 L 1024.35 1803.25 C 1018.23 1816.09 1011.9 1828.83 1005.38 1841.47 C 999.269 1829.28 991.916 1815.47 986.302 1803.21 L 1000.95 1803.18 L 1001.01 1728.49 L 1000.73 1718.23 z"/>
<path transform="translate(0,0)" fill="rgb(185,53,30)" d="M 1711.33 550.563 C 1725.14 549.793 1740.52 549.264 1754.18 548.032 C 1746.36 559.797 1738.39 572.226 1730.38 583.795 C 1728.03 579.759 1725.59 575.353 1723.14 571.414 L 1681.16 595.883 L 1681.17 584.916 C 1693.09 578.005 1706.68 569.694 1718.74 563.364 L 1711.33 550.563 z"/>
<path transform="translate(0,0)" fill="rgb(0,0,0)" d="M 130.017 497.033 C 140.436 496.939 154.068 495.982 163.64 499.394 L 163.83 500.966 C 156.822 503.689 143.546 503.09 135.74 502.987 C 134.505 509.714 133.368 516.458 132.329 523.217 C 160.115 511.066 178.822 538.908 159.387 559.671 C 154.213 565.198 144.588 564.475 137.444 563.849 C 126.465 560.546 123.45 556.66 122.802 545.578 L 123.989 544.359 C 129.921 548.147 134.77 557.697 143.05 558.632 C 158.115 560.334 165.164 541.878 156.243 530.974 C 146.69 519.296 134.168 532.387 125.807 531.759 C 124.348 526.892 128.957 503.432 130.017 497.033 z"/>
<path transform="translate(0,0)" fill="rgb(0,0,0)" d="M 1838.91 494.286 C 1846.92 493.666 1861.13 494.027 1864.13 503.671 C 1866.64 511.693 1861.81 518.664 1858.51 525.571 C 1864.8 531.733 1868.92 535.346 1867.07 545.104 C 1865.93 550.934 1862.37 556.006 1857.27 559.05 C 1835.78 572.113 1813.43 546.691 1825.44 541.305 C 1831.12 543.345 1826.46 548.085 1836.32 554.604 C 1845.29 557 1856.61 556.272 1859.8 545.66 C 1860.83 542.153 1860.39 538.378 1858.57 535.208 C 1855.33 529.676 1846.04 529.94 1839.91 528.007 L 1839.25 526.222 C 1842.94 519.883 1858.01 524.02 1858.16 511.465 C 1858.28 500.281 1843.77 497.097 1836.17 502.259 C 1832.66 504.644 1832.59 511.383 1827.22 514.32 C 1824.3 513.319 1825.64 514.108 1823.43 511.336 C 1822.76 503.441 1831.75 496.2 1838.91 494.286 z"/>
<path transform="translate(0,0)" fill="rgb(0,0,0)" d="M 553.105 1807.25 C 555.382 1807.02 557.665 1806.85 559.951 1806.75 C 565.945 1806.52 571.775 1808.21 576.095 1812.52 C 579.597 1816.07 581.411 1820.94 581.076 1825.92 C 579.71 1849.61 544.058 1850.9 544.445 1866.6 C 548.635 1869.35 568.787 1865.41 580.178 1870.07 L 580.221 1871.19 C 572.422 1874.29 557.661 1873.47 548.838 1873.39 L 536.499 1873.35 C 538.878 1842.43 562.964 1851.22 573.588 1827.88 C 576.317 1821.89 567.76 1813.25 561.191 1812.54 C 550.489 1811.38 548.125 1824.15 540.533 1829.96 L 539.257 1829.27 C 536.426 1818.53 544.497 1811.33 553.105 1807.25 z"/>
<path transform="translate(0,0)" fill="rgb(0,0,0)" d="M 1566.06 1803.19 C 1573.84 1803.8 1579.45 1805.96 1582.1 1814.09 C 1583.48 1818.41 1583.05 1823.12 1580.88 1827.12 C 1578.11 1832.34 1575.28 1833.52 1569.94 1835.15 C 1561.5 1834.27 1555.43 1832.21 1552.99 1823 C 1551.85 1818.76 1552.52 1814.23 1554.83 1810.5 C 1557.79 1805.68 1560.88 1804.58 1566.06 1803.19 z"/>
<path transform="translate(0,0)" fill="rgb(255,255,255)" d="M 1565 1806.84 C 1581.04 1808.03 1582.48 1822.65 1570.33 1831.51 C 1554.53 1830.29 1552.7 1815.48 1565 1806.84 z"/>
<path transform="translate(0,0)" fill="rgb(0,0,0)" d="M 2002.6 944.82 C 2010.66 941.807 2019.64 945.921 2022.63 953.997 C 2025.62 962.074 2021.47 971.039 2013.39 973.999 C 2005.34 976.945 1996.42 972.826 1993.45 964.786 C 1990.48 956.747 1994.57 947.818 2002.6 944.82 z"/>
<path transform="translate(0,0)" fill="rgb(255,255,255)" d="M 2005.82 946.929 C 2021.54 949.2 2022.56 963.415 2010.65 971.817 C 2009.93 971.754 2009.21 971.679 2008.5 971.593 C 1994.7 969.855 1993.71 954.879 2005.82 946.929 z"/>
<path transform="translate(0,0)" fill="rgb(0,0,0)" d="M 651.091 1803.18 C 672.055 1805.18 673.562 1829.77 653.508 1835.32 C 631.845 1831.75 631.437 1807.75 651.091 1803.18 z"/>
<path transform="translate(0,0)" fill="rgb(255,255,255)" d="M 649.005 1806.94 C 653.216 1807.06 656.556 1807.29 659.667 1810.52 C 661.842 1812.76 662.992 1815.8 662.844 1818.92 C 662.565 1824.91 660.093 1827.54 655.874 1831.17 C 639.334 1831.22 637.374 1816.59 649.005 1806.94 z"/>
<path transform="translate(0,0)" fill="rgb(0,0,0)" d="M 1933.51 491.774 C 1941.52 488.93 1950.32 493.039 1953.29 501.003 C 1956.25 508.966 1952.28 517.835 1944.36 520.92 C 1939.13 522.958 1933.21 522.02 1928.86 518.466 C 1924.52 514.912 1922.43 509.294 1923.39 503.764 C 1924.35 498.235 1928.22 493.653 1933.51 491.774 z"/>
<path transform="translate(0,0)" fill="rgb(255,255,255)" d="M 1936.77 493.877 C 1952.47 496.582 1953.25 510.919 1940.8 518.983 C 1925.21 516.779 1923.62 501.676 1936.77 493.877 z"/>
<path transform="translate(0,0)" fill="rgb(0,0,0)" d="M 235.774 493.2 C 244.448 493.267 250.806 495.13 253.693 504.342 C 255.069 508.611 254.591 513.261 252.376 517.161 C 249.677 521.989 246.843 523.398 241.825 524.948 C 239.493 524.868 237.178 524.526 234.922 523.931 C 221.144 520.292 219.227 500.418 235.774 493.2 z"/>
<path transform="translate(0,0)" fill="rgb(255,255,255)" d="M 235.922 496.786 C 251.978 496.999 254.071 511.461 242.797 521.073 C 226.639 521.48 224.171 506.567 235.922 496.786 z"/>
<path transform="translate(0,0)" fill="rgb(0,0,0)" d="M 1083.12 1878.75 C 1091.14 1876.21 1099.72 1880.52 1102.49 1888.46 C 1105.25 1896.4 1101.2 1905.11 1093.34 1908.1 C 1088.05 1910.11 1082.08 1909.09 1077.76 1905.43 C 1073.44 1901.78 1071.45 1896.06 1072.57 1890.51 C 1073.68 1884.96 1077.72 1880.46 1083.12 1878.75 z"/>
<path transform="translate(0,0)" fill="rgb(255,255,255)" d="M 1083.4 1881.96 C 1100.43 1880.52 1102.81 1895.92 1091.35 1905.58 C 1075.84 1906.43 1073.03 1892.04 1083.4 1881.96 z"/>
<path transform="translate(0,0)" fill="rgb(0,0,0)" d="M 1067.05 11.1712 C 1090.03 9.3897 1094.51 31.2292 1078.15 41.9412 C 1070.41 42.4922 1064.32 42.0268 1059.65 34.9127 C 1057.43 31.5493 1056.66 27.426 1057.54 23.4896 C 1058.94 16.9339 1061.75 14.5429 1067.05 11.1712 z"/>
<path transform="translate(0,0)" fill="rgb(255,255,255)" d="M 1070.67 14.1887 C 1071.41 14.2713 1072.15 14.3702 1072.88 14.4854 C 1085.81 16.5699 1086.82 32.112 1074.34 38.8643 C 1058.76 36.4299 1057.61 20.9302 1070.67 14.1887 z"/>
<path transform="translate(0,0)" fill="rgb(0,0,0)" d="M 172.943 944.052 C 196.09 942.213 200.448 964.321 184.08 974.819 C 161.814 976.691 155.837 955.049 172.943 944.052 z"/>
<path transform="translate(0,0)" fill="rgb(255,255,255)" d="M 175.991 946.979 C 179.814 947.397 183.249 947.946 185.999 950.91 C 188.273 953.336 189.387 956.627 189.055 959.936 C 188.531 965.707 185.754 968.443 181.472 971.7 C 180.789 971.665 180.107 971.618 179.426 971.56 C 165.204 970.277 164.25 955.178 175.991 946.979 z"/>
<path transform="translate(0,0)" fill="rgb(0,0,0)" d="M 1005.08 122.509 C 1008.64 126.419 1021.33 153.751 1024.25 159.984 L 1007.03 159.993 L 986.398 159.996 C 991.943 147.894 999.041 134.52 1005.08 122.509 z"/>
<path transform="translate(0,0)" fill="rgb(0,0,0)" d="M 96.8467 495.712 C 99.4779 496.178 99.3997 496.033 101.587 497.504 C 102.345 505.319 102.437 555.828 101.229 562.267 C 98.7054 563.295 98.8613 563.177 96.1319 562.791 C 94.3192 560.236 94.9435 556.578 95.0577 553.25 L 95.0332 514.162 C 91.0483 514.238 81.7131 514.831 78.8474 512.395 C 88.9534 504.504 92.2271 509.125 96.419 496.99 L 96.8467 495.712 z"/>
<path transform="translate(0,0)" fill="rgb(0,0,0)" d="M 510.049 1806.4 C 512.529 1806.54 512.388 1806.45 514.592 1807.56 C 515.346 1815.32 515.535 1865.89 514.224 1872.33 C 511.66 1873.2 511.737 1873.41 509.152 1872.84 C 507.431 1870.17 508.036 1865.91 508.126 1862.5 L 508.103 1824.28 C 502.202 1824.35 497.387 1824.9 491.952 1822.84 C 496.78 1816.41 504.198 1820.81 509.547 1807.67 L 510.049 1806.4 z"/>
<path transform="translate(0,0)" fill="rgb(0,0,0)" d="M 36.0555 946.197 C 38.735 946.673 38.8752 946.422 40.7879 948.243 C 41.3875 956.071 41.6491 1006.75 40.3172 1012.81 C 37.449 1014.14 38.9876 1013.74 35.4104 1013.46 C 33.5341 1010.46 34.2297 1008.28 34.2369 1004.25 L 34.2258 964.741 C 28.1992 964.715 24.278 965.288 18.5257 963.479 C 19.7039 957.816 31.4276 961.447 36.0555 946.197 z"/>
<path transform="translate(0,0)" fill="rgb(0,0,0)" d="M 446.206 1825.27 C 449.087 1825.58 449.341 1825.29 451.546 1827.01 C 453.558 1833.03 452.614 1839.68 452.468 1846.33 C 457.665 1846.23 469.821 1844.85 472.486 1849.98 C 467.717 1854.4 459.036 1853.11 452.467 1852.94 L 452.451 1873.33 C 448.282 1873.37 449.975 1874 446.902 1872.21 C 444.928 1866.6 445.877 1859.27 446.028 1852.96 C 440.547 1853.03 429.014 1854.39 425.866 1849.37 C 430.145 1844.93 440.187 1846.2 446.032 1846.37 C 446.045 1839.34 446.103 1832.3 446.206 1825.27 z"/>
<path transform="translate(0,0)" fill="rgb(0,0,0)" d="M 1413.75 1825.51 C 1416.66 1825.68 1416.88 1825.38 1419.16 1827.04 C 1421.12 1832.87 1420.15 1839.78 1420 1846.29 C 1425.49 1846.22 1436.85 1844.97 1440.25 1849.8 C 1436.59 1854.41 1425.5 1853.07 1420 1852.92 L 1420.02 1873.72 C 1416.38 1873.45 1417.52 1874.03 1414.72 1872.3 C 1412.51 1866.39 1413.54 1859.59 1413.74 1852.96 C 1408.78 1853.07 1395.79 1854.5 1393.59 1849.18 C 1398.34 1844.94 1407.27 1846.22 1413.69 1846.42 L 1413.75 1825.51 z"/>
<path transform="translate(0,0)" fill="rgb(0,0,0)" d="M 934.159 1899.31 C 938.146 1900.09 936.658 1899.17 939.298 1901.41 C 941.065 1907.52 940.181 1914.24 940.035 1920.88 C 945.348 1920.81 956.979 1919.56 960.218 1924.23 C 956.57 1928.62 945.422 1927.39 940.034 1927.27 C 940.035 1934.42 939.99 1941.56 939.9 1948.71 C 937.338 1948.36 936.599 1948.62 934.752 1946.99 C 932.647 1940.79 933.62 1934.09 933.804 1927.26 C 928.891 1927.36 916.021 1928.73 913.691 1923.68 C 918.218 1919.57 927.626 1920.78 933.799 1920.94 C 933.723 1913.35 933.769 1906.87 934.159 1899.31 z"/>
<path transform="translate(0,0)" fill="rgb(0,0,0)" d="M 39.236 535.146 C 47.5166 535.318 54.287 533.754 62.1255 535.826 C 64.5061 538.186 63.7396 537.511 64.0428 541.9 C 56.0481 541.802 48.2907 543.306 40.8739 541.227 C 38.6018 538.819 39.3363 539.529 39.236 535.146 z"/>
<path transform="translate(0,0)" fill="rgb(0,0,0)" d="M 923.843 52.9851 C 930.396 52.7393 942.239 51.2187 948.05 53.8909 C 949.431 54.5261 949.678 57.1537 950.216 59.0645 C 943.955 59.3996 931.237 60.8287 925.89 58.1629 C 924.467 57.4531 924.343 54.9673 923.843 52.9851 z"/>
<path transform="translate(0,0)" fill="rgb(0,0,0)" d="M 1789.95 532.914 C 1796.57 532.663 1808.32 531.152 1814.16 533.86 C 1815.62 534.537 1815.88 537.067 1816.49 539.044 C 1809.64 539.19 1797.99 540.872 1792 538.116 C 1790.66 537.5 1790.44 534.794 1789.95 532.914 z"/>
<path transform="translate(0,0)" fill="rgb(0,0,0)" d="M 1002.33 278.927 C 1004.57 277.233 1007.76 277.641 1009.51 279.847 C 1011.25 282.052 1010.92 285.247 1008.75 287.043 C 1007.31 288.242 1005.33 288.564 1003.57 287.885 C 1001.82 287.206 1000.58 285.632 1000.32 283.772 C 1000.06 281.912 1000.83 280.058 1002.33 278.927 z"/>
<path transform="translate(0,0)" fill="rgb(0,0,0)" d="M 1002.34 203.922 C 1004.59 202.239 1007.76 202.651 1009.5 204.85 C 1011.24 207.05 1010.91 210.236 1008.76 212.032 C 1007.32 213.235 1005.33 213.561 1003.58 212.882 C 1001.83 212.204 1000.58 210.628 1000.32 208.766 C 1000.07 206.905 1000.84 205.05 1002.34 203.922 z"/>
<path transform="translate(0,0)" fill="rgb(0,0,0)" d="M 1001.99 222.971 C 1004.06 221.088 1007.26 221.21 1009.18 223.246 C 1011.1 225.281 1011.04 228.481 1009.04 230.44 C 1007.71 231.742 1005.79 232.225 1004 231.703 C 1002.22 231.182 1000.86 229.738 1000.44 227.927 C 1000.02 226.116 1000.61 224.221 1001.99 222.971 z"/>
<path transform="translate(0,0)" fill="rgb(0,0,0)" d="M 1002.01 297.966 C 1004.07 296.097 1007.26 296.225 1009.17 298.256 C 1011.08 300.286 1011.02 303.472 1009.03 305.426 C 1007.71 306.727 1005.78 307.21 1004 306.689 C 1002.22 306.167 1000.86 304.723 1000.44 302.913 C 1000.03 301.103 1000.63 299.211 1002.01 297.966 z"/>
<path transform="translate(0,0)" fill="rgb(0,0,0)" d="M 1000.86 259.671 C 1004.5 259.581 1004.95 259.522 1008.47 260.162 C 1010.76 263.54 1009.92 264.016 1010 268.985 C 1006.85 269.125 1005.16 269.438 1002.15 268.418 C 1000.22 265.93 1000.8 263.03 1000.86 259.671 z"/>
<path transform="translate(0,0)" fill="rgb(0,0,0)" d="M 1001.67 185.92 C 1002.92 184.549 1004.81 183.962 1006.61 184.386 C 1008.42 184.81 1009.85 186.178 1010.36 187.961 C 1010.86 189.744 1010.36 191.661 1009.05 192.97 C 1007.09 194.925 1003.92 194.959 1001.92 193.045 C 999.916 191.131 999.805 187.969 1001.67 185.92 z"/>
<path transform="translate(0,0)" fill="rgb(0,0,0)" d="M 1001.82 166.963 C 1003.78 164.984 1006.98 164.95 1008.98 166.887 C 1010.99 168.824 1011.07 172.014 1009.16 174.049 C 1007.9 175.391 1006.02 175.952 1004.23 175.516 C 1002.44 175.079 1001.03 173.714 1000.53 171.943 C 1000.03 170.172 1000.52 168.269 1001.82 166.963 z"/>
<path transform="translate(0,0)" fill="rgb(0,0,0)" d="M 1001.82 241.954 C 1003.79 239.973 1006.98 239.941 1008.99 241.883 C 1010.99 243.824 1011.06 247.017 1009.15 249.046 C 1007.89 250.382 1006.01 250.936 1004.22 250.497 C 1002.44 250.057 1001.03 248.693 1000.53 246.924 C 1000.04 245.156 1000.53 243.257 1001.82 241.954 z"/>
</svg>