<svg version="1.1" xmlns="http://www.w3.org/2000/svg" style="display: block;" viewBox="0 0 1468 1024" width="367" height="256" preserveAspectRatio="none">
<defs>
	<linearGradient id="Gradient1" gradientUnits="userSpaceOnUse" x1="22.6599" y1="684.397" x2="29.9232" y2="694.61">
		<stop class="stop0" offset="0" stop-opacity="1" stop-color="rgb(229,216,229)"/>
		<stop class="stop1" offset="1" stop-opacity="1" stop-color="rgb(241,202,240)"/>
	</linearGradient>
	<linearGradient id="Gradient2" gradientUnits="userSpaceOnUse" x1="1140.83" y1="655.065" x2="1143.34" y2="699.981">
		<stop class="stop0" offset="0" stop-opacity="1" stop-color="rgb(166,161,166)"/>
		<stop class="stop1" offset="1" stop-opacity="1" stop-color="rgb(207,204,209)"/>
	</linearGradient>
	<linearGradient id="Gradient3" gradientUnits="userSpaceOnUse" x1="1111.58" y1="730.751" x2="1165.55" y2="792.39">
		<stop class="stop0" offset="0" stop-opacity="1" stop-color="rgb(234,225,232)"/>
		<stop class="stop1" offset="1" stop-opacity="1" stop-color="rgb(252,253,252)"/>
	</linearGradient>
</defs>
<path transform="translate(0,0)" fill="rgb(254,253,254)" d="M 0 0 L 1468 0 L 1468 125.154 L 1468 168.592 L 1468 1024 L 1427.16 1024 L 1220.34 1024 L 1219.07 1024 L 1014.36 1024 L 1012.91 1024 L 910.051 1024 L 908.022 1024 L 0 1024 L 0 0 z"/>
<path transform="translate(0,0)" fill="rgb(4,1,3)" d="M 303.198 70.6946 C 322.243 63.1923 336.161 57.4142 355.96 52.3608 C 439.18 31.884 526.783 38.767 605.784 71.9895 C 693.123 102.594 767.408 176.277 810.99 256.089 C 817.657 268.299 826.158 279.358 832.258 292.026 C 831.239 308.856 848.851 346.443 851.767 364.883 C 862.972 435.715 863.778 508.867 837.34 576.604 C 835.912 580.264 832.543 588.532 831.752 591.936 C 836.09 593.936 835.614 593.006 838.172 596.469 C 839.451 603.748 841.301 817.698 839.976 821.557 L 834.833 822.176 C 818.215 821.937 800.84 824.415 784.195 825.108 C 721.772 827.708 660.103 838.462 597.603 839.132 C 591.065 839.203 572.658 842.009 567.74 839.536 C 564.58 839.997 562.577 841.771 559.884 843.61 C 550.798 846.062 528.421 849.232 518.503 850.496 C 485.815 854.237 450.635 857.265 417.849 853.485 C 399.194 851.334 378.9 845.232 360.013 842.401 C 342.06 839.709 323.06 832.119 306.084 825.73 C 299.992 823.151 293.918 820.528 287.863 817.862 C 189.192 774.476 112.229 693.075 74.4372 592.129 C 59.1477 553.573 47.6922 504.186 45.1091 462.688 C 45.5634 455.433 45.1504 443.711 45.1309 436.119 C 45.4302 434.194 45.5354 431.55 45.6301 429.552 C 47.9207 381.239 59.8137 339.999 77.1111 295.281 C 114.463 195.776 203.603 107.281 303.198 70.6946 z"/>
<path transform="translate(0,0)" fill="rgb(254,253,254)" d="M 831.752 591.936 C 836.09 593.936 835.614 593.006 838.172 596.469 C 839.451 603.748 841.301 817.698 839.976 821.557 L 834.833 822.176 C 818.215 821.937 800.84 824.415 784.195 825.108 C 721.772 827.708 660.103 838.462 597.603 839.132 C 591.065 839.203 572.658 842.009 567.74 839.536 C 593.939 827.689 621.712 817.622 646.791 803.676 C 738.949 752.428 791.921 687.204 831.752 591.936 z"/>
<path transform="translate(0,0)" fill="rgb(252,247,250)" d="M 379.793 273.452 C 409.163 258.835 447.728 257.815 479.169 264.994 C 472.78 271.935 447.295 292.232 445.692 299.774 L 447.059 301.236 C 453.273 300.052 464.692 281.462 472.854 276.639 C 481.44 271.566 480.922 273.079 489.296 270.242 C 502.755 273.075 522.397 281.551 532.349 291.101 C 543.464 297.253 555.203 311.126 563.855 320.682 C 570.592 327.718 578.876 335.933 585.137 343.218 C 592.328 350.883 599.467 358.596 606.554 366.357 C 611.079 370.828 615.991 375.523 620.29 380.151 C 633.348 393.123 644.958 406.05 657.083 419.852 C 663.186 426.799 673.11 435.373 678.581 441.919 C 686.618 450.358 694.297 459.073 702.306 467.578 C 709.49 475.207 718.781 483.722 725.186 491.779 C 730.022 496.76 734.765 502.288 739.436 507.042 L 749.188 516.47 C 755.288 522.777 764.781 532.036 770.043 538.646 L 765.251 544.554 C 769.333 549.458 769.632 550.018 774.928 552.936 C 778.192 553.385 778.95 553.544 782.348 552.974 C 797.887 553.26 813.428 553.44 828.969 553.515 C 801.63 650.214 747.754 724.62 662.658 778.835 C 616.78 808.533 556.226 830.003 501.861 836.984 C 456.649 842.789 399.132 839.291 355.286 828.053 C 226.236 794.976 108.435 685.024 75.2241 553.834 C 93.9689 554.139 112.718 554.13 131.462 553.807 C 141.821 551.571 173.311 554.025 186.963 552.617 L 187.228 550.912 C 193.194 549.617 195.226 550.903 200.305 549.622 C 203.01 546.628 202.159 546.739 202.537 541.743 C 203.831 536.552 207.839 529.189 210.441 524.284 C 208.577 523.05 206.615 521.117 204.93 519.583 C 215.852 503.35 223.042 486.118 233.104 471.662 C 236.922 463.643 245.393 451.93 250.206 443.574 L 288.349 377.973 C 299.484 358.545 324.532 311.203 339.673 297.084 C 340.102 296.666 342.679 295.71 343.412 295.413 C 349.06 287.084 367.248 279.334 376.617 274.871 C 378.032 274.608 378.508 274.168 379.793 273.452 z"/>
<path transform="translate(0,0)" fill="rgb(51,51,171)" d="M 379.793 273.452 C 409.163 258.835 447.728 257.815 479.169 264.994 C 472.78 271.935 447.295 292.232 445.692 299.774 L 447.059 301.236 C 453.273 300.052 464.692 281.462 472.854 276.639 C 481.44 271.566 480.922 273.079 489.296 270.242 C 502.755 273.075 522.397 281.551 532.349 291.101 C 543.464 297.253 555.203 311.126 563.855 320.682 C 570.592 327.718 578.876 335.933 585.137 343.218 C 592.328 350.883 599.467 358.596 606.554 366.357 C 611.079 370.828 615.991 375.523 620.29 380.151 C 633.348 393.123 644.958 406.05 657.083 419.852 C 663.186 426.799 673.11 435.373 678.581 441.919 C 686.618 450.358 694.297 459.073 702.306 467.578 C 709.49 475.207 718.781 483.722 725.186 491.779 C 730.022 496.76 734.765 502.288 739.436 507.042 L 749.188 516.47 C 755.288 522.777 764.781 532.036 770.043 538.646 L 765.251 544.554 C 769.333 549.458 769.632 550.018 774.928 552.936 C 754.079 555.804 713.568 554.696 691.091 554.762 L 525.45 554.648 C 508.933 554.218 491.279 554.922 474.439 554.737 C 445.931 555.949 409.456 554.877 380.082 554.993 L 365.448 554.882 L 307.01 554.746 C 278.171 554.933 249.33 554.941 220.491 554.767 L 203.762 554.074 C 203.002 551.624 202.733 544.636 202.537 541.743 C 203.831 536.552 207.839 529.189 210.441 524.284 C 208.577 523.05 206.615 521.117 204.93 519.583 C 215.852 503.35 223.042 486.118 233.104 471.662 C 236.922 463.643 245.393 451.93 250.206 443.574 L 288.349 377.973 C 299.484 358.545 324.532 311.203 339.673 297.084 C 340.102 296.666 342.679 295.71 343.412 295.413 C 349.06 287.084 367.248 279.334 376.617 274.871 C 378.032 274.608 378.508 274.168 379.793 273.452 z"/>
<path transform="translate(0,0)" fill="rgb(151,53,5)" d="M 339.673 297.084 C 340.102 296.666 342.679 295.71 343.412 295.413 C 350.201 309.051 359.981 322.525 367.503 335.92 C 383.396 364.219 400.417 394.697 418.996 421.383 L 419.211 421.995 C 420.093 422.535 488.912 543.508 492.978 553.546 C 488.411 553.67 478.365 553.666 474.439 554.737 C 445.931 555.949 409.456 554.877 380.082 554.993 L 365.448 554.882 L 307.01 554.746 C 278.171 554.933 249.33 554.941 220.491 554.767 L 203.762 554.074 C 203.002 551.624 202.733 544.636 202.537 541.743 C 203.831 536.552 207.839 529.189 210.441 524.284 C 208.577 523.05 206.615 521.117 204.93 519.583 C 215.852 503.35 223.042 486.118 233.104 471.662 C 236.922 463.643 245.393 451.93 250.206 443.574 L 288.349 377.973 C 299.484 358.545 324.532 311.203 339.673 297.084 z"/>
<path transform="translate(0,0)" fill="rgb(29,11,123)" d="M 419.211 421.995 C 420.093 422.535 488.912 543.508 492.978 553.546 C 488.411 553.67 478.365 553.666 474.439 554.737 C 445.931 555.949 409.456 554.877 380.082 554.993 L 365.448 554.882 L 307.01 554.746 C 306.583 554.703 306.157 554.657 305.73 554.607 C 301.638 554.109 301.147 554.639 299.159 552.098 C 299.583 545.439 309.694 539.072 314.765 533.937 C 341.28 507.086 366.85 479.919 390.578 450.534 C 397.333 442.168 414.075 430.509 419.211 421.995 z"/>
<path transform="translate(0,0)" fill="rgb(226,202,206)" d="M 339.673 297.084 C 342.195 306.89 326.904 327.93 321.774 336.6 C 308.365 359.261 294.306 381.43 281.298 404.352 C 266.913 429.7 250.029 463.151 232.357 485.637 C 228.496 495.732 216.615 515.349 210.441 524.284 C 208.577 523.05 206.615 521.117 204.93 519.583 C 215.852 503.35 223.042 486.118 233.104 471.662 C 236.922 463.643 245.393 451.93 250.206 443.574 L 288.349 377.973 C 299.484 358.545 324.532 311.203 339.673 297.084 z"/>
<path transform="translate(0,0)" fill="rgb(219,172,163)" d="M 233.104 471.662 C 233.167 478.134 222.56 493.531 219.183 503.78 C 224.153 498.431 229.207 486.787 231.405 484.879 L 232.357 485.637 C 228.496 495.732 216.615 515.349 210.441 524.284 C 208.577 523.05 206.615 521.117 204.93 519.583 C 215.852 503.35 223.042 486.118 233.104 471.662 z"/>
<path transform="translate(0,0)" fill="rgb(176,85,42)" d="M 373.117 438.398 C 377.02 439.889 383.123 441.738 384.474 446.145 C 383.482 449.765 377.764 454.901 374.671 456.934 C 343.399 477.491 317.87 503.55 293.147 531.48 C 280.929 545.283 281.468 543.847 262.928 544.772 C 267.509 539.95 275.766 533.366 281.02 528.817 C 293.952 517.622 301.693 509.888 311.758 496.155 C 303.246 489.157 297.655 480.762 291.162 471.923 C 288.542 467.713 280.648 460.179 280.168 456.87 C 288.431 462.636 304.22 491.95 313.681 493.956 L 314.774 493.084 C 314.716 490.275 283.973 449.12 280.876 443.659 C 282.59 443.717 283.187 443.865 284.25 445.449 C 294.987 461.449 304.632 477.611 318.52 491.244 C 326.864 486.436 366.494 446.626 373.117 438.398 z"/>
<path transform="translate(0,0)" fill="rgb(254,253,254)" d="M 379.793 273.452 C 409.163 258.835 447.728 257.815 479.169 264.994 C 472.78 271.935 447.295 292.232 445.692 299.774 L 447.059 301.236 C 453.273 300.052 464.692 281.462 472.854 276.639 C 481.44 271.566 480.922 273.079 489.296 270.242 C 502.755 273.075 522.397 281.551 532.349 291.101 L 531.755 293.874 C 507.787 329.683 468.402 362.225 441.299 396.214 C 438.75 399.411 421.403 420.242 418.996 421.383 C 400.417 394.697 383.396 364.219 367.503 335.92 C 359.981 322.525 350.201 309.051 343.412 295.413 C 349.06 287.084 367.248 279.334 376.617 274.871 C 378.032 274.608 378.508 274.168 379.793 273.452 z"/>
<path transform="translate(0,0)" fill="rgb(4,1,3)" d="M 376.617 274.871 C 378.032 274.608 378.508 274.168 379.793 273.452 C 397.481 281.424 402.941 296.289 406.174 314.82 C 410.111 317.711 410.334 316.989 412.108 320.902 C 411.481 324.534 412.168 323.232 409.507 325.802 C 406.265 326.421 407.486 326.631 404.809 325.253 C 403.698 321.286 403.063 315.567 402.148 311.412 C 397.689 291.154 390.73 286.658 376.617 274.871 z"/>
<path transform="translate(0,0)" fill="rgb(4,1,3)" d="M 443.773 308.515 C 446.327 309.063 445.348 308.407 446.843 310.485 C 443.903 317.178 434.739 315.889 436.457 324.73 C 434.593 327.939 431.675 324.911 424.513 329.994 L 424.17 330.242 L 419.001 329.882 L 417.858 328.447 C 419.722 325.053 427.77 323.665 429.646 321.939 C 434.116 317.825 439.323 312.699 443.773 308.515 z"/>
<path transform="translate(0,0)" fill="rgb(192,181,192)" d="M 615.431 384.265 C 616.805 382.975 618.802 381.403 620.29 380.151 C 633.348 393.123 644.958 406.05 657.083 419.852 C 663.186 426.799 673.11 435.373 678.581 441.919 C 678.192 445.862 678.819 445.93 676.737 448.563 L 674.747 448.688 C 655.798 428.582 634.449 402.636 615.431 384.265 z"/>
<path transform="translate(0,0)" fill="rgb(236,213,241)" d="M 678.581 441.919 C 686.618 450.358 694.297 459.073 702.306 467.578 C 709.49 475.207 718.781 483.722 725.186 491.779 C 725.465 496.544 728.109 496.82 727.921 500.541 C 725.301 498.876 724.737 498.498 722.622 496.242 L 721.384 496.724 C 716.883 492.687 708.841 483.564 704.324 478.877 L 674.747 448.688 L 676.737 448.563 C 678.819 445.93 678.192 445.862 678.581 441.919 z"/>
<path transform="translate(0,0)" fill="rgb(163,151,205)" d="M 749.188 516.47 C 755.288 522.777 764.781 532.036 770.043 538.646 L 765.251 544.554 C 757.907 537.277 750.688 529.873 743.598 522.348 C 745.648 520.687 747.431 518.471 749.188 516.47 z"/>
<path transform="translate(0,0)" fill="rgb(192,181,192)" d="M 532.349 291.101 C 543.464 297.253 555.203 311.126 563.855 320.682 C 562.04 322.116 560.239 323.511 558.494 325.031 C 555.4 321.021 535.563 297.667 531.755 293.874 L 532.349 291.101 z"/>
<path transform="translate(0,0)" fill="rgb(179,170,219)" d="M 578.167 345.669 C 581.54 345.961 582.405 345.071 585.137 343.218 C 592.328 350.883 599.467 358.596 606.554 366.357 C 605.539 369.12 605.222 370.571 603.034 372.639 C 594.728 363.2 587.152 354.478 578.167 345.669 z"/>
<path transform="translate(0,0)" fill="rgb(236,213,241)" d="M 563.855 320.682 C 570.592 327.718 578.876 335.933 585.137 343.218 C 582.405 345.071 581.54 345.961 578.167 345.669 C 571.915 339.866 564.441 331.402 558.494 325.031 C 560.239 323.511 562.04 322.116 563.855 320.682 z"/>
<path transform="translate(0,0)" fill="rgb(163,151,205)" d="M 606.554 366.357 C 611.079 370.828 615.991 375.523 620.29 380.151 C 618.802 381.403 616.805 382.975 615.431 384.265 C 611.363 381.216 606.728 376.308 603.034 372.639 C 605.222 370.571 605.539 369.12 606.554 366.357 z"/>
<path transform="translate(0,0)" fill="rgb(192,181,192)" d="M 721.384 496.724 L 722.622 496.242 C 724.737 498.498 725.301 498.876 727.921 500.541 C 728.109 496.82 725.465 496.544 725.186 491.779 C 730.022 496.76 734.765 502.288 739.436 507.042 C 738.436 508.584 736.536 511.729 735.49 513.039 L 721.384 496.724 z"/>
<path transform="translate(0,0)" fill="rgb(179,170,219)" d="M 739.436 507.042 L 749.188 516.47 C 747.431 518.471 745.648 520.687 743.598 522.348 C 740.268 518.966 738.403 516.791 735.49 513.039 C 736.536 511.729 738.436 508.584 739.436 507.042 z"/>
<path transform="translate(0,0)" fill="rgb(254,253,254)" d="M 307.01 554.746 L 365.448 554.882 C 365.405 558.893 366.066 566.096 366.34 570.39 C 368.778 608.613 366.819 646.378 366.566 684.51 L 219.499 685.51 L 220.491 554.767 C 249.33 554.941 278.171 554.933 307.01 554.746 z"/>
<path transform="translate(0,0)" fill="rgb(254,253,254)" d="M 474.439 554.737 C 491.279 554.922 508.933 554.218 525.45 554.648 C 525.941 578.548 524.525 602.26 524.595 626.164 C 524.65 644.941 524.512 663.739 524.501 682.519 C 506.126 681.839 387.537 691.231 379.889 683.944 C 378.792 673.757 379.669 637.926 379.587 626.986 C 379.517 617.566 378.613 560.76 380.082 554.993 C 409.456 554.877 445.931 555.949 474.439 554.737 z"/>
<path transform="translate(0,0)" fill="rgb(98,73,68)" d="M 187.228 550.912 C 193.194 549.617 195.226 550.903 200.305 549.622 C 203.01 546.628 202.159 546.739 202.537 541.743 C 202.733 544.636 203.002 551.624 203.762 554.074 C 194.769 553.148 184.824 553.8 175.681 553.896 C 160.942 554.081 146.2 554.052 131.462 553.807 C 141.821 551.571 173.311 554.025 186.963 552.617 L 187.228 550.912 z"/>
<path transform="translate(0,0)" fill="rgb(254,253,254)" d="M 73.2086 543.851 C 70.6728 533.494 68.1755 523.056 66.6755 512.556 C 43.5483 350.656 107.699 199.607 248.749 112.156 C 336.772 57.5819 430.253 49.6877 533.129 63.8143 C 537.004 64.3254 540.579 64.8051 544.418 65.5339 C 570.324 72.1571 603.999 84.5553 628.596 95.684 C 641.5 101.523 659.175 113.84 671.294 121.731 C 722.426 155.024 762.044 200.053 793.13 252.374 C 811.418 286.599 833.068 338.061 838.534 376.589 C 845.403 424.998 845.218 496.297 833.274 543.07 C 818.258 542.892 803.241 542.83 788.224 542.885 C 774.532 535.373 739.052 493.006 727.736 481.096 C 706.841 459.103 684.463 436.91 663.744 414.773 L 594.321 341.275 C 572.842 318.453 546.052 283.809 517.823 270.21 C 460.09 242.399 370.225 247.937 326.191 299.429 C 314.03 313.65 302.337 335.845 293.003 352.346 L 251.051 426.407 C 245.312 436.447 237.847 446.848 231.748 456.876 C 214.473 484.971 197.966 513.53 182.246 542.524 C 170.976 544.745 150.58 544.087 138.425 544.058 L 73.2086 543.851 z"/>
<path transform="translate(0,0)" fill="rgb(247,235,243)" d="M 533.129 63.8143 C 537.004 64.3254 540.579 64.8051 544.418 65.5339 C 542.986 65.5877 541.099 65.9888 539.659 66.2469 C 539.183 69.8651 539.953 87.4353 539.749 93.1945 C 538.456 129.693 539.867 166.27 539.759 202.848 L 630.209 203.768 C 642.278 203.776 676.968 203.118 686.799 204.815 C 687.443 188.954 688.075 173.905 689.453 158.103 C 690.67 160.28 688.446 192.55 689.084 197.508 C 689.435 200.236 687.363 203.776 684.97 205.669 C 671.283 206.316 656.671 204.626 642.999 205.149 C 595.301 206.972 547.514 203.075 499.945 205.099 C 469.387 206.399 438.874 207.213 408.293 206.027 C 399.014 205.667 389.159 205.982 379.995 204.688 C 372.024 195.543 382.5 85.9398 375.914 75.8368 C 372.775 75.4312 372.584 74.8564 370.212 76.1977 C 367.176 84.9885 369.336 187.314 369 205.19 C 357.038 205.929 345.043 204.706 333.194 205.343 C 301.842 207.027 270.337 205.159 239.084 206.894 C 234.248 207.163 221.705 209.177 218.389 205.235 C 237.248 205.962 265.083 204.898 284.089 204.409 C 312.049 203.769 340.018 203.582 367.984 203.85 C 367.382 163.488 368.98 122.763 366.758 82.4717 C 366.585 79.3393 367.881 76.9587 370.118 74.903 C 372.898 73.7457 373.681 73.238 376.743 73.8039 C 380.607 79.4049 378.902 186.488 379.138 202.873 C 388.375 204.256 404.276 204.167 414.129 204.47 C 452.411 205.648 491.002 203.023 529.109 202.666 C 525.189 189.431 524.875 173.933 525.377 160.168 C 526.507 129.198 523.686 96.9416 528.413 66.4168 C 528.553 65.5125 532.134 64.2599 533.129 63.8143 z"/>
<path transform="translate(0,0)" fill="rgb(226,202,206)" d="M 790.691 366.566 C 798.515 366.157 828.361 363.166 829.377 373.206 C 828.096 374.65 827.238 375.847 824.931 375.845 C 787.857 375.803 747.089 373.182 710.243 375.6 L 698.676 375.784 C 698.808 383.583 698.737 391.385 698.464 399.181 C 697.374 396.812 697.615 372.048 698.358 368.72 C 699.508 367.98 780.932 366.9 790.691 366.566 z"/>
<path transform="translate(0,0)" fill="rgb(226,202,206)" d="M 78.3011 367.035 C 95.6607 368.869 203.672 365.468 208.2 368.679 C 206.493 370.287 154.609 366.578 144.648 371.551 C 147.108 373.16 150.261 372.939 153.249 373.046 C 154.884 373.003 161.267 373.586 163.201 373.804 C 175.561 375.194 197.647 371.341 208.928 374.375 C 206.534 375.703 162.161 374.975 156.043 374.967 C 130.24 374.931 104.438 375.367 78.6513 376.276 C 75.598 376.366 75.6779 376.93 74.0321 375.406 C 74.7894 371.643 76.1044 370.171 78.3011 367.035 z"/>
<path transform="translate(0,0)" fill="rgb(203,168,149)" d="M 187.228 550.912 C 186.953 543.644 200.215 526.216 204.93 519.583 C 206.615 521.117 208.577 523.05 210.441 524.284 C 207.839 529.189 203.831 536.552 202.537 541.743 C 202.159 546.739 203.01 546.628 200.305 549.622 C 195.226 550.903 193.194 549.617 187.228 550.912 z"/>
<path transform="translate(0,0)" fill="rgb(179,170,219)" d="M 770.043 538.646 C 773.202 542.225 779.334 550.195 782.348 552.974 C 778.95 553.544 778.192 553.385 774.928 552.936 C 769.632 550.018 769.333 549.458 765.251 544.554 L 770.043 538.646 z"/>
<path transform="translate(0,0)" fill="rgb(192,181,192)" d="M 874.205 354.996 C 886.051 372.581 895.962 391.126 907.55 408.652 C 942.83 462.012 975.828 516.788 1010.79 570.305 C 1017.17 580.079 1021.86 590.227 1028.83 599.933 C 1034.16 596.49 1103.55 596.371 1114.46 597.549 C 1114.49 570.806 1115.86 523.851 1113.67 497.942 L 1114.1 492.073 L 1116.59 491.259 L 1117.57 492.413 C 1117.85 494.189 1118.14 495.962 1118.44 497.734 C 1147.03 499.774 1188.03 497.368 1217.69 497.96 C 1218.46 528.399 1218.78 565.73 1217.97 596.195 L 1218.01 596.676 L 1222.52 596.619 C 1219.8 586.87 1222.57 513.138 1223.02 498.139 L 1286.47 497.849 C 1294.74 497.824 1313.66 497.387 1321.09 498.526 L 1323.58 498.883 L 1324.31 498.202 C 1335.37 498.444 1420.83 498.245 1424.74 499.592 L 1425.88 502.194 L 1426.88 499.342 C 1428.81 504.536 1426.06 516.287 1428.85 523.662 L 1428.92 867.658 L 1428.85 966.004 C 1428.81 981.639 1429.29 1007.42 1427.67 1022.23 L 1427.16 1024 L 1220.34 1024 L 1219.07 1024 L 1014.36 1024 L 1012.91 1024 L 910.051 1024 L 908.022 1024 C 906.831 1006.95 908.835 979.399 908.918 961.061 L 908.928 820.573 C 896.346 821.316 882.649 821.881 870.191 823.03 L 869.484 822.875 L 869.509 820.082 L 869.743 819.416 C 866.325 809.87 868.518 714.616 868.729 699.669 C 868.143 697.157 868.158 685.227 868.659 682.311 C 870.335 640.945 866.293 597.542 867.63 556.272 C 869.655 493.828 869.832 430.988 869.394 368.483 C 870.902 365.77 872.15 365.771 875.258 364.048 L 870.158 356.378 L 874.205 354.996 z"/>
<path transform="translate(0,0)" fill="rgb(254,253,254)" d="M 874.205 354.996 C 886.051 372.581 895.962 391.126 907.55 408.652 C 942.83 462.012 975.828 516.788 1010.79 570.305 C 1017.17 580.079 1021.86 590.227 1028.83 599.933 L 1031.11 603.271 L 1079.55 679.746 C 1092.53 700.237 1108.56 722.802 1117.57 745.472 C 1121.72 755.903 1110.2 784.298 1117.48 788.083 C 1121.65 786.693 1125.18 781.118 1127.09 777.349 C 1137.28 757.272 1137.56 635.517 1138.71 606.991 C 1138.83 610.778 1138.57 622.534 1139.67 624.648 L 1142.81 623.248 C 1144.32 627.924 1144.2 628.888 1143.74 633.837 C 1144.03 637.467 1145.1 646.81 1145.1 649.751 C 1145.49 657.314 1145.9 667.519 1147.04 674.821 C 1148.79 686.11 1151.08 688.441 1151.05 700.325 L 1150.8 703.552 C 1151.31 736.105 1153.43 771.033 1154.45 803.946 C 1151.31 804.984 1151.67 804.371 1149.69 806.501 C 1144.06 807.584 1128.75 806.5 1121.56 806.786 C 1119.59 808.014 1119.97 807.596 1117.21 807.556 C 1117.18 802.08 1117.04 799.593 1118.32 794.184 L 1114.76 793.399 C 1113.39 791.405 1111.45 788.393 1110.02 786.565 C 1093.09 805.121 1085.83 807.162 1061 808.292 C 1045.62 808.843 1030.24 809.584 1014.88 810.513 L 1013.03 810.88 C 992.339 811.534 969.615 815.076 948.94 817.045 C 941.188 817.783 917.958 820.663 910.804 819.759 L 908.928 820.573 C 896.346 821.316 882.649 821.881 870.191 823.03 L 869.484 822.875 L 869.509 820.082 L 869.743 819.416 C 866.325 809.87 868.518 714.616 868.729 699.669 C 868.143 697.157 868.158 685.227 868.659 682.311 C 870.335 640.945 866.293 597.542 867.63 556.272 C 869.655 493.828 869.832 430.988 869.394 368.483 C 870.902 365.77 872.15 365.771 875.258 364.048 L 870.158 356.378 L 874.205 354.996 z"/>
<path transform="translate(0,0)" fill="rgb(4,1,3)" d="M 874.205 354.996 C 886.051 372.581 895.962 391.126 907.55 408.652 C 942.83 462.012 975.828 516.788 1010.79 570.305 C 1017.17 580.079 1021.86 590.227 1028.83 599.933 L 1031.11 603.271 L 1079.55 679.746 C 1092.53 700.237 1108.56 722.802 1117.57 745.472 C 1121.72 755.903 1110.2 784.298 1117.48 788.083 C 1121.65 786.693 1125.18 781.118 1127.09 777.349 C 1137.28 757.272 1137.56 635.517 1138.71 606.991 C 1138.83 610.778 1138.57 622.534 1139.67 624.648 L 1142.81 623.248 C 1144.32 627.924 1144.2 628.888 1143.74 633.837 C 1144.03 637.467 1145.1 646.81 1145.1 649.751 C 1145.49 657.314 1145.9 667.519 1147.04 674.821 C 1148.79 686.11 1151.08 688.441 1151.05 700.325 L 1150.8 703.552 C 1151.31 736.105 1153.43 771.033 1154.45 803.946 C 1151.31 804.984 1151.67 804.371 1149.69 806.501 C 1144.06 807.584 1128.75 806.5 1121.56 806.786 C 1119.59 808.014 1119.97 807.596 1117.21 807.556 C 1117.18 802.08 1117.04 799.593 1118.32 794.184 L 1114.76 793.399 C 1113.39 791.405 1111.45 788.393 1110.02 786.565 C 1093.09 805.121 1085.83 807.162 1061 808.292 C 1045.62 808.843 1030.24 809.584 1014.88 810.513 L 1013.03 810.88 C 992.339 811.534 969.615 815.076 948.94 817.045 C 941.188 817.783 917.958 820.663 910.804 819.759 L 908.928 820.573 C 896.346 821.316 882.649 821.881 870.191 823.03 L 869.484 822.875 L 869.509 820.082 L 869.743 819.416 L 905.208 815.813 C 907.924 816.431 909.074 815.483 911.642 814.227 C 910.53 802.38 911.099 780.384 910.989 767.701 C 910.827 766.544 910.973 765.229 911.033 764.033 C 913.953 762.066 916.108 762.498 920.024 762.141 C 948.981 761.973 984.254 761.324 1012.13 768.807 C 1013.96 764.475 1014.5 744.34 1016.2 737.492 C 1019.53 724.125 1033.16 714.427 1044.46 707.724 L 1047.9 705.707 C 1065.16 701.494 1077.08 702.426 1093.58 708.141 C 1070.13 669.651 1044.36 631.027 1019.56 593.375 C 1014.43 585.586 1009.89 576.35 1004.84 568.286 L 955.536 491.041 L 904.985 410.846 C 895.08 395.013 886.008 379.347 875.258 364.048 L 870.158 356.378 L 874.205 354.996 z"/>
<path transform="translate(0,0)" fill="rgb(252,247,250)" d="M 910.989 767.701 C 927.316 767.85 1003.56 767.392 1014.49 774.009 C 1014.69 785.222 1035.41 800.132 1044.52 805.337 C 1015.98 806.722 987.465 808.513 958.977 810.71 C 948.304 811.571 921.376 814.713 911.642 814.227 C 910.53 802.38 911.099 780.384 910.989 767.701 z"/>
<path transform="translate(0,0)" fill="url(#Gradient3)" d="M 1150.8 703.552 C 1151.31 736.105 1153.43 771.033 1154.45 803.946 C 1151.31 804.984 1151.67 804.371 1149.69 806.501 C 1144.06 807.584 1128.75 806.5 1121.56 806.786 C 1119.59 808.014 1119.97 807.596 1117.21 807.556 C 1117.18 802.08 1117.04 799.593 1118.32 794.184 C 1144.85 777.996 1138.51 731.504 1139.63 703.395 L 1150.8 703.552 z"/>
<path transform="translate(0,0)" fill="rgb(192,181,192)" d="M 1121.56 806.786 C 1124.76 803.916 1146.67 803.705 1149.69 806.501 C 1144.06 807.584 1128.75 806.5 1121.56 806.786 z"/>
<path transform="translate(0,0)" fill="url(#Gradient2)" d="M 1145.1 649.751 C 1145.49 657.314 1145.9 667.519 1147.04 674.821 C 1148.79 686.11 1151.08 688.441 1151.05 700.325 L 1150.8 703.552 L 1139.63 703.395 C 1139.72 687.205 1140.41 670.2 1140.83 653.954 C 1142.34 654.427 1141.53 654.313 1143.36 653.676 L 1145.1 649.751 z"/>
<path transform="translate(0,0)" fill="rgb(130,123,128)" d="M 1140.83 653.954 C 1140.62 648.152 1139.47 637.945 1143.74 633.837 C 1144.03 637.467 1145.1 646.81 1145.1 649.751 L 1143.36 653.676 C 1141.53 654.313 1142.34 654.427 1140.83 653.954 z"/>
<path transform="translate(0,0)" fill="rgb(252,247,250)" d="M 1017.26 769.188 C 1016.5 751.284 1015.7 739.678 1028.22 724.936 C 1045.05 705.106 1078.1 702.162 1097.86 718.715 C 1114.2 732.402 1117.05 761.662 1111.06 780.921 C 1101.88 771.006 1104.2 757.447 1087.71 741.467 C 1082.56 745.571 1077.22 751.972 1072.75 757.011 C 1057.56 724.624 1052.1 729.936 1033.82 757.965 C 1029.26 764.952 1025.4 767.884 1017.26 769.188 z"/>
<path transform="translate(0,0)" fill="rgb(254,253,254)" d="M 1055.69 739.443 C 1060.38 746.544 1069.24 761.261 1073.66 767.064 C 1080.44 760.157 1084.18 754.61 1089.67 746.645 C 1095.26 762.045 1097.64 769.927 1106.3 783.887 C 1105.49 784.871 1104.64 785.826 1103.76 786.749 C 1082.51 809.168 1053.59 812.944 1030.66 790.476 C 1027.57 787.448 1018.28 779.613 1018.18 775.481 C 1039.54 768.8 1040.3 755.102 1055.69 739.443 z"/>
<path transform="translate(0,0)" fill="rgb(252,247,250)" d="M 911.033 702.759 C 940.22 703.39 985.597 703.714 1014.4 702.305 C 1014.46 703.592 1014.82 712.889 1014.53 713.478 L 1014.27 709.943 L 1016.72 710.283 C 1022.43 699.464 1036.7 701.373 1044.46 707.724 C 1033.16 714.427 1019.53 724.125 1016.2 737.492 C 1014.5 744.34 1013.96 764.475 1012.13 768.807 C 984.254 761.324 948.981 761.973 920.024 762.141 C 915.379 761.778 914.711 762.449 911.305 760.208 C 909.519 750.614 911.07 714.788 911.033 702.759 z"/>
<path transform="translate(0,0)" fill="rgb(192,181,192)" d="M 905.208 815.813 C 911.513 812.457 908.604 803.396 908.997 796.465 C 910.551 769.063 904.81 497.862 908.898 492.913 C 919.452 493.557 947.666 493.288 954.454 495.687 L 953.472 496.697 C 946.916 498.115 918.735 497.269 910.839 497.172 C 911.789 529.495 911.084 564.771 910.49 597.127 C 930.173 597.224 949.856 597.195 969.539 597.038 C 984.796 596.768 998.194 595.787 1013.59 596.204 C 1017.77 614.447 1015.3 636.213 1015.17 655.101 C 1015.09 665.155 1015.56 687.464 1013.84 696.562 C 1010.89 666.243 1015.58 631.743 1012.19 599.013 C 997.579 597.262 981.763 598.517 966.944 598.791 C 948.19 598.954 929.434 599.017 910.679 598.98 C 911.607 632.369 911.057 667.379 910.985 700.894 C 949.314 700.923 1006.14 699.294 1042.18 702.717 C 1044.28 704.492 1045.01 705.512 1047.9 705.707 L 1044.46 707.724 C 1036.7 701.373 1022.43 699.464 1016.72 710.283 L 1014.27 709.943 L 1014.53 713.478 C 1014.82 712.889 1014.46 703.592 1014.4 702.305 C 985.597 703.714 940.22 703.39 911.033 702.759 C 911.07 714.788 909.519 750.614 911.305 760.208 C 914.711 762.449 915.379 761.778 920.024 762.141 C 916.108 762.498 913.953 762.066 911.033 764.033 C 910.973 765.229 910.827 766.544 910.989 767.701 C 911.099 780.384 910.53 802.38 911.642 814.227 C 909.074 815.483 907.924 816.431 905.208 815.813 z"/>
<path transform="translate(0,0)" fill="rgb(236,213,241)" d="M 868.659 682.311 C 874.401 684.141 888.104 679.345 891.907 688.401 C 889.217 695.686 876.459 696.582 869.61 697.422 L 868.729 699.669 C 868.143 697.157 868.158 685.227 868.659 682.311 z"/>
<path transform="translate(0,0)" fill="rgb(252,247,250)" d="M 1114.1 492.073 L 1116.59 491.259 L 1117.57 492.413 C 1117.85 494.189 1118.14 495.962 1118.44 497.734 C 1147.03 499.774 1188.03 497.368 1217.69 497.96 C 1218.46 528.399 1218.78 565.73 1217.97 596.195 L 1218.01 596.676 L 1222.52 596.619 L 1222.58 598.439 C 1220.44 625.331 1223.84 653.993 1222.43 681.061 C 1222.1 687.417 1222.06 693.846 1221.95 700.214 L 1218.28 699.833 L 1217.43 699.943 C 1208.86 700.994 1161.54 699.359 1158.34 702.098 C 1177.29 702.346 1199.18 702.507 1218.11 701.961 C 1218.11 710.983 1217.35 750.452 1220.73 756.811 C 1223.16 751.678 1222.05 711.364 1222.2 702.575 L 1285.34 702.786 C 1295.56 702.811 1311.69 703.315 1321.16 702.224 C 1320.72 709.777 1319.61 761.839 1321.78 765.361 C 1323.95 752.852 1323.03 717.417 1322.95 702.986 C 1344.96 703.066 1366.98 702.977 1389 702.719 C 1399.41 702.609 1415.82 701.737 1425.69 702.787 C 1425.9 714.263 1425.01 773.383 1426.75 779.859 C 1428.75 781.283 1428.17 780.446 1428.7 783.251 L 1427.4 786.538 C 1426.22 786.749 1426.04 786.799 1424.85 786.759 C 1407.07 786.332 1376.61 787.051 1359.83 785.109 C 1353.42 785.57 1339.98 785.003 1333.03 784.932 C 1329.93 784.352 1324.54 784.016 1321.23 783.708 C 1316.66 777.817 1305.37 769.423 1299.27 763.295 C 1287.11 751.087 1278.85 716.467 1258.34 736.238 C 1241.41 752.561 1234.24 775.072 1215.49 788.963 C 1207.57 794.601 1186.85 788.66 1177.67 786.43 C 1164.39 806.218 1163.73 829.935 1161.58 852.806 C 1161.39 854.72 1160.68 855.366 1159.34 856.496 C 1154.44 850.963 1154.77 813.675 1154.45 803.946 C 1153.43 771.033 1151.31 736.105 1150.8 703.552 L 1151.05 700.325 C 1151.08 688.441 1148.79 686.11 1147.04 674.821 C 1145.9 667.519 1145.49 657.314 1145.1 649.751 C 1145.1 646.81 1144.03 637.467 1143.74 633.837 C 1144.2 628.888 1144.32 627.924 1142.81 623.248 L 1139.67 624.648 C 1138.57 622.534 1138.83 610.778 1138.71 606.991 C 1137.56 635.517 1137.28 757.272 1127.09 777.349 C 1125.18 781.118 1121.65 786.693 1117.48 788.083 C 1110.2 784.298 1121.72 755.903 1117.57 745.472 C 1108.56 722.802 1092.53 700.237 1079.55 679.746 L 1031.11 603.271 L 1028.83 599.933 C 1034.16 596.49 1103.55 596.371 1114.46 597.549 C 1114.49 570.806 1115.86 523.851 1113.67 497.942 L 1114.1 492.073 z"/>
<path transform="translate(0,0)" fill="rgb(4,1,3)" d="M 1151.05 700.325 C 1152.94 697.452 1151.41 684.849 1152.75 678.719 L 1153.64 678.556 L 1154.95 682.625 L 1157.26 751.466 C 1157.88 769.796 1158.28 790.791 1160.49 808.884 C 1173.55 770.82 1176.45 785.483 1207.83 786.984 C 1235.64 769.911 1241.13 729.458 1273.3 722.991 C 1292.99 737.768 1299.99 760.121 1318.49 772.571 C 1327.11 778.376 1369.84 777.491 1382.54 778.136 C 1397.29 778.503 1412.03 779.078 1426.75 779.859 C 1428.75 781.283 1428.17 780.446 1428.7 783.251 L 1427.4 786.538 C 1426.22 786.749 1426.04 786.799 1424.85 786.759 C 1407.07 786.332 1376.61 787.051 1359.83 785.109 C 1353.42 785.57 1339.98 785.003 1333.03 784.932 C 1329.93 784.352 1324.54 784.016 1321.23 783.708 C 1316.66 777.817 1305.37 769.423 1299.27 763.295 C 1287.11 751.087 1278.85 716.467 1258.34 736.238 C 1241.41 752.561 1234.24 775.072 1215.49 788.963 C 1207.57 794.601 1186.85 788.66 1177.67 786.43 C 1164.39 806.218 1163.73 829.935 1161.58 852.806 C 1161.39 854.72 1160.68 855.366 1159.34 856.496 C 1154.44 850.963 1154.77 813.675 1154.45 803.946 C 1153.43 771.033 1151.31 736.105 1150.8 703.552 L 1151.05 700.325 z"/>
<path transform="translate(0,0)" fill="rgb(33,11,26)" d="M 1382.54 778.136 C 1397.29 778.503 1412.03 779.078 1426.75 779.859 C 1428.75 781.283 1428.17 780.446 1428.7 783.251 L 1427.4 786.538 C 1426.22 786.749 1426.04 786.799 1424.85 786.759 C 1407.07 786.332 1376.61 787.051 1359.83 785.109 C 1365.77 784.043 1373.14 785.185 1379 784.135 C 1380.29 783.906 1384.99 781.733 1387.38 781.016 C 1393.79 783.299 1399.28 784.528 1406.08 784.437 C 1408.12 782.61 1409.22 782.254 1411.84 781.501 C 1405.18 781.604 1388.33 780.902 1382.54 778.136 z"/>
<path transform="translate(0,0)" fill="rgb(47,44,46)" d="M 1138.71 606.991 C 1138.76 597.53 1137.05 572.294 1146.45 568.45 L 1148.39 569.151 C 1151.66 578.429 1155.33 667.041 1154.95 682.625 L 1153.64 678.556 L 1152.75 678.719 C 1151.41 684.849 1152.94 697.452 1151.05 700.325 C 1151.08 688.441 1148.79 686.11 1147.04 674.821 C 1145.9 667.519 1145.49 657.314 1145.1 649.751 C 1145.1 646.81 1144.03 637.467 1143.74 633.837 C 1144.2 628.888 1144.32 627.924 1142.81 623.248 L 1139.67 624.648 C 1138.57 622.534 1138.83 610.778 1138.71 606.991 z"/>
<path transform="translate(0,0)" fill="rgb(192,181,192)" d="M 1114.1 492.073 L 1116.59 491.259 L 1117.57 492.413 C 1117.85 494.189 1118.14 495.962 1118.44 497.734 C 1117.89 505.445 1117.86 513.551 1117.95 521.301 C 1118.24 546.281 1117.38 571.543 1118 596.497 C 1122.03 596.267 1129.35 595.639 1133.12 595.953 L 1133.92 596.873 L 1134.56 596.118 L 1135.44 596.531 L 1133.59 597.091 L 1133.21 596.157 C 1131.15 598.273 1123.97 597.83 1120.38 597.874 L 1118.07 597.896 L 1117.7 676.313 C 1117.68 681.734 1118.4 699.751 1117.45 703.317 L 1116.36 704.342 L 1114.58 703.697 C 1113.01 695.839 1114.63 682.784 1114.45 675.911 C 1114.13 663.437 1116.51 606.927 1113 598.991 C 1105.88 596.91 1037.78 598.499 1032.14 601.307 L 1031.11 603.271 L 1028.83 599.933 C 1034.16 596.49 1103.55 596.371 1114.46 597.549 C 1114.49 570.806 1115.86 523.851 1113.67 497.942 L 1114.1 492.073 z"/>
<path transform="translate(0,0)" fill="rgb(192,181,192)" d="M 1218.01 596.676 L 1222.52 596.619 L 1222.58 598.439 C 1220.44 625.331 1223.84 653.993 1222.43 681.061 C 1222.1 687.417 1222.06 693.846 1221.95 700.214 L 1218.28 699.833 C 1217.72 691.74 1218.2 675.892 1218.19 667.188 C 1218.22 644.183 1218.1 621.178 1217.82 598.175 L 1218.01 596.676 z"/>
<path transform="translate(0,0)" fill="rgb(192,181,192)" d="M 1217.82 598.175 C 1201.91 598.361 1168.13 601.099 1155.18 597.341 L 1155.7 596.673 C 1174.49 595.588 1198.78 596.231 1217.97 596.195 L 1218.01 596.676 L 1217.82 598.175 z"/>
<path transform="translate(0,0)" fill="rgb(252,247,250)" d="M 1333.03 784.932 C 1339.98 785.003 1353.42 785.57 1359.83 785.109 C 1376.61 787.051 1407.07 786.332 1424.85 786.759 C 1426.59 789.678 1425.73 994.375 1425.65 1015.07 C 1401.61 1012.38 1348.56 1013.85 1322.44 1013.87 C 1323.49 1002.53 1323.16 985.148 1323.15 973.48 C 1323.18 952.624 1323.07 931.768 1322.81 910.914 C 1340.87 912.071 1360.97 910.429 1379.25 911.015 C 1393.17 911.461 1408.56 911.059 1422.51 910.378 C 1415.55 908.565 1337.01 909.853 1322.83 909.341 C 1323.35 876.69 1323.71 839.413 1322.94 806.859 C 1336.85 807.81 1411.09 808.091 1422.53 806.069 C 1411.51 805.177 1399.33 805.835 1388.17 805.806 C 1366.5 805.752 1344.75 806.227 1323.1 805.263 C 1323.11 799.457 1322.12 791.433 1324.54 786.923 C 1327.99 784.303 1327.83 785.152 1333.03 784.932 z"/>
<path transform="translate(0,0)" fill="rgb(252,247,250)" d="M 1177.67 786.43 C 1186.85 788.66 1207.57 794.601 1215.49 788.963 C 1234.24 775.072 1241.41 752.561 1258.34 736.238 C 1278.85 716.467 1287.11 751.087 1299.27 763.295 C 1305.37 769.423 1316.66 777.817 1321.23 783.708 C 1320.55 790.936 1320.96 798.968 1321.16 806.289 C 1296.27 804.429 1249.45 806.27 1222.57 805.037 C 1222.11 804.609 1221.64 804.181 1221.17 803.753 C 1220.54 800.357 1220.43 798.918 1220.32 795.479 L 1219.24 794.971 C 1218.01 802.069 1218.63 820.836 1218.53 828.978 C 1218.12 855.815 1218 882.655 1218.17 909.494 C 1197.78 909.423 1177.39 909.467 1157.01 909.626 C 1144.71 909.739 1129.97 910.551 1118 909.314 C 1118.06 875.393 1117.8 841.472 1117.21 807.556 C 1119.97 807.596 1119.59 808.014 1121.56 806.786 C 1128.75 806.5 1144.06 807.584 1149.69 806.501 C 1151.67 804.371 1151.31 804.984 1154.45 803.946 C 1154.77 813.675 1154.44 850.963 1159.34 856.496 C 1160.68 855.366 1161.39 854.72 1161.58 852.806 C 1163.73 829.935 1164.39 806.218 1177.67 786.43 z"/>
<path transform="translate(0,0)" fill="rgb(252,247,250)" d="M 1110.02 786.565 C 1111.45 788.393 1113.39 791.405 1114.76 793.399 C 1113.32 801.865 1113.71 831.532 1114 842.033 C 1114.57 862.812 1113.16 889.838 1114.64 909.94 C 1093.26 909.237 1072.84 909.482 1051.5 909.677 C 1041.46 909.769 1024.27 910.324 1014.8 909.173 L 1015.17 888.568 C 1014.62 863.506 1015.17 838.847 1015.48 813.801 L 1014.88 810.513 C 1030.24 809.584 1045.62 808.843 1061 808.292 C 1085.83 807.162 1093.09 805.121 1110.02 786.565 z"/>
<path transform="translate(0,0)" fill="rgb(247,235,243)" d="M 1015.48 813.801 C 1017.87 820.303 1015.31 856.354 1016.35 866.184 C 1022.87 865.823 1031.53 864.678 1037.04 868.537 L 1036.61 869.848 C 1029.15 872.517 1023.85 871.01 1015.95 870.56 C 1016.14 877.212 1016.64 882.072 1015.17 888.568 C 1014.62 863.506 1015.17 838.847 1015.48 813.801 z"/>
<path transform="translate(0,0)" fill="rgb(252,247,250)" d="M 1222.58 598.439 L 1286.41 598.715 C 1296.98 598.765 1311.27 599.32 1321.5 598.553 C 1320.25 615.002 1321.13 638.169 1320.95 655.121 C 1320.83 666.54 1320.41 691.41 1321.63 701.686 C 1306.22 700.339 1229.41 702.916 1221.95 700.214 C 1222.06 693.846 1222.1 687.417 1222.43 681.061 C 1223.84 653.993 1220.44 625.331 1222.58 598.439 z"/>
<path transform="translate(0,0)" fill="rgb(252,247,250)" d="M 1324.31 498.202 C 1335.37 498.444 1420.83 498.245 1424.74 499.592 L 1425.88 502.194 L 1425.85 597.027 C 1414.68 596.387 1400.96 596.96 1389.5 596.997 L 1322.8 597.05 L 1323.58 498.883 L 1324.31 498.202 z"/>
<path transform="translate(0,0)" fill="rgb(247,235,243)" d="M 1347.08 508.792 C 1349.88 510.853 1350.55 515.548 1348.82 518.586 C 1347.53 520.846 1346.02 520.493 1343.59 520.944 C 1341.56 520.089 1340.89 519.686 1339.04 518.473 C 1339.66 515.858 1344.62 511.613 1347.08 508.792 z"/>
<path transform="translate(0,0)" fill="rgb(247,235,243)" d="M 1384.5 536.069 C 1389.08 536.824 1394.82 536.959 1399.49 537.107 L 1400.72 538.507 C 1396.36 539.065 1389.61 539.618 1385.42 538.678 L 1384.5 536.069 z"/>
<path transform="translate(0,0)" fill="rgb(252,247,250)" d="M 1223.02 498.139 L 1286.47 497.849 C 1294.74 497.824 1313.66 497.387 1321.09 498.526 C 1320.69 525.807 1318.81 571.778 1321.25 597.49 C 1293.26 595.898 1264.53 596.26 1236.52 596.912 C 1231.79 597.022 1227.25 597.024 1222.52 596.619 C 1219.8 586.87 1222.57 513.138 1223.02 498.139 z"/>
<path transform="translate(0,0)" fill="rgb(252,247,250)" d="M 910.804 819.759 C 917.958 820.663 941.188 817.783 948.94 817.045 C 969.615 815.076 992.339 811.534 1013.03 810.88 C 1012.21 838.27 1013.91 866.316 1013.05 893.78 C 1012.89 898.833 1013 904.215 1013.26 909.256 C 1008.16 909.585 1003.09 909.694 997.983 909.625 C 968.98 909.234 939.774 909.924 910.792 909.124 C 910.817 884.627 912.293 842.893 910.804 819.759 z"/>
<path transform="translate(0,0)" fill="rgb(247,235,243)" d="M 936.577 865.642 C 941.411 865.108 947.461 863.589 951.217 866.872 C 951.292 869.952 951.785 870.358 950.418 872.827 C 945.974 871.311 943.843 870.413 939.15 870.494 L 938.24 870.519 C 933.73 872.647 931.206 876.269 927.093 876.716 L 926.206 875.066 C 927.537 867.857 929.28 865.819 936.577 865.642 z"/>
<path transform="translate(0,0)" fill="rgb(247,235,243)" d="M 1014.36 1024 C 1014.64 1019.51 1013.9 1019.07 1016.21 1016.17 C 1026.07 1014.98 1058.09 1015.66 1069.31 1015.68 C 1103.93 1015.96 1138.55 1015.93 1173.16 1015.6 C 1178.76 1015.57 1215.76 1014.91 1218.46 1016.66 C 1219.37 1019.59 1219.18 1021.01 1219.07 1024 L 1014.36 1024 z"/>
<path transform="translate(0,0)" fill="rgb(247,235,243)" d="M 1220.34 1024 C 1220.56 1021.19 1220.52 1018.96 1221.87 1016.45 C 1234.07 1014.22 1418.27 1015.64 1423.8 1017.26 C 1425.7 1017.82 1426.69 1020.57 1427.67 1022.23 L 1427.16 1024 L 1220.34 1024 z"/>
<path transform="translate(0,0)" fill="rgb(247,235,243)" d="M 910.051 1024 C 910.105 1021.06 909.708 1018.28 911.434 1016.16 C 913.374 1015.98 919.045 1015.71 920.696 1015.84 C 932.301 1016.77 1009.74 1014.14 1013.77 1017.05 C 1014.4 1019.79 1013.69 1021.28 1012.91 1024 L 910.051 1024 z"/>
<path transform="translate(0,0)" fill="rgb(252,247,250)" d="M 1425.59 598.718 C 1426.18 602.022 1425.86 626.879 1425.84 632.001 L 1425.89 701.325 C 1415.54 700.171 1401.95 700.805 1391.27 700.885 L 1341.25 700.961 L 1322.48 700.916 C 1324.13 673.444 1323.44 626.773 1322.67 598.938 C 1349.58 599.835 1385.93 599.178 1412.76 598.451 C 1415.11 598.122 1422.84 598.606 1425.59 598.718 z"/>
<path transform="translate(0,0)" fill="rgb(252,247,250)" d="M 910.97 910.958 C 942.619 911.15 982.123 912.408 1013.23 910.786 C 1012.31 928.034 1013.3 949.158 1012.96 966.876 C 1012.8 975.615 1012.56 1005.73 1014.08 1013.3 C 1005.55 1014.28 986.542 1013.85 977.47 1013.86 L 910.439 1013.95 C 911.745 980.645 911.113 944.352 910.97 910.958 z"/>
<path transform="translate(0,0)" fill="rgb(252,247,250)" d="M 1118.13 910.889 C 1151.06 911.411 1185.01 911.017 1218.02 910.87 C 1218.01 921.85 1218.71 1011.92 1217.67 1013.52 C 1184.58 1014.23 1150.38 1013.89 1117.26 1013.83 C 1117.96 979.521 1118.25 945.205 1118.13 910.889 z"/>
<path transform="translate(0,0)" fill="rgb(252,247,250)" d="M 1222.21 910.812 C 1249.35 911.817 1294.39 911.703 1321.39 910.57 C 1320.86 917.937 1320.96 926.094 1321.05 933.545 C 1321.33 960.242 1320.48 987.225 1321.43 1013.89 C 1291.14 1012.77 1252.51 1013.83 1221.76 1013.85 C 1222.69 980.277 1222.16 944.548 1222.21 910.812 z"/>
<path transform="translate(0,0)" fill="rgb(252,247,250)" d="M 1014.99 910.96 C 1021.18 912.263 1049.57 911.514 1056.74 911.391 C 1075.85 911.101 1094.97 910.965 1114.08 910.983 C 1113.79 944.295 1113.73 980.408 1114.4 1013.65 C 1081.18 1013.91 1047.97 1013.92 1014.75 1013.68 C 1015.74 1000.29 1015.17 985.375 1015.1 971.903 L 1014.99 910.96 z"/>
<path transform="translate(0,0)" fill="rgb(252,247,250)" d="M 1221.98 806.405 C 1225.04 806.782 1228.49 806.86 1231.57 806.862 C 1261.34 806.883 1291.64 807.772 1321.35 806.607 C 1320.58 817.34 1321 832.898 1321 844.13 L 1321.18 910.042 C 1311.52 907.4 1237.2 909.46 1222.05 909.493 C 1222.23 875.13 1222.2 840.767 1221.98 806.405 z"/>
<path transform="translate(0,0)" fill="rgb(237,144,207)" d="M 39.2317 16.0459 C 48.2711 14.748 56.7827 14.9263 65.8782 14.9021 C 66.6185 21.302 66.8727 26.5797 67.1264 33.0069 C 96.6586 33.6161 126.198 33.7669 155.735 33.459 C 171.758 33.3281 196.922 32.2554 212.15 33.893 L 215.212 33.1807 C 225.637 34.8471 257.181 33.6047 269.678 33.7591 C 307.316 34.2239 345.605 32.7787 383.147 32.8633 L 840.792 33.0091 C 840.722 27.3992 840.505 21.2164 840.822 15.6599 C 860.304 14.1499 867.56 9.5937 869.653 32.385 C 876.625 33.2738 882.963 34.0394 889.972 34.5391 C 890.278 43.7813 890.816 53.8371 890.825 63.0196 C 883.55 63.0226 875.871 63.159 868.636 63.0041 C 868.356 104.553 868.203 150.341 869.135 191.732 C 869.008 200.103 868.783 208.654 868.986 217.008 C 869.022 242.127 869.133 267.611 868.135 292.705 C 867.78 301.624 869.443 333.771 865.166 338.689 C 868.317 344.173 871.286 349.381 874.205 354.996 L 870.158 356.378 L 875.258 364.048 C 872.15 365.771 870.902 365.77 869.394 368.483 C 869.832 430.988 869.655 493.828 867.63 556.272 C 866.293 597.542 870.335 640.945 868.659 682.311 C 868.158 685.227 868.143 697.157 868.729 699.669 C 868.518 714.616 866.325 809.87 869.743 819.416 L 869.509 820.082 L 869.484 822.875 C 859.762 823.958 850.002 824.66 840.226 824.982 L 835.867 824.852 L 834.833 822.176 L 839.976 821.557 C 841.301 817.698 839.451 603.748 838.172 596.469 C 835.614 593.006 836.09 593.936 831.752 591.936 C 832.543 588.532 835.912 580.264 837.34 576.604 C 863.778 508.867 862.972 435.715 851.767 364.883 C 848.851 346.443 831.239 308.856 832.258 292.026 C 826.158 279.358 817.657 268.299 810.99 256.089 C 767.408 176.277 693.123 102.594 605.784 71.9895 C 526.783 38.767 439.18 31.884 355.96 52.3608 C 336.161 57.4142 322.243 63.1923 303.198 70.6946 C 203.603 107.281 114.463 195.776 77.1111 295.281 C 59.8137 339.999 47.9207 381.239 45.6301 429.552 C 45.5354 431.55 45.4302 434.194 45.1309 436.119 C 44.7092 432.446 45.2989 427.876 44.6094 424.309 C 38.9275 394.918 39.9295 364.771 39.8309 334.805 L 39.8266 234.846 C 39.8892 179.959 38.394 118.094 40.0321 64.0244 C 35.6888 64.1887 27.8363 64.2256 23.8597 62.7895 C 17.1842 60.3789 16.1646 42.6758 18.2982 37.1052 C 20.9972 34.856 35.7315 32.4276 39.8687 31.6033 C 39.9411 26.8322 39.4776 20.9 39.2317 16.0459 z"/>
<path transform="translate(0,0)" fill="rgb(252,247,250)" d="M 67.1723 62.8621 C 143.197 63.8946 220.966 61.291 296.967 64.796 C 299.855 64.9291 301.836 68.4492 303.198 70.6946 C 203.603 107.281 114.463 195.776 77.1111 295.281 C 75.6687 294.29 70.9406 292.511 69.0038 291.731 C 63.4668 281.753 66.5055 88.4706 67.1723 62.8621 z"/>
<path transform="translate(0,0)" fill="rgb(254,253,254)" d="M 605.784 71.9895 C 620.336 59.9755 675.184 63.5424 695.249 63.1423 C 743.206 62.1859 791.924 64.4705 839.852 62.6257 C 839.951 87.8523 841.567 284.346 837.427 292.849 L 835.595 293.752 C 834.675 293.292 833.056 292.553 832.258 292.026 C 826.158 279.358 817.657 268.299 810.99 256.089 C 767.408 176.277 693.123 102.594 605.784 71.9895 z"/>
<path transform="translate(0,0)" fill="rgb(83,9,56)" d="M 870.158 356.378 C 861.892 346.612 835.694 303.538 833.573 291.754 C 844.972 307.002 854.112 323.463 865.166 338.689 C 868.317 344.173 871.286 349.381 874.205 354.996 L 870.158 356.378 z"/>
<path transform="translate(0,0)" fill="rgb(83,9,56)" d="M 839.976 821.557 C 847.844 821.9 861.62 820.76 869.509 820.082 L 869.484 822.875 C 859.762 823.958 850.002 824.66 840.226 824.982 L 835.867 824.852 L 834.833 822.176 L 839.976 821.557 z"/>
<path transform="translate(0,0)" fill="rgb(237,144,207)" d="M 45.1091 462.688 C 47.6922 504.186 59.1477 553.573 74.4372 592.129 C 112.229 693.075 189.192 774.476 287.863 817.862 C 293.918 820.528 299.992 823.151 306.084 825.73 C 323.06 832.119 342.06 839.709 360.013 842.401 C 378.9 845.232 399.194 851.334 417.849 853.485 C 450.635 857.265 485.815 854.237 518.503 850.496 C 528.421 849.232 550.798 846.062 559.884 843.61 C 562.577 841.771 564.58 839.997 567.74 839.536 C 572.658 842.009 591.065 839.203 597.603 839.132 C 660.103 838.462 721.772 827.708 784.195 825.108 C 800.84 824.415 818.215 821.937 834.833 822.176 L 835.867 824.852 L 840.226 824.982 C 850.002 824.66 859.762 823.958 869.484 822.875 L 870.191 823.03 C 869.682 828.667 870.22 830.997 871.139 836.489 C 878.547 837.849 882.473 837.887 890.042 838.023 L 889.973 864.094 C 882.808 863.663 878.007 863.164 870.876 864.212 C 869.237 888.005 863.033 884.125 841.364 884.138 C 839.73 877.688 839.492 870.68 839.351 864.064 C 693.597 865.432 547.832 865.129 402.085 863.156 C 360.161 862.935 316.067 864.483 274 864.789 C 204.718 865.135 135.435 864.872 66.1583 864 C 67.0916 885.681 63.6559 884.076 42.9936 883.915 C 35.3692 859.474 42.6439 868.017 19.0491 862.352 C 18.4955 853.267 18.647 847.305 19.2649 838.269 C 26.1454 837.793 32.0748 838.102 38.9589 838.371 C 40.3541 795.713 39.6442 754.038 39.1658 711.366 C 40.1469 703.763 39.7003 693.822 39.3983 686.197 C 41.5468 608.582 37.9312 542.145 45.1091 462.688 z"/>
<path transform="translate(0,0)" fill="rgb(252,247,250)" d="M 74.4372 592.129 C 112.229 693.075 189.192 774.476 287.863 817.862 C 293.918 820.528 299.992 823.151 306.084 825.73 C 308.163 830.266 309.225 829.476 308.325 832.986 C 298.67 839.803 278.677 837.836 266.51 837.895 C 246.286 838.046 226.061 837.946 205.839 837.593 C 159.344 837.047 112.844 837.15 66.3519 837.901 C 64.6735 776.772 67.8006 715.832 66.5317 654.746 C 66.1377 635.78 66.8246 617.04 67.2682 598.092 C 71.0718 595.862 71.5625 595.469 74.4372 592.129 z"/>
<path transform="translate(0,0)" fill="rgb(33,11,26)" d="M 567.74 839.536 C 572.658 842.009 591.065 839.203 597.603 839.132 C 660.103 838.462 721.772 827.708 784.195 825.108 C 800.84 824.415 818.215 821.937 834.833 822.176 L 835.867 824.852 C 811.967 826.186 783.385 827.81 759.807 831.191 C 746.25 830.932 726.176 835.137 712.2 836.051 C 677.338 838.329 642.569 841.022 607.63 841.97 C 592.375 842.384 574.649 845.459 559.884 843.61 C 562.577 841.771 564.58 839.997 567.74 839.536 z"/>
<path transform="translate(0,0)" fill="rgb(236,213,241)" d="M 835.867 824.852 L 840.226 824.982 L 840.274 838.216 C 828.679 838.202 768.174 839.838 763.169 838.2 C 768.923 837.358 772.433 836.145 777.846 838.079 C 778.531 836.676 778.751 836.558 778.57 834.992 C 775.343 830.134 765.579 832.347 760.15 832.907 C 759.531 831.679 759.505 832.246 759.807 831.191 C 783.385 827.81 811.967 826.186 835.867 824.852 z"/>
<path transform="translate(0,0)" fill="rgb(192,181,192)" d="M 1117.57 492.413 C 1126.17 494.23 1147.52 493.396 1157.02 493.278 L 1221.54 492.461 C 1234.71 492.34 1316.6 495.154 1322.43 491.112 L 1324.54 492.383 L 1324.31 498.202 L 1323.58 498.883 L 1321.09 498.526 C 1313.66 497.387 1294.74 497.824 1286.47 497.849 L 1223.02 498.139 C 1222.57 513.138 1219.8 586.87 1222.52 596.619 L 1218.01 596.676 L 1217.97 596.195 C 1218.78 565.73 1218.46 528.399 1217.69 497.96 C 1188.03 497.368 1147.03 499.774 1118.44 497.734 C 1118.14 495.962 1117.85 494.189 1117.57 492.413 z"/>
<path transform="translate(0,0)" fill="rgb(4,1,3)" d="M 1448.17 132.553 C 1447.28 140.395 1448.66 163.182 1443.72 167.776 C 1434.57 166.263 1444.52 138.843 1437.21 128.742 C 1434.26 127.215 1432.62 126.825 1428.94 127.554 C 1411.4 131.037 1426.06 156.152 1418.75 165.509 C 1415.61 167.354 1412.89 167.96 1410.25 165.344 C 1409.81 162.197 1409.91 124.649 1410.58 121.374 C 1417.23 120.916 1423.89 120.581 1430.55 120.371 C 1443.87 120.064 1439.06 119.105 1447.51 127.153 C 1455.69 125.466 1454.48 111.766 1468 125.154 L 1468 168.592 L 1464.37 167.329 C 1457.85 157.837 1468.7 132.552 1457.8 127.859 C 1454.21 127.993 1451.22 130.495 1448.17 132.553 z"/>
<path transform="translate(0,0)" fill="rgb(226,202,206)" d="M 1324.54 492.383 C 1341.05 495.652 1433.2 488.129 1437.78 491.638 C 1438.49 495.578 1438.85 494.402 1437.28 497.608 C 1433.29 499.482 1429.7 499.105 1429.44 501.615 C 1428.74 508.362 1429.67 516.965 1428.85 523.662 C 1426.06 516.287 1428.81 504.536 1426.88 499.342 L 1425.88 502.194 L 1424.74 499.592 C 1420.83 498.245 1335.37 498.444 1324.31 498.202 L 1324.54 492.383 z"/>
<path transform="translate(0,0)" fill="rgb(192,181,192)" d="M 1114.1 492.073 L 1113.67 497.942 C 1084.72 498.043 1043.07 499.393 1014.86 497.716 L 1014.65 497.022 L 1015.55 495.637 L 1014.62 494.137 C 1011.65 493.748 1008.52 493.787 1005.52 493.747 C 1012.46 492.651 1029.75 492.911 1037.21 492.925 L 1089.55 493.074 C 1095.13 493.085 1109.32 493.516 1114.1 492.073 z"/>
<path transform="translate(0,0)" fill="rgb(192,181,192)" d="M 1013.08 497.294 C 1004.96 497.253 972.868 498.562 968.555 495.627 L 968.991 494.462 C 981.593 494.412 992.104 493.584 1005.52 493.747 C 1008.52 493.787 1011.65 493.748 1014.62 494.137 L 1015.55 495.637 L 1014.65 497.022 L 1014.86 497.716 C 1015.77 506.767 1014.21 546.81 1012.79 556.23 C 1011.98 538.255 1012.93 515.643 1013.08 497.294 z"/>
<path transform="translate(0,0)" fill="rgb(236,213,241)" d="M 869.135 191.732 L 870.149 203.136 C 876.594 203.349 888.055 202.136 889.968 209.495 C 885.651 217.413 874.098 211.042 868.986 217.008 C 868.783 208.654 869.008 200.103 869.135 191.732 z"/>
<path transform="translate(0,0)" fill="url(#Gradient1)" d="M 38.5942 694.641 C 31.0362 694.809 26.5795 695.768 19.3908 696.253 C 17.2979 693.621 16.947 689.701 19.0741 687.031 C 24.4168 684.913 33.7732 685.394 39.3983 686.197 C 39.7003 693.822 40.1469 703.763 39.1658 711.366 C 38.9262 705.793 38.7356 700.218 38.5942 694.641 z"/>
<path transform="translate(0,0)" fill="rgb(192,181,192)" d="M 212.15 33.893 C 210.895 28.2589 209.186 23.5698 211.204 18.2875 L 212.723 17.6446 C 215.716 20.7273 215.417 23.3641 215.361 27.3804 C 215.331 29.3143 215.281 31.2478 215.212 33.1807 L 212.15 33.893 z"/>
<path transform="translate(0,0)" fill="rgb(151,53,5)" d="M 1008.03 106.739 C 1009.89 109.367 1009.01 168.125 1008.98 175.658 C 987.349 176.042 963.64 176.869 942.245 175.289 L 940.671 174.805 C 938.733 170.1 939.677 115.992 939.736 106.76 L 1008.03 106.739 z"/>
<path transform="translate(0,0)" fill="rgb(51,51,171)" d="M 940.833 275.338 C 948.331 275.751 956.378 275.86 963.93 276.103 L 1009.01 275.927 C 1008.94 292.137 1009.19 309.481 1008.77 325.588 C 1009.05 331.46 1010.22 339.474 1008.12 344.521 C 1005.15 346.624 1005.12 345.851 1000.6 345.68 C 980.654 345.897 960.703 345.975 940.753 345.914 L 940.833 275.338 z"/>
<path transform="translate(0,0)" fill="rgb(85,84,157)" d="M 963.93 276.103 L 1009.01 275.927 C 1008.94 292.137 1009.19 309.481 1008.77 325.588 C 1007.2 319.295 1007.61 310.427 1007.6 303.707 L 1007.39 299.635 C 988.31 296.12 975.772 277.032 963.93 276.103 z"/>
<path transform="translate(0,0)" fill="rgb(29,11,123)" d="M 1003.78 343.507 C 1008.09 326.499 1005.08 318.77 1007.6 303.707 C 1007.61 310.427 1007.2 319.295 1008.77 325.588 C 1009.05 331.46 1010.22 339.474 1008.12 344.521 C 1005.15 346.624 1005.12 345.851 1000.6 345.68 L 993.632 344.292 L 993.974 343.708 L 1003.78 343.507 z"/>
<path transform="translate(0,0)" fill="rgb(4,1,3)" d="M 1099.4 120.144 C 1105.95 119.654 1112.22 121.677 1118.68 121.989 C 1120.22 122.063 1121.44 119.34 1125.16 120.664 C 1127.01 126.963 1126.18 165.838 1123.68 173.332 C 1118.81 187.922 1104.88 186.288 1091.86 181.956 L 1087.68 173.347 L 1088.58 170.937 C 1093.37 169.8 1108.59 179.425 1115.48 174.197 C 1118.17 172.157 1119.5 168.813 1118.31 165.754 C 1114.21 164.509 1109.28 166.525 1104.72 166.296 C 1100.28 166.073 1096.52 165.178 1092.2 164.226 C 1085.18 147.718 1083.55 131.707 1099.4 120.144 z"/>
<path transform="translate(0,0)" fill="rgb(252,247,250)" d="M 1103.01 127.9 C 1110.46 127.151 1112.22 129.011 1118.17 133.452 C 1118.22 142.394 1120.21 153.435 1111.67 158.219 C 1100.93 158.592 1094.07 155.483 1094.28 142.673 C 1094.39 135.643 1097.69 132.153 1103.01 127.9 z"/>
<path transform="translate(0,0)" fill="rgb(4,1,3)" d="M 1059.44 300.811 C 1075.86 279.796 1107.31 291.907 1100.57 313.169 L 1098.53 317.375 C 1099.86 324.396 1098.12 329.866 1091.85 333.502 C 1076.77 342.241 1065.18 330.737 1058.05 320.808 C 1057.58 312.699 1057.97 308.658 1059.44 300.811 z"/>
<path transform="translate(0,0)" fill="rgb(252,247,250)" d="M 1098.53 317.375 C 1096.55 317.659 1086.33 332.957 1078.71 330.51 C 1072.04 328.371 1065.02 323.249 1066.26 315.672 C 1071.09 311.19 1092.43 313.057 1100.57 313.169 L 1098.53 317.375 z"/>
<path transform="translate(0,0)" fill="rgb(247,235,243)" d="M 1072.38 294.287 C 1080.25 293.417 1092.3 295.149 1092.43 305.18 C 1090.27 308.209 1090.9 307.325 1087.01 308.866 C 1079.7 309.197 1074.89 310.227 1068.31 307.179 C 1064.83 301.958 1068.26 298.101 1072.38 294.287 z"/>
<path transform="translate(0,0)" fill="rgb(4,1,3)" d="M 1111.58 274.582 C 1119.61 273.631 1124.23 270.317 1130.86 274.195 L 1131.55 274.087 C 1144.49 274.225 1142.77 279.983 1142.97 290.607 C 1146.43 290.395 1149.62 289.686 1152.33 291.47 L 1152.67 293.42 C 1150.53 295.551 1146.57 295.302 1143.18 295.561 C 1142.1 296.889 1142.48 296.892 1142.26 298.322 C 1141.62 302.55 1142.26 308.539 1141.92 312.48 C 1140.15 332.765 1146.25 324.361 1153.32 332.614 C 1153.24 339.143 1137.05 339.189 1136.14 326.097 C 1135.41 315.684 1136.09 305.617 1136.5 295.207 L 1120.02 294.977 C 1120.29 301.856 1121.07 330.911 1118.22 335.283 L 1115.25 335.817 C 1106.6 331.907 1111.26 309.59 1110.89 301.005 C 1110.42 289.893 1109.62 298.09 1106.52 292.522 C 1112.53 285.416 1111.75 284.098 1111.58 274.582 z"/>
<path transform="translate(0,0)" fill="rgb(247,235,243)" d="M 1130.86 274.195 L 1131.55 274.087 C 1133.23 275.158 1134.33 275.978 1135.91 277.195 C 1137.87 280.901 1137.01 285.572 1136.69 289.852 C 1131.77 290.027 1119.76 291.513 1117.82 286.076 C 1122.52 276.514 1124 279.446 1130.86 274.195 z"/>
<path transform="translate(0,0)" fill="rgb(4,1,3)" d="M 1253.49 119.085 C 1283.64 117.01 1277.09 145.109 1278.21 166.475 C 1263.73 165.107 1242.02 172.384 1237.28 157.503 C 1238.95 132.235 1258.7 142.33 1267.74 136.213 C 1268.12 133.179 1267.92 132.789 1266.65 129.984 C 1257.98 123.339 1250.5 132.029 1240.89 132.908 L 1240.21 131.489 C 1242.83 123.955 1245.92 121.187 1253.49 119.085 z"/>
<path transform="translate(0,0)" fill="rgb(252,247,250)" d="M 1264.71 146.55 L 1266.86 146.411 L 1267.85 148.458 C 1267.17 160.115 1256.79 160.073 1247.84 160.558 C 1244.75 159.232 1243.53 156.989 1244.05 153.872 C 1248.11 147.298 1257.85 146.987 1264.71 146.55 z"/>
<path transform="translate(0,0)" fill="rgb(4,1,3)" d="M 1355.86 290.04 C 1365.94 290.971 1409.93 289.463 1414.96 292.718 C 1417.34 294.25 1418.34 296.73 1418.86 299.378 C 1419.95 304.971 1420.61 332.171 1417.82 336.156 C 1417.37 336.792 1415.49 336.803 1414.69 336.925 C 1405.95 330.646 1412.52 304.794 1408.66 295.956 C 1403.96 293.695 1395.24 295.578 1391.31 298.616 L 1390.91 302.753 C 1390.56 307.92 1391.08 332.296 1390.53 334.384 C 1388.35 336.262 1389.39 335.924 1386.68 335.753 C 1383.67 332.06 1385.01 304.626 1384.17 296.347 C 1377.14 295.243 1373.93 295.085 1366.8 295.05 C 1365.16 307.145 1366.02 325.584 1363.72 334.472 C 1361.49 336.52 1362.67 336.008 1358.86 335.907 C 1352.99 330.66 1354.91 298.392 1355.86 290.04 z"/>
<path transform="translate(0,0)" fill="rgb(4,1,3)" d="M 1200.1 289.194 C 1205.55 288.9 1217.92 290.586 1219.23 296.769 C 1220.43 302.451 1222.9 331.511 1220.77 335.27 C 1216.73 336.539 1215.86 333.316 1213.04 333.544 C 1198.39 334.725 1186.49 341.163 1179.7 323.414 C 1180.03 304.623 1208.34 314.235 1213.65 302.383 C 1211.39 283.296 1188.59 301.751 1181.61 301.025 L 1180.87 299.124 C 1182.89 293.75 1194.9 290.264 1200.1 289.194 z"/>
<path transform="translate(0,0)" fill="rgb(254,253,254)" d="M 1204.41 313.44 C 1207.36 313.101 1209.11 312.615 1211.79 313.985 C 1213.93 316.818 1213.03 322.581 1212.86 326.416 C 1208.42 327.627 1202.41 328.614 1197.78 329.512 C 1192.5 329.039 1189.55 328.063 1188.65 322.651 C 1191.35 314.92 1197.3 314.225 1204.41 313.44 z"/>
<path transform="translate(0,0)" fill="rgb(4,1,3)" d="M 1141.24 101.976 C 1145.48 101.989 1146.39 101.465 1148.83 103.852 C 1150.58 109.554 1148.9 117.35 1148.28 123.777 C 1180.49 104.814 1176.74 142.034 1176.05 161.791 C 1175.92 165.35 1175.78 166.354 1172.67 167.367 L 1170.15 165.978 C 1167.8 162.651 1168.24 145.239 1168.14 139.98 C 1168.08 135.165 1168.38 132.568 1165.61 128.917 C 1140.44 118.507 1152.72 159.367 1148.11 166.569 C 1144.14 166.672 1144.86 167.186 1141.63 165.526 C 1139.49 162.101 1140.69 109.226 1141.24 101.976 z"/>
<path transform="translate(0,0)" fill="rgb(4,1,3)" d="M 1388.41 158.08 C 1390.42 148.624 1389.89 122.129 1392.74 118.916 C 1395.86 118.146 1394.53 118.082 1397.87 119.577 C 1400.69 123.692 1399.81 123.002 1400.04 128.75 C 1400.05 141.026 1400.62 154.314 1400.93 166.662 C 1388.73 165.39 1378.88 167.722 1366.28 166.244 C 1364.61 155.596 1361.93 128.406 1365.4 118.513 L 1367.96 119.064 C 1371.57 122.627 1369.36 148.326 1371.62 159.448 C 1377.05 159.134 1382.95 158.536 1388.41 158.08 z"/>
<path transform="translate(0,0)" fill="rgb(4,1,3)" d="M 1304.98 290.236 C 1308.45 290.104 1309.98 290.103 1313.44 290.477 C 1318.32 296.941 1310.45 321.059 1317.86 328.114 C 1322.76 329.381 1329.76 328.094 1334.98 327.487 C 1335.05 319.352 1333.42 294.559 1339.6 289.875 L 1342.08 290.282 C 1343.42 292.838 1342.86 297.522 1342.74 300.626 C 1342.45 310.698 1343.62 325.27 1342.31 334.803 C 1340.65 334.755 1333.14 334.005 1332.38 334.216 C 1300.62 343.069 1305.35 311.958 1304.98 290.236 z"/>
<path transform="translate(0,0)" fill="rgb(4,1,3)" d="M 1290.52 103.179 C 1291.71 103.386 1293.82 104.046 1294.17 105.239 C 1296.41 112.745 1300.17 118.213 1304.48 124.78 L 1303.87 126.412 L 1298.94 127.963 C 1292.31 137.042 1299.2 158.379 1304.65 167.242 C 1301.86 167.978 1292.29 166.225 1288.39 165.848 C 1286.46 152.489 1289.16 138.332 1284.52 126.466 C 1283.04 122.684 1289.09 108.278 1290.52 103.179 z"/>
<path transform="translate(0,0)" fill="rgb(4,1,3)" d="M 1252.26 336.363 C 1248.45 336.142 1239.16 335.737 1236.2 333.687 C 1230.74 325.376 1228.66 284.93 1235.31 276.323 C 1238.69 274.515 1237.28 274.688 1240.66 275.324 C 1244.53 281.166 1238.67 286.755 1246.34 291.142 C 1249.14 291.293 1251.06 290.821 1252.67 292.361 C 1249.68 294.219 1245.49 295.056 1242 295.154 C 1242.75 303.651 1242.52 315.988 1243.18 325.568 C 1245.77 328.95 1249.44 333.038 1252.26 336.363 z"/>
<path transform="translate(0,0)" fill="rgb(4,1,3)" d="M 1246.34 291.142 C 1249.14 291.293 1251.06 290.821 1252.67 292.361 C 1249.68 294.219 1245.49 295.056 1242 295.154 C 1243.15 293.829 1244.98 292.336 1246.34 291.142 z"/>
<path transform="translate(0,0)" fill="rgb(4,1,3)" d="M 1041.87 270.408 C 1044.86 271.163 1046.14 271.266 1048.39 273.502 C 1050.56 282.104 1049.9 324.564 1049.13 334.929 C 1048.49 335.084 1047.84 335.227 1047.19 335.357 C 1043.91 335.982 1043.05 336.346 1040.74 334.754 C 1038.87 325.462 1038.9 279.078 1041.87 270.408 z"/>
<path transform="translate(0,0)" fill="rgb(4,1,3)" d="M 1040.16 119.234 L 1041.31 119.53 C 1052.63 122.391 1058.47 117.828 1066.8 120.6 L 1066.8 126.633 C 1063.23 128.467 1054.81 128.044 1052.5 129.944 C 1043.49 137.361 1056.21 160.989 1045.51 167.119 C 1041.7 166.942 1042.85 167.519 1040.55 165.437 C 1039.14 162.015 1040.06 125.623 1040.16 119.234 z"/>
<path transform="translate(0,0)" fill="rgb(47,44,46)" d="M 1335.94 118.667 C 1337.38 118.767 1341.83 118.803 1342.75 119.412 C 1345.97 119.856 1348.91 119.612 1350.8 121.484 C 1351.22 126.794 1351.76 163.497 1350.39 166.522 C 1346.47 166.974 1344.16 167.078 1340.2 167.083 C 1340.29 153.965 1340.21 140.846 1339.95 127.73 L 1335.11 127.226 C 1335.03 124.982 1335.65 121.031 1335.94 118.667 z"/>
<path transform="translate(0,0)" fill="rgb(252,247,250)" d="M 1335.94 118.667 C 1337.38 118.767 1341.83 118.803 1342.75 119.412 C 1338.92 121.728 1339.76 123.331 1339.95 127.73 L 1335.11 127.226 C 1335.03 124.982 1335.65 121.031 1335.94 118.667 z"/>
<path transform="translate(0,0)" fill="rgb(4,1,3)" d="M 1194.18 102.466 C 1199.51 106.668 1194.39 112.957 1197.75 119.219 C 1200.5 120.374 1202.73 120.267 1205.68 120.367 C 1208.01 122.308 1207.35 121.208 1207.74 125.044 C 1204.78 128.499 1203.34 125.235 1197.88 127.884 C 1195.88 132.088 1196.57 148.629 1196.6 153.87 C 1200.73 160.046 1202.65 161.315 1208.43 165.999 C 1203.41 167.77 1197.45 166.709 1192.26 166.003 C 1190.76 154.31 1192.02 140.404 1190.35 128.723 C 1189.97 126.107 1184.76 126.842 1182.12 124.022 L 1182.59 122.604 C 1192.98 119.899 1191.23 112.349 1194.18 102.466 z"/>
<path transform="translate(0,0)" fill="rgb(4,1,3)" d="M 1286.77 290.108 C 1289.84 289.811 1292.55 289.254 1295.35 290.568 C 1296.39 295.507 1296.79 331.241 1294.75 335.245 C 1291.69 335.818 1290.63 336.156 1287.48 335.553 C 1285.21 332.102 1285.49 295.095 1286.77 290.108 z"/>
<path transform="translate(0,0)" fill="rgb(4,1,3)" d="M 1257.99 289.676 C 1264.33 291.317 1278.8 288.872 1281.27 292.855 L 1279.93 294.616 C 1274.92 296.148 1270.52 295.979 1265.32 296.086 C 1265 303.538 1264.94 311.27 1264.77 318.75 C 1264.79 323.554 1265.87 331.039 1263.92 334.987 C 1261.5 336.427 1262.61 336.24 1259.73 335.597 C 1255.23 329.278 1257.58 298.601 1257.99 289.676 z"/>
<path transform="translate(0,0)" fill="rgb(4,1,3)" d="M 1335.94 118.667 C 1335.65 121.031 1335.03 124.982 1335.11 127.226 C 1331.51 128.616 1318.96 129.554 1318.99 136.847 C 1319.04 148.292 1321.2 154.882 1318.57 166.661 L 1316.88 167.449 L 1314.51 166.539 C 1313.08 161.924 1313.75 129.545 1313.68 121.727 C 1321.09 120.644 1328.51 119.624 1335.94 118.667 z"/>
<path transform="translate(0,0)" fill="rgb(4,1,3)" d="M 1070.99 120.632 L 1074.12 118.99 C 1075.41 119.59 1075.99 119.499 1076.18 120.415 C 1078.36 130.701 1077.91 155.437 1076.65 165.346 C 1074.92 167.252 1075.86 166.738 1072.97 167.013 L 1071.26 165.806 C 1070.8 160.294 1070.79 155.236 1070.75 149.721 C 1068.01 146.545 1070.95 134.598 1069.21 127.694 L 1066.8 126.633 L 1066.8 120.6 L 1070.99 120.632 z"/>
<path transform="translate(0,0)" fill="rgb(247,235,243)" d="M 1066.8 120.6 L 1070.99 120.632 C 1070.93 128.783 1071.24 141.972 1070.75 149.721 C 1068.01 146.545 1070.95 134.598 1069.21 127.694 L 1066.8 126.633 L 1066.8 120.6 z"/>
<path transform="translate(0,0)" fill="rgb(247,235,243)" d="M 1406 454.548 C 1411.03 456.577 1412.95 454.154 1417.06 456.235 C 1420.14 460.708 1420.83 467.739 1417.43 472.194 C 1411.26 470.877 1402.39 466.869 1401.18 460.022 C 1402.65 456.186 1402.25 457.295 1406 454.548 z"/>
<path transform="translate(0,0)" fill="rgb(47,44,46)" d="M 1341.15 102.184 C 1344.22 102.142 1347.67 101.682 1350.1 103.407 C 1351.76 106.068 1351.04 109.03 1350.78 112.359 C 1346.6 112.923 1344.82 113.476 1341.53 111.762 C 1340.01 109.142 1340.83 105.335 1341.15 102.184 z"/>
<path transform="translate(0,0)" fill="rgb(236,213,241)" d="M 368.121 15.6162 C 372.152 15.6698 376.327 16.8941 379.397 19.5879 C 381.241 23.5296 380.778 22.1478 380.323 26.7653 C 376.218 26.1558 370.671 24.6756 367.88 21.4443 C 366.805 18.1668 366.948 19.554 368.121 15.6162 z"/>
<path transform="translate(0,0)" fill="rgb(236,213,241)" d="M 208.89 870.731 C 212.879 870.53 216.817 869.595 219.405 872.822 C 218.873 875.939 216.533 877.969 214.353 880.464 C 212.441 882.675 213.246 882.35 210.776 883.169 C 208.563 879.747 209.115 875.315 208.89 870.731 z"/>
<path transform="translate(0,0)" fill="rgb(4,1,3)" d="M 1289.48 271.385 C 1293.6 272.163 1294 272.48 1296.26 275.295 C 1295.83 278.737 1296.43 277.466 1293.93 280.045 C 1289.59 279.048 1288.95 279.62 1286.12 276.996 C 1286.65 273.5 1286.67 274.387 1289.48 271.385 z"/>
<path transform="translate(0,0)" fill="rgb(4,1,3)" d="M 1073.41 100.666 L 1075.53 102.351 C 1076.92 106.85 1077.19 110.391 1074.07 114.022 C 1071.36 111.572 1070.75 111.192 1070.12 107.547 C 1070.82 103.929 1071.2 103.508 1073.41 100.666 z"/>
<path transform="translate(0,0)" fill="rgb(236,213,241)" d="M 23.7539 368.743 C 27.5497 368.857 29.4323 368.907 32.3973 371.244 C 33.0032 374.102 33.2015 373.009 31.7677 375.363 C 27.9124 374.226 24.257 373.866 22.2214 371.044 L 23.7539 368.743 z"/>
</svg>