<svg version="1.1" xmlns="http://www.w3.org/2000/svg" style="display: block;" viewBox="0 0 1650 2048" width="506" height="628" preserveAspectRatio="none">
<path transform="translate(0,0)" fill="rgb(254,254,254)" d="M 0 0 L 1650 0 L 1650 2048 L 0 2048 L 0 0 z"/>
<path transform="translate(0,0)" fill="rgb(40,91,121)" d="M 15.9047 17.1062 C 38.6706 15.9857 65.6122 16.6009 88.6665 16.6068 L 213.968 16.6598 L 597.836 16.7129 L 1635.98 16.8486 C 1634.76 42.5654 1635.3 70.9536 1635.31 96.9232 L 1635.33 224.384 L 1635.32 617.358 L 1635.11 1470.36 C 1636.02 1657.82 1635.57 1845.28 1633.75 2032.74 C 1624.05 2035.35 1562.2 2033.18 1547.33 2033.16 L 1294.85 2033.06 L 488.562 2031.88 L 207.593 2031.39 C 144.936 2031.4 79.2731 2032.2 16.8982 2030.99 C 15.5904 2004.67 16.2862 1975.16 16.3037 1948.48 L 16.3268 1812.08 L 16.1921 1389.19 L 15.9047 17.1062 z"/>
<path transform="translate(0,0)" fill="rgb(254,254,254)" d="M 1535.75 1116.5 C 1560.96 1116.29 1598.84 1115.25 1623.36 1116.8 C 1624.15 1132.06 1623.41 1153.77 1623.36 1169.59 L 1623.3 1264.12 L 1623.27 1564.88 L 1118.07 1564.27 L 1031.41 1564.07 L 1031.29 1117.76 C 1049.94 1117.02 1071.47 1117.51 1090.44 1117.39 L 1211.67 1116.96 L 1535.75 1116.5 z"/>
<path transform="translate(0,0)" fill="rgb(0,0,0)" d="M 1272.67 1344.38 C 1342.7 1346.09 1394.89 1544.38 1479.65 1396.57 C 1503.67 1395.48 1528.78 1396.53 1552.91 1396 C 1558.77 1395.88 1566.7 1394.53 1571.16 1398.35 C 1571.3 1401.13 1571.61 1399.85 1570.06 1402.29 C 1561.07 1404.63 1496.54 1403.94 1484.19 1403.97 C 1474.33 1422.17 1458.92 1439.72 1441.6 1451.12 C 1377.24 1484.39 1340.22 1389.81 1296.74 1360.24 C 1260.79 1335.79 1243.03 1370.42 1228.91 1397.23 C 1209.47 1396.98 1190.02 1396.92 1170.57 1397.06 C 1163.13 1397.06 1146.33 1398.58 1141.24 1394.26 L 1141.09 1392.18 C 1142.81 1390.67 1143.03 1390.08 1145.54 1389.93 C 1171.51 1388.31 1198.15 1389.91 1224.16 1389.15 C 1235.45 1367.39 1246.06 1347.33 1272.67 1344.38 z"/>
<path transform="translate(0,0)" fill="rgb(254,254,254)" d="M 1031.26 1575.98 L 1623.22 1576.42 C 1624.29 1607.53 1623.36 1644.23 1623.36 1675.67 L 1623.32 1867.81 C 1623.21 1897.03 1623.28 1926.26 1623.52 1955.49 C 1623.74 1969.68 1624.68 2010 1622.94 2023.2 L 1029.81 2022.24 L 1031.26 1575.98 z"/>
<path transform="translate(0,0)" fill="rgb(0,0,0)" d="M 1244.59 1731.32 C 1248.63 1731.9 1250.57 1735.23 1252.43 1738.6 C 1278.23 1785.36 1304.26 1831.86 1330.87 1878.17 C 1346.3 1905.01 1352.67 1946.84 1385.98 1959.46 C 1395.62 1963.18 1406.37 1962.78 1415.71 1958.36 C 1437.65 1948.19 1451.63 1917.01 1458.26 1895.15 C 1461.65 1883.98 1463.61 1871.24 1467.64 1860.28 L 1468.08 1859.11 C 1468.69 1859.01 1469.31 1858.93 1469.92 1858.85 C 1475.4 1858.19 1494.35 1857.57 1499.37 1858.08 C 1511.87 1859.36 1567.31 1855.38 1573.54 1860.33 C 1573.85 1863.22 1574.15 1861.87 1572.3 1864.45 C 1564.93 1866.63 1487.27 1866.05 1473.32 1866.16 C 1471.38 1874.77 1469.3 1883.34 1467.07 1891.88 C 1459.9 1919.06 1446.14 1949.74 1420.94 1964.47 C 1404.74 1972.04 1391.09 1971.48 1375.42 1962.75 C 1346.72 1946.78 1339.2 1910.51 1324.19 1883.38 C 1298.44 1836.82 1272.13 1790.54 1246.63 1743.84 C 1228.47 1782.49 1213.44 1824.16 1195.44 1862.61 C 1185.54 1863.49 1114.99 1866.56 1110.74 1860.43 C 1116.07 1854.24 1136 1856.06 1143.68 1856.02 C 1159.21 1855.96 1174.74 1855.81 1190.26 1855.58 C 1201.68 1829.42 1212.85 1803.14 1223.75 1776.76 C 1228.77 1764.81 1237.8 1741.32 1244.59 1731.32 z"/>
<path transform="translate(0,0)" fill="rgb(254,254,254)" d="M 1039.68 205.49 L 1623.89 205.006 L 1623.82 510.453 L 1623.75 602.45 C 1623.77 615.246 1624.74 638.753 1623.57 650.867 C 1621.19 652.948 1621.4 652.225 1617.25 652.312 L 1031.4 651.669 L 1031.18 340.082 L 1031.21 248.744 C 1031.22 241.415 1030.76 212.917 1031.75 206.765 C 1034.33 204.876 1035.94 205.532 1039.68 205.49 z"/>
<path transform="translate(0,0)" fill="rgb(0,0,0)" d="M 1221.81 355.197 C 1295.94 347.159 1329.25 481.695 1406.54 429.804 C 1416.28 422.819 1428.92 407.995 1441.45 406.89 C 1461.02 405.163 1480.39 406.874 1499.99 406.077 C 1509.9 405.673 1521.82 403.947 1530.16 409.59 L 1529.81 411.632 L 1530.77 410.59 C 1522.48 417.275 1456.13 410.684 1442.55 415.031 C 1422.69 421.39 1414.97 437.021 1393.61 445.38 C 1346.29 460.784 1318.96 424.89 1289.55 396.632 C 1235.25 344.462 1207.53 355.268 1164.62 409.622 C 1155.87 420.714 1139.93 418.881 1127.42 419.425 C 1123.1 419.613 1114.02 420.136 1110.74 416.992 L 1110.93 415.201 C 1118.35 409.283 1148.6 413.023 1153.51 408.822 C 1179.2 386.827 1185.19 364.12 1221.81 355.197 z"/>
<path transform="translate(0,0)" fill="rgb(254,254,254)" d="M 428.742 1575.06 C 494.739 1576.07 563.42 1575.18 629.578 1575.17 L 1019.85 1576 C 1020.19 1615.66 1020.7 2019.03 1018.92 2021.81 L 1016.25 2022.28 L 428.825 2021.7 C 427.581 1997.01 428.49 1973.23 428.605 1948.66 L 428.496 1849.88 C 428.511 1758.99 427.411 1665.76 428.742 1575.06 z"/>
<path transform="translate(0,0)" fill="rgb(0,0,0)" d="M 632.834 1673.02 C 658.624 1670.62 664.918 1709.97 689.929 1726.47 C 719.263 1710.22 735.718 1684.72 774.084 1682.44 C 828.39 1679.21 842.183 1720.67 855.053 1764.07 C 859.345 1778.17 863.742 1792.24 868.246 1806.27 C 873.827 1823.87 877.234 1838.61 891.458 1850.87 C 905.54 1851.57 961.764 1848.83 968.842 1854.21 L 968.363 1855.82 C 966.368 1857.11 964.799 1857.67 962.441 1858.04 C 951.219 1859.79 906.765 1859.91 895.026 1858.82 C 891.618 1858.5 888.728 1857.83 885.726 1856.15 C 863.012 1843.5 847.839 1748.49 830.802 1719.99 C 825.638 1711.35 819.946 1705.51 811.995 1699.43 C 779.086 1678.06 745.33 1694.65 717.969 1716.19 C 711.195 1720.82 699.523 1732.13 691.434 1732.82 C 669.317 1734.7 653.206 1677.71 634.388 1680.97 C 608.535 1698.95 580.733 1820.39 572.55 1853.76 C 558.251 1854.95 508.809 1855.28 493.347 1852.12 C 492.288 1851.91 492.427 1850.78 492.177 1849.42 L 493.661 1847.52 C 499.475 1845.45 556.733 1847.06 566.507 1847.21 C 567.966 1841.27 569.46 1835.33 570.99 1829.4 C 579.57 1796.14 603.104 1690.55 632.834 1673.02 z"/>
<path transform="translate(0,0)" fill="rgb(254,254,254)" d="M 976.501 1117.5 C 990.941 1117.36 1005.38 1117.41 1019.82 1117.65 L 1020.01 1564.32 L 476.25 1563.74 L 428.788 1563.55 C 428.418 1544 428.34 1524.06 428.517 1504.5 C 429.682 1375.94 426.852 1246.84 428.774 1118.34 C 448.93 1118.84 471.503 1118.29 491.812 1118.25 L 608.711 1118.15 L 976.501 1117.5 z"/>
<path transform="translate(0,0)" fill="rgb(0,0,0)" d="M 778.212 1256.29 C 842.68 1252.94 843.553 1335.57 869.148 1375.62 C 878.014 1391.55 892.968 1386.41 907.367 1387.31 C 914.962 1387.79 949.064 1384.81 952.757 1390.93 L 951.592 1392.88 C 944.205 1396.62 885.875 1395.4 876.098 1393.6 C 851.897 1375.75 844.022 1329.27 831.674 1302.82 C 824.404 1287.26 813.042 1271.1 796.097 1265.29 C 763.439 1254.1 736.516 1291.85 710.306 1304.08 C 698.56 1309.56 690.19 1307.26 678.924 1303.05 C 667.985 1297.08 654.938 1284.14 642.238 1283.56 C 618.589 1282.48 594.721 1375.4 577.121 1391.36 L 576.199 1392.19 C 565.754 1394 516.122 1392.96 502.903 1391.84 C 501.538 1391.73 500.376 1389.59 499.97 1387.62 C 504.091 1383.43 563.097 1385.41 574.207 1384.96 C 592.171 1356.39 600.736 1316.86 621.94 1288.35 C 643.204 1252.99 677.368 1303.31 696.231 1299.69 C 727.355 1293.72 741.286 1262.84 778.212 1256.29 z"/>
<path transform="translate(0,0)" fill="rgb(254,254,254)" d="M 428.614 206.193 C 490.562 207.212 555.684 206.161 617.85 206.118 L 1019.86 205.692 L 1019.96 536.273 L 1020.04 615.723 C 1020.04 621.793 1020.42 646.746 1019.38 650.824 L 1016.75 651.484 C 938.937 652.185 859.802 651.336 781.899 651.199 L 428.332 650.8 C 429.181 614.467 427.925 575.649 428.26 538.965 C 429.27 428.453 426.778 316.586 428.614 206.193 z"/>
<path transform="translate(0,0)" fill="rgb(0,0,0)" d="M 679.021 326.243 C 721.944 327.659 751.64 400.55 763.971 434.871 L 838.557 434.461 C 843.611 434.455 852.205 435.439 855.882 439.127 C 848.895 444.636 769.162 442.708 755.315 441.834 C 751.503 408.195 719.371 348.683 687.542 334.559 C 644.273 327.376 616.607 412.255 604.651 443.103 C 595.085 443.925 522.854 443.653 516.297 441.394 C 515.231 438.56 515.336 440.063 516.693 436.73 C 522.723 434.253 588.958 435.938 599.13 436.022 C 616.065 399.045 631.725 335.444 679.021 326.243 z"/>
<path transform="translate(0,0)" fill="rgb(254,254,254)" d="M 428.584 662.427 C 441.994 663.486 472.3 662.619 486.85 662.637 L 601.935 662.851 C 740.126 662.982 882.064 661.129 1019.79 663.306 C 1020.51 698.455 1020 735.312 1020 770.557 L 1019.99 964.872 L 1020.01 1060.03 C 1020.01 1069.03 1020.59 1097.75 1019.51 1104.82 L 1017.94 1105.84 L 428.653 1106.59 L 428.336 866.047 L 428.584 662.427 z"/>
<path transform="translate(0,0)" fill="rgb(0,0,0)" d="M 628.158 786.862 C 646.992 789.826 649.025 833.628 658.634 850.123 C 671.169 871.64 689.046 867.43 703.534 886.076 C 714.517 900.212 711.908 938.457 733.001 941.809 C 743.459 942.799 763.05 942.137 773.972 942.007 L 846.897 941.149 C 854.212 941.065 879.361 939.194 883.136 945.018 C 882.262 946.013 881.519 946.589 880.252 947.026 C 871.01 950.215 750.454 950.849 735.024 949.913 C 731.028 949.67 727.083 949.067 723.533 947.114 C 711.516 940.504 708.731 923.488 705.229 911.444 C 700.845 896.366 697.094 886.951 682.837 879.101 C 644.517 859.112 649.663 846.519 636.181 805.932 C 634.946 802.213 633.667 797.616 630.041 795.741 C 611.8 802.492 612.08 922.282 576.092 946.379 L 575.049 947.071 C 565.558 947.512 512.109 947.587 506.066 946.396 C 503.968 943.856 504.364 945.238 504.509 942.22 C 512.63 935.37 560.704 943.927 572.582 937.904 C 578.109 935.102 583.049 929.699 585.322 924.186 C 601.22 885.63 604.073 840.76 616.673 800.825 C 619.111 793.099 621.177 790.127 628.158 786.862 z"/>
<path transform="translate(0,0)" fill="rgb(254,254,254)" d="M 1031.45 663.26 C 1092.04 661.55 1159.77 663.267 1220.96 663.269 L 1623.87 663.775 L 1623.54 1103.87 C 1620.4 1105.47 1075.64 1105.8 1031.39 1105.85 L 1031.45 663.26 z"/>
<path transform="translate(0,0)" fill="rgb(0,0,0)" d="M 1266.16 845.696 C 1267.61 846.344 1269.73 847.731 1270.3 849.256 C 1279.86 874.722 1286.28 900.61 1297.39 925.656 C 1306.19 945.513 1319.06 979.343 1346.94 973.466 C 1357.59 971.221 1364.21 959.026 1369.33 950.458 C 1380.62 949.684 1395.67 950.048 1407.19 950.011 L 1474.14 949.869 L 1519.57 949.891 C 1527.73 949.827 1552.2 948.015 1558.05 952.51 C 1558.43 954.962 1558.65 953.81 1557.09 956.014 C 1551.4 957.702 1509.98 957.107 1502 957.124 L 1385.75 957.434 L 1375.4 957.832 C 1340.89 1009.41 1304.17 968.353 1290.16 928.333 C 1282.79 907.26 1274.57 884.779 1266.89 863.867 C 1258.12 890.398 1248.33 929.706 1241 956.837 C 1231.7 956.963 1193.48 958.599 1188.33 954.99 L 1187.95 952.718 C 1192.85 947.049 1225.95 949.743 1234.65 949.993 C 1241.01 928.327 1247.12 906.588 1252.98 884.781 C 1255.52 875.44 1260.38 852.131 1266.16 845.696 z"/>
<path transform="translate(0,0)" fill="rgb(254,254,254)" d="M 26.6261 1574.88 L 416.755 1575.13 L 416.83 1887.03 C 416.834 1902.17 418.605 2018.48 416.88 2021.27 C 375.392 2022.68 325.457 2021.29 283.455 2021.23 L 26.7486 2021.04 C 26.0082 1996.96 26.4714 1970.82 26.4631 1946.58 L 26.4133 1817.63 C 26.3879 1738.07 24.9361 1654.03 26.6261 1574.88 z"/>
<path transform="translate(0,0)" fill="rgb(0,0,0)" d="M 161.221 1926.79 C 169.677 1926.67 178.029 1926.42 186.472 1926.99 C 189.829 1929.36 187.061 1929.17 189.203 1935.13 C 194.587 1930.82 203.94 1888.31 212.345 1882.69 C 215.695 1880.44 217.352 1880.65 221.211 1881.06 C 225.388 1883.77 230.659 1901.49 232.78 1907.36 C 236.271 1915.06 240.768 1928.45 244.064 1936.94 L 231.175 1937.11 L 227.059 1924.84 L 205.685 1924.92 C 205.006 1927.41 202.709 1936.09 201.649 1936.21 C 191.541 1937.37 157.718 1937.06 148.92 1937.08 L 149.094 1881.28 L 161.106 1881.16 L 161.221 1926.79 z"/>
<path transform="translate(0,0)" fill="rgb(254,254,254)" d="M 216.463 1896.69 C 218.881 1899.06 223.278 1911.63 222.235 1915.11 L 219.961 1915.39 C 216.03 1915.37 213.671 1915.99 211.2 1913.68 C 210.231 1908.51 214.135 1902.09 216.463 1896.69 z"/>
<path transform="translate(0,0)" fill="rgb(0,0,0)" d="M 142.699 1705.12 C 153.476 1704.93 175.956 1702.94 184.157 1709.67 C 186.683 1711.77 188.267 1714.8 188.555 1718.07 C 189.316 1726.41 186.352 1728.98 181.438 1734.44 C 187.152 1740.29 191.849 1753.8 187.832 1760.54 C 184.156 1761.87 180.131 1761.96 177.6 1758.77 C 175.619 1739.41 173.815 1739.13 154.83 1739.17 L 154.756 1760.9 L 142.42 1760.98 C 142.259 1742.36 142.352 1723.74 142.699 1705.12 z"/>
<path transform="translate(0,0)" fill="rgb(254,254,254)" d="M 154.834 1714.73 C 166.952 1714.42 178.718 1711.99 174.945 1728.23 C 168.598 1730.94 161.599 1730.24 154.707 1730.13 L 154.834 1714.73 z"/>
<path transform="translate(0,0)" fill="rgb(0,0,0)" d="M 214.215 1705.19 C 216.661 1705.11 224.474 1704.65 225.235 1705.64 C 231.621 1713.96 244.433 1752.26 247.644 1760.92 L 234.936 1761 C 233.286 1755.69 232.947 1749.7 227.25 1748.68 L 209.52 1748.85 L 205.578 1761.03 L 192.767 1760.98 C 200.125 1742.97 207.233 1723.44 214.215 1705.19 z"/>
<path transform="translate(0,0)" fill="rgb(254,254,254)" d="M 219.796 1720.61 C 222.484 1722.92 226.545 1735.12 226.196 1738.77 L 224.249 1739.25 C 219.767 1739.26 217.77 1740.01 214.875 1737.58 C 214.228 1734.54 214.296 1734.34 215.465 1731.47 L 219.796 1720.61 z"/>
<path transform="translate(0,0)" fill="rgb(0,0,0)" d="M 252.771 1705.07 C 260.958 1705.05 286.386 1704.35 292.832 1705.66 C 294.587 1707.96 294.066 1710.47 294.01 1713.54 C 287.671 1718.73 269.837 1711.64 265.232 1717.44 C 264.779 1721.45 264.623 1722.4 265.242 1726.35 C 271.852 1731.28 287.796 1722.1 292.749 1730.69 C 292.028 1740.09 273.24 1737.03 265.32 1737.09 C 264.75 1739.24 264.913 1747.79 264.905 1750.54 C 272.156 1750.69 290.64 1748.46 294.879 1753.76 C 294.841 1757.59 295.48 1757.66 293.723 1760.28 C 284.806 1761.96 262.114 1761.11 252.287 1761.01 C 253.32 1746.4 252.675 1720.68 252.771 1705.07 z"/>
<path transform="translate(0,0)" fill="rgb(0,0,0)" d="M 249.141 1881.15 C 256.174 1881.07 287.166 1879.7 290.823 1882.94 C 291.162 1887.15 291.614 1885.82 289.89 1889.25 C 284.378 1893.19 269.489 1891.56 261.413 1891.63 L 261.078 1903.28 C 266.716 1903.46 283.766 1902.66 287.813 1904.34 C 291.273 1916.97 272.062 1913.11 263.86 1913.06 L 261.824 1913.81 C 260.572 1917.12 261.158 1922.95 261.264 1926.74 C 270.101 1926.95 286.035 1923.47 291.103 1930.8 C 291.281 1934.16 291.764 1933.7 290.407 1936.22 C 281.691 1938.05 259.067 1937.19 248.87 1937.07 L 249.141 1881.15 z"/>
<path transform="translate(0,0)" fill="rgb(0,0,0)" d="M 215.131 1799.7 C 218.188 1799.62 218.808 1799.46 221.776 1800.51 C 224.423 1804.65 223.427 1809.84 223.219 1815.12 C 230.209 1815.05 234.341 1813.97 239.099 1818.63 C 239.163 1825.54 228.008 1824.05 223.3 1823.93 L 223.303 1839.29 C 220.267 1839.37 219.691 1839.5 216.69 1838.58 C 213.63 1834.19 214.779 1829.7 215.052 1823.93 C 209.818 1824.09 200.532 1825.44 198.95 1818.93 C 203.423 1813.71 208.413 1815.09 215.006 1815.22 L 215.131 1799.7 z"/>
<path transform="translate(0,0)" fill="rgb(254,254,254)" d="M 374.727 1118.5 C 388.615 1118.3 402.927 1118.5 416.851 1118.51 L 416.762 1563.75 L 70.5 1563.08 L 26.302 1563.15 C 26.9199 1548.19 26.4186 1529.46 26.4266 1514.3 L 26.4264 1416.91 L 26.4616 1119.16 C 141.453 1117.39 259.496 1118.71 374.727 1118.5 z"/>
<path transform="translate(0,0)" fill="rgb(0,0,0)" d="M 211.005 1320.19 C 224.244 1319.63 223.592 1320.57 228.167 1333.04 C 233.411 1347.33 238.618 1361.67 243.864 1375.96 L 231.189 1376.17 C 229.498 1370.39 229.468 1364.86 223.25 1363.86 L 205.714 1363.96 C 204.634 1368.13 204.161 1372.02 201.287 1375.02 C 197.747 1376.95 193.45 1376.22 189.2 1376.04 C 196.495 1361.07 203.434 1337.09 211.005 1320.19 z"/>
<path transform="translate(0,0)" fill="rgb(254,254,254)" d="M 216.468 1335.72 C 218.903 1338.13 223.177 1350.62 222.345 1354.17 L 219.785 1354.52 C 215.586 1354.42 214.214 1355.12 211.299 1352.97 C 209.954 1348.09 214.216 1340.9 216.468 1335.72 z"/>
<path transform="translate(0,0)" fill="rgb(0,0,0)" d="M 249.136 1320.21 C 255.504 1320.15 287.67 1319.08 290.758 1321.7 C 291.156 1325.23 291.408 1325.6 289.689 1328.48 C 283.994 1332.45 269.733 1330.71 261.391 1330.72 L 261.05 1342.47 C 268.015 1342.56 281.111 1341.78 287.306 1343.13 C 288.801 1345.83 288.196 1345.85 288 1349.54 C 283.284 1353.75 270.253 1352.19 263.099 1352.14 L 261.81 1352.85 C 260.593 1356.15 261.161 1362.04 261.261 1365.82 C 270.421 1366.01 285.538 1362.45 290.934 1369.86 C 291.281 1373.27 291.744 1372.69 290.44 1375.26 C 281.02 1377.18 259.393 1376.25 248.875 1376.13 L 249.136 1320.21 z"/>
<path transform="translate(0,0)" fill="rgb(0,0,0)" d="M 149.098 1320.38 L 161.07 1320.17 L 161.231 1365.87 C 165.987 1365.83 185.118 1365.22 187.88 1366.94 C 188.213 1369.96 188.642 1372.98 189.166 1375.98 C 176.756 1376.52 161.542 1376.13 148.918 1376.14 L 149.098 1320.38 z"/>
<path transform="translate(0,0)" fill="rgb(254,254,254)" d="M 26.2336 661.935 L 277.414 662.294 C 322.673 662.349 371.979 661.395 416.733 662.844 L 416.961 1106.81 C 381.88 1106.17 344.281 1106.99 308.936 1107 L 26.2148 1107.21 C 26.8848 1090.31 26.4147 1070.39 26.4101 1053.28 L 26.3668 956.935 L 26.2336 661.935 z"/>
<path transform="translate(0,0)" fill="rgb(0,0,0)" d="M 142.597 860.428 C 155.012 861 187.067 855.197 188.475 873.99 C 190.6 882.204 183.95 885.368 182.852 887.62 C 180.253 892.952 193.399 904.413 188.762 915.084 C 185.179 917.427 182.276 916.487 177.906 915.759 C 175.555 895.702 175.563 894.559 154.839 894.607 L 154.792 916.166 L 142.4 916.278 C 142.343 897.661 142.408 879.044 142.597 860.428 z"/>
<path transform="translate(0,0)" fill="rgb(254,254,254)" d="M 154.881 870.017 C 166.476 869.752 179.402 867.593 174.749 883.828 C 168.119 886.192 161.679 885.684 154.712 885.572 L 154.881 870.017 z"/>
<path transform="translate(0,0)" fill="rgb(0,0,0)" d="M 214.588 860.45 C 218.532 860.315 222.984 860.47 226.969 860.516 C 232.239 877.247 241.24 899.427 247.55 916.174 C 223.767 917.467 239.701 905.773 226.25 903.966 L 209.516 904.082 L 205.655 916.343 L 192.75 916.334 C 200.111 899.151 206.68 876.618 214.588 860.45 z"/>
<path transform="translate(0,0)" fill="rgb(254,254,254)" d="M 219.984 875.496 C 222.774 878.557 227.206 890.168 225.41 894.526 L 221.76 894.811 L 215.69 894.55 L 214.374 893.087 C 214.003 888.067 217.899 880.811 219.984 875.496 z"/>
<path transform="translate(0,0)" fill="rgb(0,0,0)" d="M 252.81 860.546 C 261.603 860.434 294.387 856.699 295.688 866.942 C 291.775 875.845 275.425 867.529 265.832 871.647 C 264.494 874.415 264.772 879.277 264.706 882.553 C 273.081 883.067 285.971 880.126 291.54 886.013 C 292.025 889.59 292.465 888.798 291.11 891.491 C 284.521 892.812 272.381 892.28 264.95 892.51 L 264.901 905.987 C 273.883 906.188 286.75 903.742 293.489 907.929 C 295.389 911.633 294.911 910.112 294.713 914.494 C 290.533 917.871 259.147 916.391 252.351 916.328 C 253.234 900.096 252.627 877.338 252.81 860.546 z"/>
<path transform="translate(0,0)" fill="rgb(254,254,254)" d="M 233.421 206.501 L 345.755 206.374 C 368.342 206.35 394.534 205.707 416.766 206.816 L 416.739 650.729 C 348.477 651.581 277.94 650.525 209.5 650.52 L 26.231 650.412 L 26.0063 207.024 C 47.7044 206.34 71.9956 206.843 93.8503 206.824 L 233.421 206.501 z"/>
<path transform="translate(0,0)" fill="rgb(0,0,0)" d="M 87.1454 384.435 C 90.9413 384.195 95.366 384.24 99.2181 384.182 C 106.585 396.857 114.9 409.458 122.84 421.822 C 121.912 411.741 122.599 395.113 122.766 384.47 L 134.074 384.13 C 134.307 402.798 134.337 421.468 134.165 440.136 C 129.545 440.357 123.117 441.407 120.235 437.319 C 112.37 426.164 105.285 413.889 98.1961 402.224 C 98.4661 409.44 101.03 435.415 95.7341 440.045 C 92.1704 440.365 91.9611 440.368 88.5012 439.59 C 85.4592 435.083 87.0435 393.181 87.1454 384.435 z"/>
<path transform="translate(0,0)" fill="rgb(0,0,0)" d="M 231.132 399.698 C 235.258 401.657 229.771 400.601 233.514 403.55 C 239.458 400.056 244.574 395.999 251.132 400.514 L 255.638 403.635 C 263.844 403.836 279.572 386.799 283.988 413.877 C 284.884 419.375 286.282 435.936 282.482 439.779 C 279.489 440.218 278.764 440.479 275.725 439.848 C 268.567 433.132 278.405 410.259 266.674 407.358 C 263.149 408.212 262.193 408.851 259.331 411.08 C 258.559 420.085 259.184 428.862 258.595 437.769 C 258.496 439.27 257.87 439.105 256.057 440.244 C 244.036 441.624 248.495 435.136 247.737 426.135 C 247.342 421.455 248.204 417.241 246.97 412.523 C 245.427 406.622 239.78 407.007 235.762 409.796 C 229.34 419.079 238.297 432.869 230.005 439.913 C 228.7 440.129 222.89 441.024 222.936 439.257 C 223.13 431.71 220.887 408.004 222.711 401.613 C 225.913 399.122 226.48 399.893 231.132 399.698 z"/>
<path transform="translate(0,0)" fill="rgb(0,0,0)" d="M 157.957 399.567 C 169.313 396.529 180.968 403.333 183.907 414.716 C 186.846 426.098 179.941 437.693 168.534 440.534 C 157.265 443.34 145.841 436.538 142.938 425.293 C 140.035 414.049 146.738 402.567 157.957 399.567 z"/>
<path transform="translate(0,0)" fill="rgb(254,254,254)" d="M 158.871 407.806 C 163.518 407.412 167.07 407.058 170.324 410.951 C 172.594 413.622 173.703 417.091 173.403 420.584 C 173.026 425.553 171.508 429.149 167.707 432.282 C 150.98 434.017 149.954 417.842 158.871 407.806 z"/>
<path transform="translate(0,0)" fill="rgb(0,0,0)" d="M 305.051 399.317 C 312.056 398.869 321.12 397.804 326.439 403.258 C 329.329 410.495 330.547 431.571 329.372 439.315 C 323.584 443.365 318.937 437.2 316.115 437.973 C 306.051 440.728 303.704 443.927 293.028 436.751 C 284.944 413.761 311.193 419.694 318.022 411.648 C 317.735 408.858 317.628 409.609 314.952 407.074 C 304.659 404.451 303.342 414.842 294.807 412.552 C 292.608 409.822 293.088 411.355 293.448 407.763 C 296.82 402.662 299.264 400.993 305.051 399.317 z"/>
<path transform="translate(0,0)" fill="rgb(254,254,254)" d="M 316.906 421.435 C 318.644 423.067 318.124 422.914 318.681 425.747 C 316.094 432.787 311.444 433.805 304.605 433.682 C 302.354 429.873 302.624 431.408 302.512 427.246 C 306.331 422.17 310.334 422.458 316.906 421.435 z"/>
<path transform="translate(0,0)" fill="rgb(0,0,0)" d="M 338.164 384.505 C 342.035 384.265 343.781 384.269 347.643 384.592 C 350.518 388.05 349.301 432.605 349.277 440.138 C 345.008 440.335 343.584 440.508 339.447 439.615 C 336.753 436.519 338.099 392.121 338.164 384.505 z"/>
<path transform="translate(0,0)" fill="rgb(0,0,0)" d="M 210.883 398.913 C 213.288 398.821 213.457 398.903 215.84 399.379 C 218.655 402.577 219.442 403.373 217.697 407.326 C 214.355 410.396 210.86 409.846 206.379 411.309 C 200.119 417.321 204.3 428.547 202.491 438.901 C 200.215 440.696 196.14 440.301 193.024 440.388 C 190.545 437.565 190.744 403.231 192.916 400.005 C 198.339 397.001 200.087 399.929 203.139 404.402 L 204.844 404.306 C 207.271 401.147 207.458 401.064 210.883 398.913 z"/>
<path transform="translate(0,0)" fill="rgb(254,254,254)" d="M 428.444 26.7889 L 1019.66 26.8151 C 1020.05 43.2337 1020.96 190.921 1018.75 194.155 L 428.05 194.864 C 429.181 179.365 428.377 152.788 428.35 136.67 L 428.444 26.7889 z"/>
<path transform="translate(0,0)" fill="rgb(0,0,0)" d="M 718.95 82.9158 L 732.081 82.8936 C 732.313 102.898 732.13 123.268 732.144 143.302 L 718.866 143.468 L 718.95 82.9158 z"/>
<path transform="translate(0,0)" fill="rgb(0,0,0)" d="M 694.012 83.015 L 707.007 82.9628 C 707.089 102.555 707.538 123.985 706.927 143.407 L 693.896 143.45 C 693.762 123.305 693.8 103.159 694.012 83.015 z"/>
<path transform="translate(0,0)" fill="rgb(254,254,254)" d="M 1031.5 26.8787 L 1623.85 26.9203 L 1623.83 193.371 L 1031.38 194.149 C 1031.09 138.392 1031.13 82.6346 1031.5 26.8787 z"/>
<path transform="translate(0,0)" fill="rgb(0,0,0)" d="M 1284.57 82.9109 C 1288.65 83.0899 1293.63 82.8195 1297.79 82.7066 C 1301.72 97.3097 1307.48 111.386 1311.33 126.752 C 1315.01 112.784 1320.62 96.7112 1325.1 82.8002 L 1338.91 82.99 L 1334.18 97.2434 L 1318.86 143.411 C 1313.92 143.562 1308.64 143.48 1303.67 143.49 C 1298.9 124.856 1290.08 102.725 1284.57 82.9109 z"/>
<path transform="translate(0,0)" fill="rgb(0,0,0)" d="M 1361.97 84.0904 C 1365.86 83.9011 1366.36 83.8394 1370.12 84.6149 C 1372.16 88.2067 1371.27 135.593 1371.24 143.305 C 1367.05 143.462 1363.27 144.383 1359.73 142.538 L 1359.21 140.25 L 1359.15 105.109 C 1354.2 105.171 1346.39 106.028 1343.24 101.822 C 1345.76 94.4134 1356.9 97.0609 1361.97 84.0904 z"/>
<path transform="translate(0,0)" fill="rgb(254,254,254)" d="M 25.991 26.8564 L 416.699 26.8676 C 417.455 82.2721 416.799 139.156 416.8 194.688 C 287.694 196.278 155.28 194.981 26.0112 195.151 L 25.991 26.8564 z"/>
</svg>