<svg version="1.1" xmlns="http://www.w3.org/2000/svg" style="display: block;" viewBox="0 0 1472 1024" width="368" height="256" preserveAspectRatio="none">
<defs>
	<linearGradient id="Gradient1" gradientUnits="userSpaceOnUse" x1="1360.39" y1="695.304" x2="1395.59" y2="795.312">
		<stop class="stop0" offset="0" stop-opacity="1" stop-color="rgb(255,244,253)"/>
		<stop class="stop1" offset="1" stop-opacity="1" stop-color="rgb(251,253,252)"/>
	</linearGradient>
	<linearGradient id="Gradient2" gradientUnits="userSpaceOnUse" x1="453.564" y1="576.547" x2="705.009" y2="763.923">
		<stop class="stop0" offset="0" stop-opacity="1" stop-color="rgb(245,228,236)"/>
		<stop class="stop1" offset="1" stop-opacity="1" stop-color="rgb(255,255,255)"/>
	</linearGradient>
	<linearGradient id="Gradient3" gradientUnits="userSpaceOnUse" x1="233.81" y1="587.659" x2="190.127" y2="552.456">
		<stop class="stop0" offset="0" stop-opacity="1" stop-color="rgb(217,215,213)"/>
		<stop class="stop1" offset="1" stop-opacity="1" stop-color="rgb(241,225,233)"/>
	</linearGradient>
</defs>
<path transform="translate(0,0)" fill="rgb(254,251,252)" d="M 0 0 L 1472 0 L 1472 122.603 L 1472 168.093 L 1472 1024 L 1431.46 1024 L 908.484 1024 L 0 1024 L 0 0 z"/>
<path transform="translate(0,0)" fill="rgb(3,1,2)" d="M 303.07 70.6681 C 325.799 62.5278 360.171 51.0329 384.385 46.8803 C 427.257 39.5279 487.757 39.6363 530.44 47.8884 C 551.883 52.034 587.654 64.2684 607.922 71.5937 C 675.084 96.9623 736.489 147.68 779.853 204.268 C 780.624 203.809 781.698 203.17 783.075 202.35 C 801.509 202.688 821.29 202.665 839.531 204.663 C 839.982 204.79 840.433 204.918 840.883 205.045 C 841.087 218.176 843.909 286.747 837.604 293.616 C 837.391 293.848 837.153 294.056 836.928 294.277 L 846.675 309.835 C 851.424 316.121 862.788 335.26 867.491 338.856 C 867.77 339.509 869.152 342.639 869.259 343.118 L 867.629 345.099 L 868.325 350.125 C 871.127 354.8 874.043 359.405 877.069 363.936 C 903.997 405.18 930.241 446.865 955.79 488.976 C 955.366 489.603 953.617 492.269 953.237 492.679 C 944.111 494.644 917.827 494.387 908.979 492.699 L 909.079 689.621 C 909.009 708.017 909.034 726.413 909.155 744.809 C 909.191 752.255 909.708 767.715 908.988 774.684 L 909.598 775.748 L 910.09 783.858 L 912.396 784.033 C 911.946 794.794 911.747 805.563 911.8 816.333 L 909.548 816.889 C 899.131 818.43 888.617 819.414 878.139 820.485 C 866.818 821.621 853.603 822.097 842.183 822.422 C 794.594 826.53 746.377 827.93 698.784 833.356 C 667.512 836.922 636.606 838.934 605.153 839.782 C 595.998 840.029 576.075 842.093 567.886 840.458 C 564.337 840.648 562.891 841.473 559.653 842.889 C 556.04 845.085 527.151 848.019 521.991 848.917 C 474.625 857.163 432.095 856.685 385.054 846.317 C 371.158 843.254 355.232 842.722 340.939 838.501 C 328.778 834.911 317.19 830.565 305.123 826.324 C 297.973 822.425 287.917 818.669 280.287 815.015 C 184.1 768.955 113.555 691.656 74.1861 593.166 C 62.6658 564.456 60.3227 546.849 54.4803 516.979 C 52.0383 502.867 46.2776 485.95 45.1386 471.802 C 45.0552 456.9 45.0467 441.998 45.1129 427.096 C 48.9592 394.536 62.0217 332.791 74.1892 303.435 C 77.3046 294.857 80.597 287.063 84.1587 278.692 C 120.566 202.628 172.395 142.133 245.268 99.2451 C 263.706 88.3943 282.87 77.8859 303.07 70.6681 z"/>
<path transform="translate(0,0)" fill="rgb(254,251,252)" d="M 303.07 70.6681 C 325.799 62.5278 360.171 51.0329 384.385 46.8803 C 427.257 39.5279 487.757 39.6363 530.44 47.8884 C 551.883 52.034 587.654 64.2684 607.922 71.5937 C 675.084 96.9623 736.489 147.68 779.853 204.268 C 780.624 203.809 781.698 203.17 783.075 202.35 C 801.509 202.688 821.29 202.665 839.531 204.663 C 839.982 204.79 840.433 204.918 840.883 205.045 C 841.087 218.176 843.909 286.747 837.604 293.616 C 837.391 293.848 837.153 294.056 836.928 294.277 L 835.994 293.827 L 833.725 290.58 C 832.308 301.579 841.731 323.25 844.472 335.292 C 849.706 358.288 857.98 384.912 858.034 408.526 C 854.702 405.019 853.822 383.266 852.567 377.438 C 851.655 373.206 849.292 369.035 847.967 365.118 C 845.707 365.812 843.887 367.484 842.759 369.645 C 839.502 375.881 851.247 413.414 844.019 425.382 C 844.003 451.289 844.239 485.697 841.753 511.491 C 838.733 542.831 821.031 591.283 806.554 620.055 C 773.635 619.398 740.705 619.361 707.784 619.944 C 706.901 618.554 705.14 609.466 704.659 607.25 C 700.949 591.103 695.777 575.389 691.891 559.461 C 676.722 497.286 657.995 436.05 641.125 374.265 L 610.38 261.048 C 600.263 223.213 589.795 149.877 541.268 144.154 C 479.82 136.907 478.039 193.65 465.839 237.464 C 450.411 296.951 431.572 357.049 419.808 417.254 C 406.984 483.779 373.81 537.406 327.619 585.79 C 292.995 622.059 299.737 619.942 249.627 619.417 C 233.138 619.229 216.649 619.174 200.16 619.25 C 181.942 619.307 163.726 619.518 145.512 619.885 C 130.333 620.138 114.813 620.884 99.7761 618.94 C 94.1887 601.72 86.9844 588.733 80.9382 572.52 C 73.4908 552.549 68.4598 526.269 65.4583 505.11 C 58.6198 510.287 57.4739 509.35 54.4803 516.979 C 52.0383 502.867 46.2776 485.95 45.1386 471.802 C 45.0552 456.9 45.0467 441.998 45.1129 427.096 C 48.9592 394.536 62.0217 332.791 74.1892 303.435 C 77.3046 294.857 80.597 287.063 84.1587 278.692 C 120.566 202.628 172.395 142.133 245.268 99.2451 C 263.706 88.3943 282.87 77.8859 303.07 70.6681 z"/>
<path transform="translate(0,0)" fill="rgb(11,0,6)" d="M 303.07 70.6681 C 325.799 62.5278 360.171 51.0329 384.385 46.8803 C 427.257 39.5279 487.757 39.6363 530.44 47.8884 C 551.883 52.034 587.654 64.2684 607.922 71.5937 C 675.084 96.9623 736.489 147.68 779.853 204.268 C 780.624 203.809 781.698 203.17 783.075 202.35 C 801.509 202.688 821.29 202.665 839.531 204.663 C 839.982 204.79 840.433 204.918 840.883 205.045 C 841.087 218.176 843.909 286.747 837.604 293.616 C 837.391 293.848 837.153 294.056 836.928 294.277 L 835.994 293.827 L 833.725 290.58 C 832.308 301.579 841.731 323.25 844.472 335.292 C 849.706 358.288 857.98 384.912 858.034 408.526 C 854.702 405.019 853.822 383.266 852.567 377.438 C 851.655 373.206 849.292 369.035 847.967 365.118 C 845.707 365.812 843.887 367.484 842.759 369.645 C 839.502 375.881 851.247 413.414 844.019 425.382 C 843.411 408.321 842.726 386.181 839.037 369.216 C 821.849 290.158 782.71 219.396 724.875 163.003 C 715.724 154.08 682.178 127.303 672.43 120.945 C 638.51 98.8223 583.289 73.0729 543.912 65.0768 C 508.992 57.9856 458.464 58.8291 422.845 59.3819 C 402.898 60.8751 377.912 61.2845 358.798 66.3993 C 317.471 77.4578 272.48 96.0547 236.819 120.027 C 216.662 133.577 183.796 160.558 167.661 178.065 C 114.503 235.745 76.7257 310.793 65.1676 388.591 C 61.1682 416.286 63.414 454.542 63.4908 482.92 C 63.5034 487.578 64.7049 500.546 65.4583 505.11 C 58.6198 510.287 57.4739 509.35 54.4803 516.979 C 52.0383 502.867 46.2776 485.95 45.1386 471.802 C 45.0552 456.9 45.0467 441.998 45.1129 427.096 C 48.9592 394.536 62.0217 332.791 74.1892 303.435 C 77.3046 294.857 80.597 287.063 84.1587 278.692 C 120.566 202.628 172.395 142.133 245.268 99.2451 C 263.706 88.3943 282.87 77.8859 303.07 70.6681 z"/>
<path transform="translate(0,0)" fill="rgb(254,251,252)" d="M 779.853 204.268 C 780.624 203.809 781.698 203.17 783.075 202.35 C 801.509 202.688 821.29 202.665 839.531 204.663 C 839.982 204.79 840.433 204.918 840.883 205.045 C 841.087 218.176 843.909 286.747 837.604 293.616 C 837.391 293.848 837.153 294.056 836.928 294.277 L 835.994 293.827 L 833.725 290.58 C 831.387 286.501 828.974 282.44 826.449 278.474 C 810.694 253.725 796.889 228.196 779.853 204.268 z"/>
<path transform="translate(0,0)" fill="rgb(224,197,208)" d="M 201.175 532.469 C 196.966 532.785 180.041 533.1 176.282 532.478 C 161.677 530.06 88.6436 534.669 82.5043 531.452 L 82.261 529.945 C 88.5364 525.823 168.309 528.916 181.809 527.516 C 188.911 526.78 206.211 529.255 214.003 528.506 C 243.592 527.653 273.268 528.137 302.865 528.325 C 308.812 528.363 336.093 528.096 340.551 530.067 L 340.719 530.487 C 335.39 532.32 227.399 533.918 219.019 532.258 L 218.611 531.07 C 212.799 531.81 206.101 528.327 201.175 532.469 z"/>
<path transform="translate(0,0)" fill="rgb(224,197,208)" d="M 371.288 73.3975 C 372.031 73.5942 372.563 73.7705 373.146 74.2954 C 380.823 81.2133 377.428 187.703 377.856 205.129 C 397.589 204.242 443.458 202.633 462.184 203.741 C 458.972 205.119 389.915 205.374 381.002 205.91 C 377.757 206.104 356.232 204.208 350.002 204.208 C 341.507 204.206 330.575 205.098 322.25 205.028 C 302.209 206.721 272.102 205.229 251.169 205.337 C 243.768 205.375 230.659 205.724 223.772 204.948 C 230.057 204.059 278.483 204.017 287.228 204.246 C 306.214 204.743 356.829 201.413 372.431 204.686 C 371.861 163.205 369.861 114.652 371.288 73.3975 z"/>
<path transform="translate(0,0)" fill="url(#Gradient3)" d="M 201.175 532.469 C 206.101 528.327 212.799 531.81 218.611 531.07 L 219.019 532.258 C 215.64 541.338 222.93 606.148 215.304 614.7 C 209.92 608.498 205.724 536.604 201.175 532.469 z"/>
<path transform="translate(0,0)" fill="rgb(174,157,170)" d="M 705.316 528.467 C 712.768 528.352 732.991 528.953 740.098 528.922 C 754.769 528.859 824.506 526.843 834.678 530.457 C 833.871 530.852 831.073 531.925 829.421 531.894 C 789.261 531.146 747.554 533.812 707.674 530.291 C 706.683 529.525 705.897 528.917 705.316 528.467 z"/>
<path transform="translate(0,0)" fill="rgb(254,251,252)" d="M 309.992 614.654 L 313.656 616.725 C 314.248 621.665 309.457 624.706 306.751 628.893 C 327.114 629.479 354.581 630.789 374.722 629.478 L 376.09 629.698 C 383.957 629.282 392.97 629.385 400.932 629.297 L 526.54 629.601 C 549.836 628.611 578.976 629.545 603.219 629.185 L 618.684 629.232 L 656.098 629.27 L 681.331 629.19 L 688.57 629.209 L 709.032 630.479 C 737.797 631.846 771.112 630.874 800.272 631.046 C 784.901 660.006 776.606 673.827 755.128 699.3 C 706.488 757.983 641.708 801.115 568.805 823.358 C 555.62 827.395 542.692 829.57 530.095 833.144 C 495.936 841.877 427.662 841.946 392.133 836.687 C 373.956 833.934 356.061 829.564 338.661 823.629 C 240.781 790.907 154.035 724.591 107.413 631.216 C 163.165 627.024 226.099 634.363 282.588 630.878 C 302.251 629.664 297.929 627.892 309.992 614.654 z"/>
<path transform="translate(0,0)" fill="url(#Gradient2)" d="M 681.331 629.19 L 688.57 629.209 L 709.032 630.479 C 737.797 631.846 771.112 630.874 800.272 631.046 C 784.901 660.006 776.606 673.827 755.128 699.3 C 706.488 757.983 641.708 801.115 568.805 823.358 C 555.62 827.395 542.692 829.57 530.095 833.144 C 526.213 826.743 528.232 828.914 527.485 823.154 C 525.01 804.055 531.584 713.79 525.753 702.124 C 516.74 698.48 396.478 698.424 378.229 698.841 C 378.093 720.265 378.174 741.69 378.472 763.113 C 378.671 774.564 380.577 808.645 378.224 817.443 C 375.594 794.245 377.972 763.936 376.742 740.217 C 376.111 728.045 378.642 710.077 375.708 698.624 L 374.689 698.101 C 373.243 699.982 372.202 704.206 372.27 706.505 C 373.143 736.048 370.3 765.492 371.336 795.033 C 371.549 801.124 371.912 808.313 370.883 814.182 L 370.044 814.207 C 369.025 809.787 369.551 788.548 369.598 782.299 C 369.608 754.149 370.071 726.002 370.988 697.868 C 322.221 700.452 266.257 695.339 218.668 698.276 C 218.715 704.592 218.628 710.908 218.405 717.221 C 216.812 713.979 217.046 699.915 219.061 696.856 C 238.114 695.686 249.522 696.747 268.039 696.943 L 334.948 697.049 C 344.81 697.053 357.215 697.231 367.244 696.675 C 368.864 696.585 369.319 694.872 370.2 693.28 C 370.198 690.728 370.689 688.731 369.456 686.997 C 351.372 684.553 327.778 686.941 309.314 687.038 C 286.834 687.155 264.218 687.614 241.725 687.489 C 234.738 687.45 222.846 688.56 217.548 683.753 C 215.739 680.937 216.811 677.252 217.329 673.758 C 218.133 677.455 217.945 681.173 217.912 684.955 C 259.676 687.094 301.271 685.174 343.03 685.029 C 352.081 684.997 361.12 685.222 370.161 684.711 C 371.528 682.599 371.623 677.718 371.868 674.972 C 372.206 660.646 368.903 641.368 374.722 629.478 L 376.09 629.698 C 383.957 629.282 392.97 629.385 400.932 629.297 L 526.54 629.601 C 549.836 628.611 578.976 629.545 603.219 629.185 L 618.684 629.232 L 656.098 629.27 L 681.331 629.19 z"/>
<path transform="translate(0,0)" fill="rgb(254,251,252)" d="M 400.932 629.297 L 526.54 629.601 C 527.068 640.347 528.829 672.954 527.254 682.374 C 524.763 684.801 506.457 683.614 501.636 683.654 C 478.733 683.843 454.404 685.532 431.61 685.074 C 421.67 684.874 382.805 687.201 377.118 685.057 C 376.404 686.145 375.788 686.299 374.597 687.022 L 373.187 686.147 C 371.805 682.887 371.972 678.592 371.868 674.972 C 372.206 660.646 368.903 641.368 374.722 629.478 L 376.09 629.698 C 383.957 629.282 392.97 629.385 400.932 629.297 z"/>
<path transform="translate(0,0)" fill="rgb(248,213,246)" d="M 374.722 629.478 L 376.09 629.698 C 379.748 640.662 377.112 671.601 377.118 685.057 C 376.404 686.145 375.788 686.299 374.597 687.022 L 373.187 686.147 C 371.805 682.887 371.972 678.592 371.868 674.972 C 372.206 660.646 368.903 641.368 374.722 629.478 z"/>
<path transform="translate(0,0)" fill="rgb(29,11,123)" d="M 545.641 337.254 C 553.581 350.711 563.882 366.414 570.509 380.272 C 587.201 415.176 606.391 448.167 624.538 482.232 C 640.673 512.521 655.554 543.674 672.903 573.365 L 675.625 578.355 C 680.305 586.753 692.986 614.881 696.091 618.904 C 693.524 623.924 692.441 625.014 688.57 629.209 L 681.331 629.19 L 656.098 629.27 L 618.684 629.232 L 603.219 629.185 C 578.976 629.545 549.836 628.611 526.54 629.601 L 400.932 629.297 C 392.97 629.385 383.957 629.282 376.09 629.698 L 374.722 629.478 C 354.581 630.789 327.114 629.479 306.751 628.893 C 309.457 624.706 314.248 621.665 313.656 616.725 L 309.992 614.654 C 325.902 597.169 344.723 581.173 359.487 562.755 C 367.456 552.814 380.026 527.326 389.281 519.877 C 392.892 520.083 393.95 519.353 396.408 516.836 C 413.839 498.984 429.926 478.198 445.762 459.004 C 472.24 426.499 499.219 394.404 526.688 362.732 C 533.246 354.287 539.337 345.358 545.641 337.254 z"/>
<path transform="translate(0,0)" fill="rgb(152,53,6)" d="M 389.281 519.877 C 392.892 520.083 393.95 519.353 396.408 516.836 C 413.839 498.984 429.926 478.198 445.762 459.004 C 472.24 426.499 499.219 394.404 526.688 362.732 C 527.2 365.486 528.221 369.846 527.209 372.357 C 519.934 390.411 509.308 407.941 500.64 425.489 L 426.117 574.497 C 420.825 585.121 401.72 618.786 400.932 629.297 C 392.97 629.385 383.957 629.282 376.09 629.698 L 374.722 629.478 C 354.581 630.789 327.114 629.479 306.751 628.893 C 309.457 624.706 314.248 621.665 313.656 616.725 L 309.992 614.654 C 325.902 597.169 344.723 581.173 359.487 562.755 C 367.456 552.814 380.026 527.326 389.281 519.877 z"/>
<path transform="translate(0,0)" fill="rgb(58,50,163)" d="M 672.903 573.365 L 675.625 578.355 C 680.305 586.753 692.986 614.881 696.091 618.904 C 693.524 623.924 692.441 625.014 688.57 629.209 L 681.331 629.19 L 656.098 629.27 C 654.826 617.049 639.594 610.006 629.099 607.182 C 643.015 594.103 655.373 579.653 672.903 573.365 z"/>
<path transform="translate(0,0)" fill="rgb(29,11,123)" d="M 657.103 593.571 C 659.508 591.513 675.164 579.07 675.625 578.355 C 680.305 586.753 692.986 614.881 696.091 618.904 C 693.524 623.924 692.441 625.014 688.57 629.209 L 681.331 629.19 C 679.718 619.506 663.268 603.096 657.103 593.571 z"/>
<path transform="translate(0,0)" fill="rgb(58,50,163)" d="M 603.219 629.185 C 605.677 620.035 608.237 620.864 616.353 615.143 C 617.136 619.672 618.127 624.716 618.684 629.232 L 603.219 629.185 z"/>
<path transform="translate(0,0)" fill="rgb(58,50,163)" d="M 589.002 591.694 C 600.113 595.878 603.363 610.676 594.93 615.453 C 592.607 615.035 587.735 614.264 585.867 613.013 C 583.761 611.574 582.387 609.289 582.105 606.754 C 581.55 601.384 585.842 595.544 589.002 591.694 z"/>
<path transform="translate(0,0)" fill="rgb(254,251,252)" d="M 389.281 519.877 C 413.131 479.547 419.731 455.494 429.019 410.015 C 441.02 356.85 457.008 304.763 471.331 252.24 C 479.147 225.357 482.893 194.7 495.278 169.68 C 500.14 159.858 518.909 151.838 529.558 151.416 C 574.613 149.629 583.7 196.935 592.085 227.016 C 597.786 246.913 603.304 266.863 608.64 286.861 C 615.61 312.895 624.497 341.615 630.872 367.236 C 645.918 428.364 662.563 489.088 680.79 549.344 C 684.518 561.859 690.029 587.809 694.659 598.651 C 696.011 603.391 699.308 613.184 698.695 617.456 C 697.198 618.997 698.069 618.585 696.091 618.904 C 692.986 614.881 680.305 586.753 675.625 578.355 L 672.903 573.365 C 655.554 543.674 640.673 512.521 624.538 482.232 C 606.391 448.167 587.201 415.176 570.509 380.272 C 563.882 366.414 553.581 350.711 545.641 337.254 C 539.337 345.358 533.246 354.287 526.688 362.732 C 499.219 394.404 472.24 426.499 445.762 459.004 C 429.926 478.198 413.839 498.984 396.408 516.836 C 393.95 519.353 392.892 520.083 389.281 519.877 z"/>
<path transform="translate(0,0)" fill="rgb(254,251,252)" d="M 833.725 290.58 L 835.994 293.827 L 836.928 294.277 L 846.675 309.835 C 851.424 316.121 862.788 335.26 867.491 338.856 C 867.77 339.509 869.152 342.639 869.259 343.118 L 867.629 345.099 L 868.325 350.125 C 871.127 354.8 874.043 359.405 877.069 363.936 C 903.997 405.18 930.241 446.865 955.79 488.976 C 955.366 489.603 953.617 492.269 953.237 492.679 C 944.111 494.644 917.827 494.387 908.979 492.699 L 909.079 689.621 C 909.009 708.017 909.034 726.413 909.155 744.809 C 909.191 752.255 909.708 767.715 908.988 774.684 L 909.598 775.748 L 910.09 783.858 L 912.396 784.033 C 911.946 794.794 911.747 805.563 911.8 816.333 L 909.548 816.889 C 899.131 818.43 888.617 819.414 878.139 820.485 C 866.818 821.621 853.603 822.097 842.183 822.422 C 840.998 798.236 841.619 768.563 841.823 744.18 L 841.752 672.995 C 841.75 656.844 842.52 613.339 838.442 599.836 L 831.678 598.089 C 834.81 588.281 839.42 577.963 842.175 568.093 C 858.475 509.698 863.948 468.553 858.034 408.526 C 857.98 384.912 849.706 358.288 844.472 335.292 C 841.731 323.25 832.308 301.579 833.725 290.58 z"/>
<path transform="translate(0,0)" fill="rgb(238,142,208)" d="M 833.725 290.58 L 835.994 293.827 L 836.928 294.277 L 846.675 309.835 C 851.424 316.121 862.788 335.26 867.491 338.856 C 867.77 339.509 869.152 342.639 869.259 343.118 L 867.629 345.099 L 868.325 350.125 C 871.127 354.8 874.043 359.405 877.069 363.936 C 874.077 366.441 872.193 366.86 872.116 370.991 C 871.139 423.216 871.043 476.056 871.2 528.28 L 871.099 538.057 C 871.07 564.268 869.866 814.458 872.704 819.732 C 874.651 820.076 876.172 820.294 878.139 820.485 C 866.818 821.621 853.603 822.097 842.183 822.422 C 840.998 798.236 841.619 768.563 841.823 744.18 L 841.752 672.995 C 841.75 656.844 842.52 613.339 838.442 599.836 L 831.678 598.089 C 834.81 588.281 839.42 577.963 842.175 568.093 C 858.475 509.698 863.948 468.553 858.034 408.526 C 857.98 384.912 849.706 358.288 844.472 335.292 C 841.731 323.25 832.308 301.579 833.725 290.58 z"/>
<path transform="translate(0,0)" fill="rgb(60,0,57)" d="M 846.675 309.835 C 851.424 316.121 862.788 335.26 867.491 338.856 C 867.77 339.509 869.152 342.639 869.259 343.118 L 867.629 345.099 L 868.325 350.125 L 844.54 313.016 L 846.675 309.835 z"/>
<path transform="translate(0,0)" fill="rgb(35,15,31)" d="M 835.994 293.827 L 836.928 294.277 L 846.675 309.835 L 844.54 313.016 C 841.553 308.514 835.54 298.968 835.994 293.827 z"/>
<path transform="translate(0,0)" fill="rgb(174,157,170)" d="M 910.09 783.858 L 912.396 784.033 C 911.946 794.794 911.747 805.563 911.8 816.333 L 909.548 816.889 C 908.951 811.951 909.918 789.526 910.09 783.858 z"/>
<path transform="translate(0,0)" fill="rgb(224,197,208)" d="M 871.2 528.28 C 873.737 529.763 888.901 527.433 892.732 530.267 L 892.144 531.968 C 881.53 537.009 873.371 523.29 871.099 538.057 L 871.2 528.28 z"/>
<path transform="translate(0,0)" fill="rgb(248,213,246)" d="M 874.837 687.32 C 879.894 686.958 885.922 685.757 889.846 688.672 C 891.601 692.579 891.045 691.608 890.58 696.348 C 884.388 695.461 879.618 696.106 875.562 692.261 C 875.501 690.005 875.374 689.53 874.837 687.32 z"/>
<path transform="translate(0,0)" fill="rgb(254,251,252)" d="M 831.678 598.089 L 838.442 599.836 C 842.52 613.339 841.75 656.844 841.752 672.995 L 841.823 744.18 C 841.619 768.563 840.998 798.236 842.183 822.422 C 794.594 826.53 746.377 827.93 698.784 833.356 C 667.512 836.922 636.606 838.934 605.153 839.782 C 595.998 840.029 576.075 842.093 567.886 840.458 L 610.74 822.66 C 711.382 780.255 790.92 699.41 831.678 598.089 z"/>
<path transform="translate(0,0)" fill="rgb(35,15,31)" d="M 694.659 598.651 L 695.166 599.183 C 699.173 603.458 698.827 607.291 702.358 609.334 C 704.356 608.621 703.57 609.245 704.659 607.25 C 705.14 609.466 706.901 618.554 707.784 619.944 C 706.605 624.532 707.693 625.555 709.032 630.479 L 688.57 629.209 C 692.441 625.014 693.524 623.924 696.091 618.904 C 698.069 618.585 697.198 618.997 698.695 617.456 C 699.308 613.184 696.011 603.391 694.659 598.651 z"/>
<path transform="translate(0,0)" fill="rgb(254,251,252)" d="M 869.259 343.118 C 875.144 354.89 882.491 364.923 889.425 376.089 L 934.983 448.136 L 1058.57 643.883 C 1063.96 652.358 1097.61 702.513 1098.88 708.145 C 1101.75 705.373 1101.3 704.888 1104.54 704.421 C 1108.01 703.448 1112.6 702.793 1116.24 702.169 C 1117.19 697.773 1117.44 681.147 1117.49 675.674 C 1117.72 651.122 1118.26 625.107 1117.15 600.622 C 1105.84 601.18 1049.89 601.912 1042.13 598.797 C 1048.97 597.815 1062.68 598.309 1070.05 598.347 L 1117.29 598.491 C 1117.59 564.824 1117.57 531.155 1117.21 497.489 L 1120.17 497.638 L 1120.6 497.083 C 1122.96 494.014 1131.16 495.419 1137.33 494.104 C 1164 492.922 1197.11 493.79 1224.23 493.764 L 1224.04 497.087 C 1241.44 499.612 1318.53 495.006 1325.44 497.94 L 1327.58 496.579 C 1334.31 497.518 1372.69 496.871 1379.45 496.079 C 1396.54 496.747 1412.23 496.775 1429.22 496.973 C 1429.01 519.968 1428.99 542.964 1429.18 565.96 C 1429.23 573.459 1428.98 592.22 1429.84 598.705 L 1429.21 599.92 C 1428.93 623.296 1428.88 646.674 1429.07 670.051 C 1429.08 675.109 1429.35 697.128 1428.59 701.197 C 1428.63 709.683 1427.2 714.909 1426.49 722.831 L 1429.98 721.755 C 1430.54 747.07 1420.28 780.692 1410.27 803.957 C 1392.08 803.758 1363.4 802.642 1346 798.71 C 1321.85 792.671 1308.85 767.765 1281.49 774.262 C 1266.34 777.861 1254.39 791.087 1241.96 795.999 C 1214.43 806.87 1210.59 793.622 1201 827.62 C 1195.64 846.601 1187.07 869.823 1185.17 890.65 C 1184.97 892.137 1182 893.27 1180.58 893.624 C 1178.08 892.421 1176.59 891.538 1175.7 888.651 C 1174.16 883.666 1173.75 782.203 1174.28 771.868 C 1170.73 768.668 1171.16 768.667 1166.76 769.851 C 1164.95 781.663 1161.91 804.942 1152 812.525 C 1140.47 821.354 1111.78 808.363 1104.95 797.452 L 1104.63 796.944 C 1104.46 796.643 1104.28 796.343 1104.11 796.042 L 1101.69 793.544 C 1085.9 803.647 1072.45 806.643 1053.6 804.585 C 1042.94 805.222 1031.67 807.535 1019.95 808.277 C 984.221 810.541 947.365 812.218 911.8 816.333 C 911.747 805.563 911.946 794.794 912.396 784.033 L 910.09 783.858 L 909.598 775.748 L 908.988 774.684 C 909.708 767.715 909.191 752.255 909.155 744.809 C 909.034 726.413 909.009 708.017 909.079 689.621 L 908.979 492.699 C 917.827 494.387 944.111 494.644 953.237 492.679 C 953.617 492.269 955.366 489.603 955.79 488.976 C 930.241 446.865 903.997 405.18 877.069 363.936 C 874.043 359.405 871.127 354.8 868.325 350.125 L 867.629 345.099 L 869.259 343.118 z"/>
<path transform="translate(0,0)" fill="rgb(254,251,252)" d="M 955.79 488.976 C 970.616 510.979 986.247 534.245 999.619 557.246 C 1009.99 575.086 1020.93 591.756 1032.75 608.636 C 1053.35 642.807 1076.24 676.334 1096.75 710.397 C 1034.82 681.983 988.754 755.127 1030.6 793.106 C 1010.02 793.284 990.716 796.083 973.142 782.705 C 949.987 765.078 939.363 765.202 912.746 771.589 L 910.365 772.644 L 909.598 775.748 L 908.988 774.684 C 909.708 767.715 909.191 752.255 909.155 744.809 C 909.034 726.413 909.009 708.017 909.079 689.621 L 908.979 492.699 C 917.827 494.387 944.111 494.644 953.237 492.679 C 953.617 492.269 955.366 489.603 955.79 488.976 z"/>
<path transform="translate(0,0)" fill="rgb(197,180,192)" d="M 908.979 492.699 C 917.827 494.387 944.111 494.644 953.237 492.679 L 953.757 494.405 C 946.003 496.464 920.812 497.006 911.928 497.054 C 912.397 530.76 911.23 565.619 911.898 598.572 C 936.322 598.318 982.978 596.753 1006.16 598.452 C 1001.73 601.376 923.954 601.197 911.898 601.071 C 912.246 634.649 911.407 668.713 911.835 701.923 C 943.321 701.892 983.624 700.718 1014.42 702.367 C 1014 682.878 1012.74 656.057 1014.39 637.228 L 1014.97 637.352 C 1017.21 653.376 1015.45 684.816 1015.51 702.416 C 1020.38 702.411 1027.45 702.062 1031.95 703.337 C 1025.27 704.094 1018.08 703.634 1011.32 703.782 C 978.328 704.508 944.737 703.45 911.799 704.852 C 911.955 724.225 912.078 749.87 911.188 769.985 C 911.797 770.613 912.317 771.147 912.746 771.589 L 910.365 772.644 L 909.598 775.748 L 908.988 774.684 C 909.708 767.715 909.191 752.255 909.155 744.809 C 909.034 726.413 909.009 708.017 909.079 689.621 L 908.979 492.699 z"/>
<path transform="translate(0,0)" fill="rgb(3,1,2)" d="M 869.259 343.118 C 875.144 354.89 882.491 364.923 889.425 376.089 L 934.983 448.136 L 1058.57 643.883 C 1063.96 652.358 1097.61 702.513 1098.88 708.145 C 1099.86 711.861 1106.6 719.062 1109.24 722.666 C 1124.13 743.011 1122.14 767.739 1111.41 789.986 C 1106.03 777.766 1138.28 730.753 1082.3 709.087 C 1080.91 708.55 1079.51 708.035 1078.1 707.543 C 1083.51 715.709 1084.26 716.992 1087.58 725.782 C 1092.62 739.111 1099.36 782.303 1108.35 790.79 C 1120.47 805.827 1131.75 807.98 1150.03 808.127 C 1155.54 798.204 1157.33 782.869 1159.61 771.859 C 1168.51 728.927 1171.53 685.7 1173.94 642.026 C 1174.18 637.596 1175.33 629.963 1178.92 627.018 L 1180.68 627.239 C 1182.58 629.554 1183.5 630.783 1183.38 634.006 C 1181.72 680.581 1181.87 726.888 1182.76 773.484 C 1183.31 802.438 1182.43 831.712 1184.81 860.63 C 1188.64 842.928 1195.82 819.408 1204.21 803.301 C 1211.46 789.372 1226 795.472 1240.67 789.576 C 1254.81 783.894 1265.62 771.575 1279.41 768.379 C 1296.56 764.405 1310.76 771.419 1324.69 780.028 C 1343.41 795.833 1384.54 796.357 1407.88 793.19 C 1412.74 792.53 1422.32 733.984 1426.49 722.831 L 1429.98 721.755 C 1430.54 747.07 1420.28 780.692 1410.27 803.957 C 1392.08 803.758 1363.4 802.642 1346 798.71 C 1321.85 792.671 1308.85 767.765 1281.49 774.262 C 1266.34 777.861 1254.39 791.087 1241.96 795.999 C 1214.43 806.87 1210.59 793.622 1201 827.62 C 1195.64 846.601 1187.07 869.823 1185.17 890.65 C 1184.97 892.137 1182 893.27 1180.58 893.624 C 1178.08 892.421 1176.59 891.538 1175.7 888.651 C 1174.16 883.666 1173.75 782.203 1174.28 771.868 C 1170.73 768.668 1171.16 768.667 1166.76 769.851 C 1164.95 781.663 1161.91 804.942 1152 812.525 C 1140.47 821.354 1111.78 808.363 1104.95 797.452 L 1104.63 796.944 C 1104.46 796.643 1104.28 796.343 1104.11 796.042 L 1101.69 793.544 C 1085.9 803.647 1072.45 806.643 1053.6 804.585 C 1042.94 805.222 1031.67 807.535 1019.95 808.277 C 984.221 810.541 947.365 812.218 911.8 816.333 C 911.747 805.563 911.946 794.794 912.396 784.033 L 910.09 783.858 L 909.598 775.748 L 910.365 772.644 L 912.746 771.589 C 939.363 765.202 949.987 765.078 973.142 782.705 C 990.716 796.083 1010.02 793.284 1030.6 793.106 C 988.754 755.127 1034.82 681.983 1096.75 710.397 C 1076.24 676.334 1053.35 642.807 1032.75 608.636 C 1020.93 591.756 1009.99 575.086 999.619 557.246 C 986.247 534.245 970.616 510.979 955.79 488.976 C 930.241 446.865 903.997 405.18 877.069 363.936 C 874.043 359.405 871.127 354.8 868.325 350.125 L 867.629 345.099 L 869.259 343.118 z"/>
<path transform="translate(0,0)" fill="rgb(254,251,252)" d="M 912.396 784.033 C 913.061 781.358 913.444 777.339 915.968 776.596 C 928.684 772.853 940.073 771.192 952.219 776.863 C 970.563 785.428 977.642 794.588 997.235 799.774 C 1007.75 802.557 1043.03 799.964 1046.69 801.302 L 1047.69 803.388 L 1053.6 804.585 C 1042.94 805.222 1031.67 807.535 1019.95 808.277 C 984.221 810.541 947.365 812.218 911.8 816.333 C 911.747 805.563 911.946 794.794 912.396 784.033 z"/>
<path transform="translate(0,0)" fill="rgb(254,251,252)" d="M 1046.69 801.302 C 1052.39 784.955 1056.97 768.234 1060.37 751.258 C 1062.1 742.971 1064.76 718.849 1071.09 714.513 L 1073.41 715.15 C 1086.96 726.532 1087.93 769.326 1101.69 793.544 C 1085.9 803.647 1072.45 806.643 1053.6 804.585 L 1047.69 803.388 L 1046.69 801.302 z"/>
<path transform="translate(0,0)" fill="rgb(197,180,192)" d="M 1174.19 725.929 C 1175.69 742.203 1175.14 755.685 1174.28 771.868 C 1170.73 768.668 1171.16 768.667 1166.76 769.851 C 1169.31 756.789 1171.3 737.152 1174.19 725.929 z"/>
<path transform="translate(0,0)" fill="rgb(254,251,252)" d="M 1065 706.263 C 1065.85 706.878 1065.51 706.885 1065.87 708.462 C 1054.49 729.999 1054.39 746.385 1050.24 769.675 C 1048.08 781.799 1044.18 802.455 1029.03 786.45 C 1007.98 760.508 1020.77 725.148 1049.03 711.968 C 1055 709.183 1058.73 707.939 1065 706.263 z"/>
<path transform="translate(0,0)" fill="rgb(254,251,252)" d="M 1379.45 496.079 C 1396.54 496.747 1412.23 496.775 1429.22 496.973 C 1429.01 519.968 1428.99 542.964 1429.18 565.96 C 1429.23 573.459 1428.98 592.22 1429.84 598.705 L 1429.21 599.92 C 1420.82 601.671 1399.84 601.201 1390.67 601.192 L 1327.07 601.105 L 1326 600.01 L 1326.96 598.201 C 1328.87 591.243 1328.6 507.534 1327.58 496.579 C 1334.31 497.518 1372.69 496.871 1379.45 496.079 z"/>
<path transform="translate(0,0)" fill="rgb(224,197,208)" d="M 1326.96 598.201 L 1395.72 597.92 C 1402.48 597.91 1424.55 597.503 1429.84 598.705 L 1429.21 599.92 C 1420.82 601.671 1399.84 601.201 1390.67 601.192 L 1327.07 601.105 L 1326 600.01 L 1326.96 598.201 z"/>
<path transform="translate(0,0)" fill="rgb(239,238,240)" d="M 1409.46 549.18 C 1410.84 549.827 1411.43 550.337 1412.66 551.199 C 1415.09 556.024 1414.91 559.318 1414.06 564.605 C 1412.59 564.276 1411.64 563.517 1410.36 562.7 C 1407.87 557.956 1408.49 554.386 1409.46 549.18 z"/>
<path transform="translate(0,0)" fill="rgb(254,251,252)" d="M 1224.04 497.087 C 1241.44 499.612 1318.53 495.006 1325.44 497.94 C 1325.11 520.768 1324.97 543.599 1325.03 566.429 C 1325.05 572.835 1324.82 592.919 1325.97 598.611 L 1325.08 600.897 C 1295.83 602.416 1254.3 601.018 1223.95 600.98 L 1223.67 598.188 C 1224.44 590.695 1224.03 572.522 1224.04 564.373 L 1224.04 497.087 z"/>
<path transform="translate(0,0)" fill="rgb(224,197,208)" d="M 1223.67 598.188 C 1247.1 597.917 1270.53 597.8 1293.96 597.836 C 1300.97 597.86 1319.89 597.587 1325.97 598.611 L 1325.08 600.897 C 1295.83 602.416 1254.3 601.018 1223.95 600.98 L 1223.67 598.188 z"/>
<path transform="translate(0,0)" fill="rgb(254,251,252)" d="M 1223.95 600.98 C 1254.3 601.018 1295.83 602.416 1325.08 600.897 L 1325.3 664.428 C 1325.36 675.512 1324.98 691.246 1326.11 701.983 C 1292 701.475 1256.86 701.951 1222.68 702.001 C 1224.37 668.21 1224.05 634.802 1223.95 600.98 z"/>
<path transform="translate(0,0)" fill="rgb(239,238,240)" d="M 1304.63 635.209 L 1306.98 636.463 C 1309.49 641.651 1308.03 658.725 1306.54 664.441 L 1306 664.62 C 1305.09 663.262 1305.07 639.549 1304.63 635.209 z"/>
<path transform="translate(0,0)" fill="rgb(254,251,252)" d="M 1120.6 497.083 C 1130.65 497.817 1145.47 497.263 1155.87 497.175 C 1177.58 496.965 1199.29 496.924 1221 497.054 C 1221.54 530.875 1221.63 564.701 1221.28 598.523 C 1187.62 598.241 1153.39 598.683 1119.89 598.224 C 1120.27 564.052 1120.5 531.926 1120.17 497.638 L 1120.6 497.083 z"/>
<path transform="translate(0,0)" fill="rgb(254,251,252)" d="M 1327.07 601.105 L 1390.67 601.192 C 1399.84 601.201 1420.82 601.671 1429.21 599.92 C 1428.93 623.296 1428.88 646.674 1429.07 670.051 C 1429.08 675.109 1429.35 697.128 1428.59 701.197 L 1427.21 703.388 C 1422.54 700.666 1340.12 701.876 1327.85 701.906 C 1327.38 679.284 1328.51 655.637 1328.05 632.909 C 1327.85 623.393 1328.45 610.332 1327.07 601.105 z"/>
<path transform="translate(0,0)" fill="url(#Gradient1)" d="M 1427.21 703.388 L 1428.59 701.197 C 1428.63 709.683 1427.2 714.909 1426.49 722.831 C 1422.32 733.984 1412.74 792.53 1407.88 793.19 C 1384.54 796.357 1343.41 795.833 1324.69 780.028 C 1326.57 777.399 1327.08 775.965 1326.82 773.099 C 1327.06 749.602 1328 728.384 1327.81 704.412 C 1340.02 704.383 1423.89 704.928 1427.21 703.388 z"/>
<path transform="translate(0,0)" fill="rgb(197,180,192)" d="M 1137.33 494.104 C 1164 492.922 1197.11 493.79 1224.23 493.764 L 1224.04 497.087 L 1224.04 564.373 C 1224.03 572.522 1224.44 590.695 1223.67 598.188 L 1223.95 600.98 C 1224.05 634.802 1224.37 668.21 1222.68 702.001 C 1256.86 701.951 1292 701.475 1326.11 701.983 C 1324.98 691.246 1325.36 675.512 1325.3 664.428 L 1325.08 600.897 L 1325.97 598.611 C 1324.82 592.919 1325.05 572.835 1325.03 566.429 C 1324.97 543.599 1325.11 520.768 1325.44 497.94 L 1327.58 496.579 C 1328.6 507.534 1328.87 591.243 1326.96 598.201 L 1326 600.01 L 1327.07 601.105 C 1328.45 610.332 1327.85 623.393 1328.05 632.909 C 1328.51 655.637 1327.38 679.284 1327.85 701.906 C 1340.12 701.876 1422.54 700.666 1427.21 703.388 C 1423.89 704.928 1340.02 704.383 1327.81 704.412 C 1328 728.384 1327.06 749.602 1326.82 773.099 C 1326.73 772.975 1326.65 772.848 1326.56 772.728 C 1322.54 767.382 1325.04 714.631 1325.12 703.965 C 1292.38 705.581 1255.6 702.682 1222.97 704.908 C 1223.7 724.883 1224.92 767.984 1222.95 786.833 C 1222.11 782.234 1222 764.32 1221.93 758.769 C 1221.68 740.683 1220.77 721.685 1221.4 703.705 C 1209.02 705.065 1202 705.727 1189.64 704.938 L 1189.55 704.285 C 1200.16 702.409 1211.62 702.407 1222.42 702.146 C 1221.03 695.872 1221.43 672.215 1221.44 664.369 L 1221.38 599.685 C 1198.71 602.413 1144.91 601.03 1119.88 601.012 C 1120.69 635.582 1119.6 668.306 1119.49 702.655 C 1126.33 702.12 1161.94 700.801 1166.77 702.957 C 1164.8 704.593 1110.06 705.439 1104.54 704.421 C 1108.01 703.448 1112.6 702.793 1116.24 702.169 C 1117.19 697.773 1117.44 681.147 1117.49 675.674 C 1117.72 651.122 1118.26 625.107 1117.15 600.622 C 1105.84 601.18 1049.89 601.912 1042.13 598.797 C 1048.97 597.815 1062.68 598.309 1070.05 598.347 L 1117.29 598.491 C 1117.59 564.824 1117.57 531.155 1117.21 497.489 L 1120.17 497.638 C 1120.5 531.926 1120.27 564.052 1119.89 598.224 C 1153.39 598.683 1187.62 598.241 1221.28 598.523 C 1221.63 564.701 1221.54 530.875 1221 497.054 C 1199.29 496.924 1177.58 496.965 1155.87 497.175 C 1145.47 497.263 1130.65 497.817 1120.6 497.083 C 1122.96 494.014 1131.16 495.419 1137.33 494.104 z"/>
<path transform="translate(0,0)" fill="rgb(238,142,208)" d="M 42.3987 15.4532 L 65.3001 14.9734 C 66.378 21.0688 66.8756 25.7068 67.4335 31.8536 C 80.9901 33.6275 103.761 33.2036 117.95 33.2463 L 208.808 32.9901 L 215.891 33.0697 L 609.975 33.7884 L 776.642 33.2698 C 797.335 33.2893 822.12 32.5904 842.532 33.2052 C 842.296 27.3665 842.037 21.7009 842.084 15.8504 C 851.433 15.8723 861.384 15.719 870.68 16.0181 C 871.512 21.7702 872.288 26.637 872.49 32.4725 C 877.548 32.7666 886.292 33.0572 891.038 33.8078 C 892.07 43.0972 892.251 53.3132 891.975 62.685 C 884.544 62.9582 878.366 63.1099 870.946 62.8368 C 872.099 90.2546 872.452 117.7 872.003 145.139 C 871.906 157.161 871.004 180.222 871.829 191.646 C 870.558 208.125 870.751 226.911 871.153 243.512 C 870.938 262.447 873.458 325.823 867.491 338.856 C 862.788 335.26 851.424 316.121 846.675 309.835 L 836.928 294.277 C 837.153 294.056 837.391 293.848 837.604 293.616 C 843.909 286.747 841.087 218.176 840.883 205.045 C 840.433 204.918 839.982 204.79 839.531 204.663 C 821.29 202.665 801.509 202.688 783.075 202.35 C 781.698 203.17 780.624 203.809 779.853 204.268 C 736.489 147.68 675.084 96.9623 607.922 71.5937 C 587.654 64.2684 551.883 52.034 530.44 47.8884 C 487.757 39.6363 427.257 39.5279 384.385 46.8803 C 360.171 51.0329 325.799 62.5278 303.07 70.6681 C 282.87 77.8859 263.706 88.3943 245.268 99.2451 C 172.395 142.133 120.566 202.628 84.1587 278.692 C 80.597 287.063 77.3046 294.857 74.1892 303.435 C 62.0217 332.791 48.9592 394.536 45.1129 427.096 C 44.3132 410.349 40.8901 394.846 40.6079 375.7 C 39.9889 333.699 40.0766 291.741 39.729 249.747 C 40.1635 245.622 39.846 232.759 39.8471 228.108 L 39.7606 183.419 C 40.5495 149.699 38.7951 115.407 39.2125 81.7773 L 38.4345 81.1597 C 30.9786 75.3573 31.2295 68.008 26.7457 63.3121 L 17.1455 60.9112 L 16.1007 36.4705 C 24.5567 34.7266 31.0854 33.07 38.7405 29.1009 C 40.1729 25.0897 41.3507 19.6776 42.3987 15.4532 z"/>
<path transform="translate(0,0)" fill="rgb(254,251,252)" d="M 66.2155 62.9463 C 140.386 63.8047 215.66 61.0477 289.806 64.5685 C 297.849 64.9504 298.132 64.741 303.07 70.6681 C 282.87 77.8859 263.706 88.3943 245.268 99.2451 C 172.395 142.133 120.566 202.628 84.1587 278.692 C 80.597 287.063 77.3046 294.857 74.1892 303.435 C 62.4703 296.936 65.8169 286.216 66.0126 273.874 C 66.9963 256.142 66.1964 225.35 66.1844 206.951 C 65.9322 158.95 65.9425 110.947 66.2155 62.9463 z"/>
<path transform="translate(0,0)" fill="rgb(244,180,232)" d="M 66.0126 273.874 C 67.312 278.706 67.6717 283.064 70.9922 286.158 C 73.9902 286.543 74.6404 287.328 76.6791 289.373 C 81.3364 285.758 77.5133 278.741 84.1587 278.692 C 80.597 287.063 77.3046 294.857 74.1892 303.435 C 62.4703 296.936 65.8169 286.216 66.0126 273.874 z"/>
<path transform="translate(0,0)" fill="rgb(254,251,252)" d="M 607.922 71.5937 C 611.01 67.4348 613.374 66.5385 618.464 65.8156 C 646.242 61.8704 675.885 63.0105 703.848 63.0052 L 841.076 62.9683 C 840.997 108.986 842.191 159.677 840.883 205.045 C 840.433 204.918 839.982 204.79 839.531 204.663 C 821.29 202.665 801.509 202.688 783.075 202.35 C 781.698 203.17 780.624 203.809 779.853 204.268 C 736.489 147.68 675.084 96.9623 607.922 71.5937 z"/>
<path transform="translate(0,0)" fill="rgb(248,213,246)" d="M 26.7457 63.3121 L 39.9876 63.0182 C 39.073 70.5517 39.5504 74.7327 39.2125 81.7773 L 38.4345 81.1597 C 30.9786 75.3573 31.2295 68.008 26.7457 63.3121 z"/>
<path transform="translate(0,0)" fill="rgb(197,180,192)" d="M 1429.16 910.081 C 1428.96 897.025 1427.97 798.285 1430.32 791.88 C 1433.41 824.166 1431.98 876.593 1431.89 910.49 C 1434.59 910.491 1440.08 910.234 1442.34 911.093 C 1438.25 911.494 1435.96 911.597 1431.86 911.51 C 1432.06 937.571 1432.1 963.634 1431.98 989.696 C 1431.97 993.907 1432.24 1016.58 1431.71 1019.55 L 1431.46 1024 L 908.484 1024 L 908.642 1020.95 C 908.154 1016.39 909.444 1001.31 909.457 995.6 L 909.138 901.545 C 909.171 890.66 911.044 829.101 908.776 822.724 L 906.192 821.512 C 907.619 820.822 910.536 821.296 912.272 821.431 C 944.51 817.564 986.518 814.85 1019.27 812.084 L 1018.02 814.43 C 1016.49 825.067 1016.9 839.885 1016.9 850.945 C 1017 870.594 1016.96 890.243 1016.78 909.891 C 1050.19 909.899 1084.71 909.441 1118.02 909.95 C 1117.71 898.826 1116.57 827.388 1118.46 821.298 C 1121.14 847.377 1120.06 882.978 1119.91 909.916 C 1153.77 909.7 1187.63 909.74 1221.49 910.033 C 1221.5 906.125 1221.45 847.259 1222.12 845.934 C 1224.26 866.455 1223.92 889.262 1223.91 909.899 L 1326.15 909.82 C 1324.83 895.965 1324.67 818.837 1326.93 806.541 C 1327.88 814.303 1327.97 822.968 1327.92 830.845 C 1327.76 857.107 1328.29 883.513 1327.81 909.76 C 1361.09 909.896 1396.1 909.278 1429.16 910.081 z"/>
<path transform="translate(0,0)" fill="rgb(254,251,252)" d="M 912.272 821.431 C 944.51 817.564 986.518 814.85 1019.27 812.084 L 1018.02 814.43 C 1014.95 815.279 1015.88 814.554 1014.35 816.983 C 1013.43 827.605 1013.9 841.286 1013.95 852.156 L 1014.14 910.01 C 980.651 909.862 945.476 909.573 912.009 910.111 C 911.895 880.572 912.532 850.837 912.272 821.431 z"/>
<path transform="translate(0,0)" fill="rgb(254,251,252)" d="M 908.642 1020.95 C 910.173 1019.72 913.871 1016.8 916.024 1016.68 C 947.158 1015.06 979.081 1016.32 1010.26 1017.01 C 1012.5 1017.06 1014.37 1018.46 1015.61 1019.99 C 1017.73 1017.37 1017.1 1017.26 1020.65 1017.05 C 1051.18 1015.22 1081.76 1017.15 1112.19 1016.99 C 1210.18 1016.49 1308.15 1017.34 1406.14 1016.15 C 1412.16 1016.08 1427.46 1015.96 1431.71 1019.55 L 1431.46 1024 L 908.484 1024 L 908.642 1020.95 z"/>
<path transform="translate(0,0)" fill="rgb(254,251,252)" d="M 1016.54 912.073 C 1045.45 913.329 1088.2 912.166 1117.72 911.8 C 1116.05 943.435 1118.91 980.614 1117.31 1014.1 C 1083.83 1013.79 1050.35 1013.84 1016.87 1014.27 C 1015.91 980.211 1015.8 946.135 1016.54 912.073 z"/>
<path transform="translate(0,0)" fill="rgb(254,251,252)" d="M 1220.22 911.687 L 1221.2 912.501 C 1222.95 941.765 1221.91 984.04 1222.18 1014.02 C 1188.61 1013.65 1154.64 1013.93 1121.04 1013.95 C 1120.93 1013.86 1119.71 1012.25 1119.72 1012.09 C 1120.94 988.751 1120.28 931.839 1120.06 912.179 C 1151.99 912.627 1188.41 912.536 1220.22 911.687 z"/>
<path transform="translate(0,0)" fill="rgb(254,251,252)" d="M 911.971 911.591 C 917.372 912.46 938.409 912.075 945.233 912.076 C 967.998 912.2 990.764 912.101 1013.53 911.781 C 1013.22 932.878 1013.18 953.978 1013.41 975.076 C 1013.59 986.686 1014.55 1002.9 1013.85 1014.1 C 980.853 1013.75 945.26 1013.12 912.384 1014.19 C 912.502 982.216 913.261 943.275 911.971 911.591 z"/>
<path transform="translate(0,0)" fill="rgb(254,251,252)" d="M 1327.79 912.125 C 1360.94 912.336 1396.14 912.69 1429.19 912.007 C 1428.93 939.912 1427.82 987.017 1429.81 1014.07 C 1395.84 1013.84 1361.87 1013.8 1327.91 1013.94 L 1327.79 912.125 z"/>
<path transform="translate(0,0)" fill="rgb(254,251,252)" d="M 1224 911.84 C 1235.49 912.511 1251.85 912.066 1263.67 912.077 C 1284.18 912.252 1304.68 912.149 1325.19 911.77 C 1324.18 944.231 1325.13 981.385 1325.47 1014.07 C 1291.76 1013.9 1258.05 1013.92 1224.35 1014.14 C 1224.87 1004.97 1224.31 990.885 1224.29 981.204 L 1224 911.84 z"/>
<path transform="translate(0,0)" fill="rgb(238,142,208)" d="M 45.1386 471.802 C 46.2776 485.95 52.0383 502.867 54.4803 516.979 C 60.3227 546.849 62.6658 564.456 74.1861 593.166 C 113.555 691.656 184.1 768.955 280.287 815.015 C 287.917 818.669 297.973 822.425 305.123 826.324 C 317.19 830.565 328.778 834.911 340.939 838.501 C 355.232 842.722 371.158 843.254 385.054 846.317 C 432.095 856.685 474.625 857.163 521.991 848.917 C 527.151 848.019 556.04 845.085 559.653 842.889 C 562.891 841.473 564.337 840.648 567.886 840.458 C 576.075 842.093 595.998 840.029 605.153 839.782 C 636.606 838.934 667.512 836.922 698.784 833.356 C 746.377 827.93 794.594 826.53 842.183 822.422 C 853.603 822.097 866.818 821.621 878.139 820.485 C 888.617 819.414 899.131 818.43 909.548 816.889 L 911.8 816.333 C 947.365 812.218 984.221 810.541 1019.95 808.277 C 1031.67 807.535 1042.94 805.222 1053.6 804.585 C 1072.45 806.643 1085.9 803.647 1101.69 793.544 L 1104.11 796.042 C 1097.17 808.053 1069.24 808.483 1056.81 809.213 C 1044.25 809.951 1031.82 810.94 1019.27 812.084 C 986.518 814.85 944.51 817.564 912.272 821.431 C 910.536 821.296 907.619 820.822 906.192 821.512 C 897.756 822.031 879.892 822.646 872.203 823.805 L 872.295 838.846 C 878.739 838.523 885.775 838.029 892.173 837.909 L 891.658 863.95 L 871.648 864.027 C 870.959 889.158 864.506 885.036 842.531 884.183 C 840.782 876.655 840.74 872.542 840.498 864.774 C 814.843 863.686 785.759 864.25 759.835 864.302 L 600.874 865.143 L 376.445 865.666 C 343.94 865.826 316.519 865.086 283.105 866.092 C 276.871 865.999 270.646 865.761 264.414 865.558 C 213.999 863.918 163.55 865.266 113.122 864.932 C 101.946 864.858 90.7762 864.536 79.6065 864.98 L 67.2375 864.418 C 67.174 872.538 67.063 875.844 65.5949 883.779 C 57.1579 884.403 48.7152 884.948 40.268 885.414 C 39.9683 878.588 39.7105 871.76 39.4947 864.931 C 32.9283 864.834 21.4013 866.046 17.2027 861.072 C 15.8964 857.911 17.5855 854.775 18.7822 851.382 L 15.0104 840.438 C 24.3132 839.086 30.0166 838.523 39.3997 838.208 C 40.2266 834.607 39.9116 827.145 39.8862 823.185 C 39.5214 766.343 40.6175 709.267 39.777 652.443 C 40.4419 589.292 39.1689 535.809 45.1386 471.802 z"/>
<path transform="translate(0,0)" fill="rgb(254,251,252)" d="M 74.1861 593.166 C 113.555 691.656 184.1 768.955 280.287 815.015 C 287.917 818.669 297.973 822.425 305.123 826.324 L 307.715 828.902 C 305.74 830.568 306.046 836.02 299.456 836.579 C 266.037 839.409 231.188 838.662 197.712 838.3 L 66.0519 837.954 C 65.6711 783.146 65.8541 728.334 66.6007 673.529 C 66.8355 648.521 65.0683 623.907 67.2604 598.993 C 70.2339 597.173 71.7041 595.58 74.1861 593.166 z"/>
<path transform="translate(0,0)" fill="rgb(35,15,31)" d="M 1101.69 793.544 L 1104.11 796.042 C 1097.17 808.053 1069.24 808.483 1056.81 809.213 C 1044.25 809.951 1031.82 810.94 1019.27 812.084 C 986.518 814.85 944.51 817.564 912.272 821.431 C 910.536 821.296 907.619 820.822 906.192 821.512 C 897.756 822.031 879.892 822.646 872.203 823.805 C 868.323 824.122 844.322 825.293 842.302 825.757 C 829.545 826.33 789.918 828.214 778.031 830.821 C 770.119 831.323 764.445 831.899 756.616 833.099 C 744.948 833.062 726.731 835.852 714.062 836.678 L 610.329 842.79 C 594.32 843.652 574.784 846.529 559.653 842.889 C 562.891 841.473 564.337 840.648 567.886 840.458 C 576.075 842.093 595.998 840.029 605.153 839.782 C 636.606 838.934 667.512 836.922 698.784 833.356 C 746.377 827.93 794.594 826.53 842.183 822.422 C 853.603 822.097 866.818 821.621 878.139 820.485 C 888.617 819.414 899.131 818.43 909.548 816.889 L 911.8 816.333 C 947.365 812.218 984.221 810.541 1019.95 808.277 C 1031.67 807.535 1042.94 805.222 1053.6 804.585 C 1072.45 806.643 1085.9 803.647 1101.69 793.544 z"/>
<path transform="translate(0,0)" fill="rgb(248,213,246)" d="M 778.031 830.821 C 789.918 828.214 829.545 826.33 842.302 825.757 L 841.766 838.932 L 804.482 838.898 C 796.999 837.399 781.339 839.489 778.031 830.821 z"/>
<path transform="translate(0,0)" fill="rgb(244,180,232)" d="M 756.616 833.099 C 764.445 831.899 770.119 831.323 778.031 830.821 C 781.339 839.489 796.999 837.399 804.482 838.898 C 792.77 839.343 778.22 838.995 766.532 838.524 C 767.839 838.733 768.502 838.183 769.692 837.549 L 769.599 836.913 C 766.698 834.673 760.696 834.08 756.616 833.099 z"/>
<path transform="translate(0,0)" fill="rgb(3,1,2)" d="M 1415.02 119.729 C 1425.87 121.731 1433.69 119.393 1444.56 119.756 C 1446.72 119.828 1447.04 121.299 1448.37 123.371 C 1455.82 123.834 1459.24 114.453 1472 122.603 L 1472 168.093 L 1468.37 166.226 C 1465.13 162.542 1466.76 135.796 1465.79 126.92 C 1460.31 127.648 1454.85 128.5 1449.42 129.475 C 1449.26 135.454 1449.83 163.781 1447.31 166.7 L 1445.02 166.108 C 1440.32 160.047 1443.33 139.378 1442.08 131.358 C 1441.04 124.689 1428.65 128.11 1423.44 128.853 C 1421.9 137.343 1421.98 162.644 1418.85 165.962 L 1416.77 165.765 C 1412.75 160.9 1414.86 127.663 1415.02 119.729 z"/>
<path transform="translate(0,0)" fill="rgb(197,180,192)" d="M 1337.24 494.247 C 1352.74 494.041 1432.36 491.986 1441.73 494.944 L 1441.65 496.109 C 1435.44 498.297 1436.15 493.796 1432.9 497.968 C 1430.85 507.084 1432.4 544.861 1432.4 556.341 C 1432.41 570.076 1432.15 584.652 1431.8 598.594 C 1435.09 598.324 1438.66 597.644 1441.59 598.943 C 1438.65 600.263 1434.93 599.635 1431.61 599.421 C 1432.46 632.263 1432.78 690.125 1429.98 721.755 L 1426.49 722.831 C 1427.2 714.909 1428.63 709.683 1428.59 701.197 C 1429.35 697.128 1429.08 675.109 1429.07 670.051 C 1428.88 646.674 1428.93 623.296 1429.21 599.92 L 1429.84 598.705 C 1428.98 592.22 1429.23 573.459 1429.18 565.96 C 1428.99 542.964 1429.01 519.968 1429.22 496.973 C 1412.23 496.775 1396.54 496.747 1379.45 496.079 C 1371.3 494.875 1342 497.236 1337.24 494.247 z"/>
<path transform="translate(0,0)" fill="rgb(248,213,246)" d="M 79.6065 864.98 C 90.7762 864.536 101.946 864.858 113.122 864.932 C 163.55 865.266 213.999 863.918 264.414 865.558 C 270.646 865.761 276.871 865.999 283.105 866.092 C 278.656 867.049 273.158 866.406 268.785 867.353 C 227.692 876.258 187.273 872.153 146.077 866.258 C 130.532 864.033 91.8485 870.313 79.6065 864.98 z"/>
<path transform="translate(0,0)" fill="rgb(224,197,208)" d="M 38.8857 685.837 C 38.7664 677.584 38.2262 659.956 39.777 652.443 C 40.6175 709.267 39.5214 766.343 39.8862 823.185 C 39.9116 827.145 40.2266 834.607 39.3997 838.208 C 38.3331 832.839 38.6963 813.457 38.7091 806.824 L 39.0408 739.777 C 39.102 728.16 39.7337 709.334 38.1423 698.338 C 32.0498 700.891 13.8795 697.464 12.2836 690.536 C 15.8312 683.231 32.0266 684.354 38.8857 685.837 z"/>
<path transform="translate(0,0)" fill="rgb(224,197,208)" d="M 1224.23 493.764 C 1245.22 494.436 1267.86 493.724 1288.97 493.751 C 1296.44 493.761 1318.86 494.063 1325.09 493.287 C 1325.89 490.875 1325.62 489.586 1325.46 487.072 L 1326.68 486.512 C 1327.25 488.974 1327.71 491.22 1328.59 493.598 C 1332.08 494.152 1333.71 494.206 1337.24 494.247 C 1342 497.236 1371.3 494.875 1379.45 496.079 C 1372.69 496.871 1334.31 497.518 1327.58 496.579 L 1325.44 497.94 C 1318.53 495.006 1241.44 499.612 1224.04 497.087 L 1224.23 493.764 z"/>
<path transform="translate(0,0)" fill="rgb(224,197,208)" d="M 1014.98 494.036 C 1055.76 493.76 1096.55 493.783 1137.33 494.104 C 1131.16 495.419 1122.96 494.014 1120.6 497.083 L 1120.17 497.638 L 1117.21 497.489 C 1111.73 496.494 1097.58 497.27 1091.21 496.99 C 1067.81 495.961 1039.12 498.528 1016.25 497.231 L 1014.98 494.036 z"/>
<path transform="translate(0,0)" fill="rgb(224,197,208)" d="M 871.153 243.512 C 870.751 226.911 870.558 208.125 871.829 191.646 L 872.711 200.634 C 879.361 201.606 898.808 203.611 889.947 214.311 C 884.691 216.64 877.51 217.256 871.812 217.217 C 871.744 223.365 871.934 238.073 871.153 243.512 z"/>
<path transform="translate(0,0)" fill="rgb(197,180,192)" d="M 1013.69 496.782 C 1006.31 496.841 982.899 497.83 977.548 495.041 C 980.841 494.462 1008.88 494.284 1014.98 494.036 L 1016.25 497.231 C 1016.57 506.879 1016.48 539.715 1014.9 547.926 C 1013.13 545.055 1013.71 503.298 1013.69 496.782 z"/>
<path transform="translate(0,0)" fill="rgb(224,197,208)" d="M 38.721 204.716 C 38.721 198.153 38.2054 189.566 39.7606 183.419 L 39.8471 228.108 C 39.846 232.759 40.1635 245.622 39.729 249.747 C 37.9823 247.469 38.5933 223.147 38.5873 218.606 C 35.3121 218.517 34.1075 217.902 31.1313 216.765 C 33.5908 215.357 33.3488 214.725 34.8311 211.945 C 34.8988 204.438 28.0018 204.869 22.8264 204.562 C 28.4845 203.294 33.1327 203.968 38.721 204.716 z"/>
<path transform="translate(0,0)" fill="rgb(248,213,246)" d="M 22.8264 204.562 C 28.0018 204.869 34.8988 204.438 34.8311 211.945 C 33.3488 214.725 33.5908 215.357 31.1313 216.765 C 26.3697 214.732 17.7511 211.896 15.4314 207.719 C 17.6192 205.125 18.7957 205.595 22.8264 204.562 z"/>
<path transform="translate(0,0)" fill="rgb(224,197,208)" d="M 208.808 32.9901 C 211.948 31.294 213.273 31.3781 214.208 28.7283 C 210.42 26.5504 210.93 27.6102 209.644 24.1899 C 210.064 20.4883 211.692 16.675 215.018 14.7134 L 216.244 15.2564 C 217.57 20.1472 216.658 28.0862 215.891 33.0697 L 208.808 32.9901 z"/>
<path transform="translate(0,0)" fill="rgb(58,50,163)" d="M 974.146 274.93 C 986.761 274.794 999.375 274.491 1011.98 274.021 C 1011.97 286.948 1012.33 303.204 1011.24 315.733 L 1010.87 344.97 C 987.977 345.382 965.079 345.613 942.18 345.665 C 941.964 321.901 941.931 298.136 942.08 274.372 C 952.728 274.884 963.48 274.858 974.146 274.93 z"/>
<path transform="translate(0,0)" fill="rgb(88,85,164)" d="M 974.146 274.93 C 986.761 274.794 999.375 274.491 1011.98 274.021 C 1011.97 286.948 1012.33 303.204 1011.24 315.733 C 1006.46 311.984 998.182 298.455 992.539 293.547 C 987.187 288.893 981.076 286.21 975.876 281.484 C 975.193 278.896 974.616 276.712 974.146 274.93 z"/>
<path transform="translate(0,0)" fill="rgb(152,53,6)" d="M 941.332 107.924 C 947.737 108.921 960.198 108.573 967.077 108.6 L 1011.19 108.795 C 1011.14 125.532 1010.04 163.231 1011.69 177.751 C 989.265 177.188 964.321 177.888 941.568 177.814 C 942.266 157.72 941.544 128.606 941.332 107.924 z"/>
<path transform="translate(0,0)" fill="rgb(3,1,2)" d="M 1100.34 120.272 C 1110.92 118.669 1120.41 120.114 1130.91 120.003 L 1130.75 120.957 C 1129.94 125.898 1128.81 146.871 1129.5 155.046 C 1131.62 180.216 1113.36 194.343 1091.81 177.999 C 1090.07 176.674 1089.54 171.736 1090.84 168.994 L 1092.57 167.64 C 1092.13 163.852 1092.12 163.328 1093.01 159.584 C 1085.15 144.432 1088.17 131.759 1100.34 120.272 z"/>
<path transform="translate(0,0)" fill="rgb(239,238,240)" d="M 1093.01 159.584 C 1096.61 162.32 1098.73 163.901 1102.64 166.116 C 1106.61 166.02 1118.35 164.771 1120.37 165.759 C 1121.18 171.356 1115.37 177.75 1110.07 178.695 C 1102.71 180.005 1097.93 169.642 1090.84 168.994 L 1092.57 167.64 C 1092.13 163.852 1092.12 163.328 1093.01 159.584 z"/>
<path transform="translate(0,0)" fill="rgb(239,238,240)" d="M 1104.79 127.125 C 1123.23 125.342 1124.23 142.828 1118.98 156.438 C 1118.03 158.877 1115.45 158.999 1113.1 159.63 C 1100.04 162.046 1096.97 154.823 1097.29 142.146 C 1097.46 135.271 1099.4 131.424 1104.79 127.125 z"/>
<path transform="translate(0,0)" fill="rgb(3,1,2)" d="M 1122.57 271.023 C 1129.48 270.623 1137.93 273.485 1144.79 275.377 C 1146.19 279.394 1147.19 282.926 1148.32 287.031 C 1148.82 287.472 1151.95 290.291 1151.65 290.972 C 1146.6 302.649 1145.5 312.413 1147.26 325.062 C 1150.28 327.983 1154.87 331.365 1152.27 335.44 C 1148.59 337.337 1142.83 336.828 1138.51 336.813 C 1137.67 326.704 1137.22 316.566 1137.17 306.423 L 1137.27 296.606 L 1120.89 296.425 C 1120.97 304.104 1122.86 332.894 1118.25 337.072 C 1116.02 336.949 1116.88 337.264 1115.05 335.466 C 1113.83 330.829 1111.79 289.571 1114.32 282.136 C 1116.37 276.109 1117.14 274.062 1122.57 271.023 z"/>
<path transform="translate(0,0)" fill="rgb(239,238,240)" d="M 1128.53 276.185 C 1135 275.94 1140.45 276.97 1138.64 285.204 C 1135.51 288.52 1136.72 287.539 1131.99 288.781 C 1127.47 289.058 1124.95 289.77 1121.37 287.677 C 1118.67 281.766 1123.66 278.787 1128.53 276.185 z"/>
<path transform="translate(0,0)" fill="rgb(3,1,2)" d="M 1200.04 289.232 C 1207.96 288.295 1213.24 289.689 1220.9 291.316 C 1223.73 305.84 1222.58 320.669 1224.43 335.519 C 1205.44 331.794 1191.49 345.482 1184.65 325.647 C 1184.47 303.639 1210.74 312.827 1212.84 301.059 C 1211.67 297.688 1207.93 295.583 1204.93 293.433 C 1197.91 297.745 1190.44 301.57 1183.15 305.426 C 1187.47 293.976 1187.14 291.702 1200.04 289.232 z"/>
<path transform="translate(0,0)" fill="rgb(239,238,240)" d="M 1209.57 315.33 C 1213.11 315.385 1212 314.916 1214.47 316.609 C 1214.32 326.379 1203.55 328.166 1196.02 328.449 C 1193.02 327.95 1190.54 326.593 1189.97 323.568 C 1192.78 318.035 1203.88 316.224 1209.57 315.33 z"/>
<path transform="translate(0,0)" fill="rgb(3,1,2)" d="M 1079.58 288.137 C 1099.26 289.452 1100.85 297.554 1103.79 315.048 C 1097.08 315.206 1072.2 314.874 1067.68 316.681 L 1067.38 318.626 C 1074.37 333.42 1085.36 327.955 1096.7 322.684 C 1099.43 321.243 1098.46 321.221 1100.79 321.909 C 1101.04 323.802 1101.06 325.752 1099.71 327.342 C 1070.51 361.58 1037.91 298.063 1079.58 288.137 z"/>
<path transform="translate(0,0)" fill="rgb(239,238,240)" d="M 1081.47 292.975 C 1085.48 294.316 1097.24 301.751 1094.58 307.021 C 1091.17 309.106 1085.92 308.321 1081.75 308.141 C 1077.8 308.185 1072.73 308.706 1069.4 306.896 C 1065.64 300.909 1076.93 295.705 1081.47 292.975 z"/>
<path transform="translate(0,0)" fill="rgb(3,1,2)" d="M 1258.02 119.184 C 1262.34 118.898 1272.84 118.236 1274.54 122.605 C 1277.78 130.922 1280.1 158.991 1277.14 166.197 L 1275.41 166.636 C 1274.3 165.927 1272.95 165.058 1271.34 164.029 C 1262.82 163.576 1251.23 170.011 1243.31 164.553 C 1239.88 162.189 1239.8 159.478 1239.33 155.35 C 1240.79 137.205 1261.17 143.816 1269.83 134.073 C 1270.42 131.044 1270.61 132.326 1268.66 129.191 C 1260.21 124.507 1248.57 133.293 1241.55 131.823 L 1240.83 130.022 C 1243.66 121.643 1250.19 120.825 1258.02 119.184 z"/>
<path transform="translate(0,0)" fill="rgb(239,238,240)" d="M 1266.75 145.302 C 1268.04 145.029 1269.23 145.215 1270.57 145.288 L 1271.75 147.032 C 1271.37 157.713 1261.95 160.259 1253.56 162.089 C 1249.7 160.993 1247.84 160.189 1245.7 156.851 C 1245.94 148.094 1259.8 146.224 1266.75 145.302 z"/>
<path transform="translate(0,0)" fill="rgb(3,1,2)" d="M 1143.74 100.834 C 1154.54 104.106 1147.98 114.864 1152.23 120.539 C 1156.35 120.24 1164.5 118.375 1167.86 119.004 C 1182.94 121.821 1178.11 151.705 1178.07 162.603 C 1178.06 164.62 1177.12 165.038 1175.77 165.921 L 1173.93 165.361 C 1170.39 160.292 1171.71 141.462 1170.85 132.715 C 1168.27 123.279 1159.17 127.457 1152.01 129.332 C 1150.2 141.635 1152.08 154.048 1150.26 164.747 L 1148.49 165.842 C 1145.56 166.042 1144.01 166.499 1141.61 164.92 C 1140.14 156.102 1141.78 109.649 1143.74 100.834 z"/>
<path transform="translate(0,0)" fill="rgb(3,1,2)" d="M 1359.51 290.799 C 1362.03 290.594 1364.56 290.409 1367.08 290.244 C 1373.87 289.804 1412.2 287.48 1416.78 291.956 C 1422.36 297.41 1420.86 320.304 1420.74 328.214 C 1420.68 331.777 1420.57 334.26 1417.98 336.761 L 1415.73 336.225 C 1409.55 328.538 1419.44 301.014 1409.97 296.715 C 1403.49 298.6 1399.18 295.74 1395.25 300.085 C 1391.26 300.462 1387.97 300.805 1384.74 303.521 C 1383.97 299.371 1384.72 300.228 1382.15 297.423 C 1377.79 295.881 1371.07 297.675 1366.26 298.518 C 1365.71 306.571 1366.62 332.067 1362.75 336.553 L 1361.16 335.997 C 1358.43 332.036 1360.19 299.525 1359.59 291.726 L 1359.51 290.799 z"/>
<path transform="translate(0,0)" fill="rgb(3,1,2)" d="M 1393.5 160.251 C 1393.73 152.642 1393.89 124.28 1396.95 119.264 L 1398.82 118.824 L 1400.71 120.284 L 1400.91 124.751 C 1400.89 133.143 1403.3 159.484 1399.57 164.015 C 1393.72 167.999 1373.99 165.88 1366.33 165.342 C 1363.75 153.838 1364.27 130.553 1364.89 118.801 C 1368 118.773 1368.95 118.688 1372.06 119.57 C 1372.42 120.165 1373.7 155.228 1374.82 160.937 C 1380.99 161.119 1387.32 160.614 1393.5 160.251 z"/>
<path transform="translate(0,0)" fill="rgb(3,1,2)" d="M 1294.27 289.67 L 1295.73 289.31 L 1297.04 290.26 C 1297.23 291.59 1297.37 292.926 1297.46 294.266 C 1297.8 299.782 1297.83 333.593 1295.42 336.298 L 1292.28 336.391 C 1289.34 332.661 1290.89 297.731 1291.12 290.876 C 1285.84 294.179 1276.48 296.2 1269.66 298.943 C 1264.6 304.863 1270.03 326.153 1266.02 334.463 C 1263.43 336.523 1264.7 336.021 1261.09 336.119 C 1258.57 333.221 1260.42 298.202 1258.42 289.933 C 1266.98 289.907 1287.19 290.923 1294.27 289.67 z"/>
<path transform="translate(0,0)" fill="rgb(3,1,2)" d="M 1341.02 287.4 L 1343.19 288.345 C 1346.27 292.604 1346.96 333.519 1343.47 336.902 C 1340.7 336.228 1340.59 334.908 1338.5 332.025 C 1334.03 331.864 1328.66 336.083 1324.41 336.714 C 1322.21 337.039 1315.37 335.976 1312.92 335.613 C 1310.6 325.855 1310.07 320.087 1309.87 310.17 C 1309.82 305.072 1308.67 291.489 1312.43 288.469 C 1315.52 293.188 1315.85 319.192 1316.52 326.847 C 1338.64 329.024 1338.77 324.951 1338.5 303.537 C 1338.44 298.808 1339.06 291.727 1341.02 287.4 z"/>
<path transform="translate(0,0)" fill="rgb(3,1,2)" d="M 1197.41 104.652 C 1198.86 105.859 1207.29 124.361 1206.68 125.203 C 1196.65 139.098 1199.24 151.859 1207.8 165.467 L 1206.73 167.211 C 1200.71 165.982 1198.57 165.584 1192.31 165.464 C 1192.21 152.35 1193.65 135.876 1187.86 124.47 C 1188.39 118.796 1194.3 109.634 1197.41 104.652 z"/>
<path transform="translate(0,0)" fill="rgb(3,1,2)" d="M 1326.25 119.54 C 1332.17 118.918 1336.09 117.746 1340.81 121.525 C 1341.68 128.777 1329.93 128.924 1324.95 129.465 C 1323.95 140.984 1324.24 154.102 1324.22 165.772 C 1320.86 167.351 1318.64 167.511 1315.69 165.363 C 1312.18 158.419 1314.2 130.305 1313.86 119.924 C 1318.38 119.987 1321.71 120.073 1326.25 119.54 z"/>
<path transform="translate(0,0)" fill="rgb(3,1,2)" d="M 1296.11 105.388 C 1299.18 107.538 1299.74 112.648 1300.65 116.521 C 1304.06 118.839 1308.09 120.693 1307.71 125.101 C 1305.43 126.151 1303.18 127.239 1300.94 128.363 C 1298.24 133.093 1300.11 150.812 1300.53 157.175 C 1303.52 159.9 1306.9 162.42 1307.9 165.973 L 1306.08 167.133 C 1301.6 167.032 1297.17 166.283 1292.73 165.642 C 1291.11 153.421 1292.89 141.741 1291.47 129.605 C 1291.18 127.138 1286.82 125.553 1284.73 124.421 C 1284.24 122.179 1285.44 122.607 1287.56 121.081 C 1291.94 117.928 1293.67 110.506 1296.11 105.388 z"/>
<path transform="translate(0,0)" fill="rgb(3,1,2)" d="M 1238.91 273.173 L 1241.54 274.447 C 1243.52 278.048 1242.71 282.056 1242.79 286.548 C 1245.67 291.467 1249.39 287.048 1253.87 291.365 L 1253.6 293.076 C 1250.97 295.519 1248.04 295.751 1244.5 296.482 C 1242.12 299.761 1242.98 315.197 1243.09 319.741 C 1243.18 323.87 1243.12 325.31 1245.72 327.637 C 1248.49 327.523 1249.4 327.291 1251.99 328.369 C 1253.99 330.571 1253.73 333.402 1253.86 336.401 C 1230.31 341.566 1237.13 313.38 1236.64 296.888 C 1232.91 294.862 1230.83 294.662 1228.41 291.173 C 1230.83 287.432 1236.26 290.443 1236.84 286.056 C 1237.41 281.729 1238.16 277.471 1238.91 273.173 z"/>
<path transform="translate(0,0)" fill="rgb(3,1,2)" d="M 1072.73 119.254 C 1076.75 118.211 1075.2 118.11 1078.82 119.216 C 1083.96 124.74 1081.62 150.989 1081.99 159.115 C 1082.14 162.206 1081.86 164.213 1079.79 166.115 C 1075.72 166.661 1076.89 167.028 1073.3 165.613 C 1070.97 162.621 1071.69 155.848 1071.65 151.716 C 1069.12 148.832 1071.49 135.283 1070.24 128.341 L 1068.17 126.909 C 1067.91 124.429 1067.32 122.037 1066.78 119.599 C 1069.44 119.01 1070 119.065 1072.73 119.254 z"/>
<path transform="translate(0,0)" fill="rgb(254,251,252)" d="M 1066.78 119.599 C 1069.44 119.01 1070 119.065 1072.73 119.254 C 1071.89 130.582 1071.75 140.383 1071.65 151.716 C 1069.12 148.832 1071.49 135.283 1070.24 128.341 L 1068.17 126.909 C 1067.91 124.429 1067.32 122.037 1066.78 119.599 z"/>
<path transform="translate(0,0)" fill="rgb(47,50,51)" d="M 1344.79 118.847 C 1348.96 118.794 1350.9 118.592 1354.86 119.806 C 1355.71 121.338 1355.59 159.61 1356.06 165.66 C 1351.8 166.037 1349.61 166.44 1345.48 165.452 C 1344.27 162.532 1344.79 125.252 1344.79 118.847 z"/>
<path transform="translate(0,0)" fill="rgb(3,1,2)" d="M 1046.07 120.328 C 1052.5 119.674 1060.64 118.429 1066.78 119.599 C 1067.32 122.037 1067.91 124.429 1068.17 126.909 C 1064.3 127.817 1056.08 128.376 1051.75 128.736 C 1050.15 140.561 1052 154.69 1049.95 165.527 C 1047.38 166.447 1048.2 166.592 1046.15 165.798 C 1043.27 159.17 1045.33 128.656 1046.07 120.328 z"/>
<path transform="translate(0,0)" fill="rgb(11,0,6)" d="M 1384.74 303.521 C 1387.97 300.805 1391.26 300.462 1395.25 300.085 C 1395.18 306.719 1395.4 330.669 1393.99 335.396 C 1391.18 336.234 1390.81 336.216 1387.9 335.824 C 1383.62 331.451 1384.28 325.541 1384.34 319.394 C 1384.41 314.102 1384.54 308.81 1384.74 303.521 z"/>
<path transform="translate(0,0)" fill="rgb(3,1,2)" d="M 1046.38 270.191 L 1049.51 271.504 C 1052.32 278.171 1050.74 328.643 1049.8 337.681 C 1048.99 337.393 1047.69 336.635 1046.88 336.207 C 1043.84 327.334 1044.57 280.707 1046.38 270.191 z"/>
<path transform="translate(0,0)" fill="rgb(47,50,51)" d="M 1346.78 100.408 C 1353.1 102.026 1356.43 104.431 1355.73 111.831 C 1352.43 112.051 1348.76 112.741 1346.05 111.042 C 1344.87 107.524 1346.07 104.444 1346.78 100.408 z"/>
<path transform="translate(0,0)" fill="rgb(3,1,2)" d="M 1075.14 99.7357 C 1080.5 101.699 1082.86 108.365 1078.48 113.123 C 1074.37 112.599 1075.65 113.287 1072.94 110.958 C 1071.96 107.903 1074.07 103.003 1075.14 99.7357 z"/>
<path transform="translate(0,0)" fill="rgb(248,213,246)" d="M 691.866 16.9948 C 696.331 16.5978 698.687 16.2444 701.733 19.8535 C 701.069 22.5623 701.576 21.5828 699.054 23.5598 C 695.575 23.265 691.977 23.4129 689.323 21.3286 L 689.347 19.4192 L 691.866 16.9948 z"/>
</svg>